<svg width="40" height="40" viewBox="0 0 40 40" fill="none" xmlns="http://www.w3.org/2000/svg">
<circle cx="20" cy="20" r="20" fill="#3464A0"/>
<path d="M29.3231 14.041C29.0952 13.8122 28.812 13.627 28.4777 13.4698C27.5653 13.0523 26.2449 12.8951 24.6735 12.8892C22.7633 12.8892 20.5479 13.151 18.5623 13.6362C16.5662 14.1351 14.845 14.8108 13.8269 15.8071C13.6368 15.9965 13.6256 16.3206 13.8039 16.5245C13.9775 16.723 14.2651 16.7333 14.45 16.5502C14.8235 16.1679 15.431 15.8002 16.1725 15.4725C16.9176 15.1433 17.8098 14.8492 18.7627 14.6198C20.6689 14.1526 22.8417 13.8967 24.6707 13.8967C25.416 13.8937 26.1107 13.9399 26.6995 14.0251C27.2852 14.1098 27.776 14.2343 28.1083 14.3932C28.427 14.5416 28.6447 14.7107 28.7684 14.8634L28.7694 14.8647C28.8285 14.9394 28.8692 15.0071 28.8947 15.0757C28.9207 15.1458 28.9277 15.2085 28.9293 15.2671L28.9295 15.2714H28.9294C28.9294 15.4479 28.8395 15.7186 28.5361 16.0517C28.0888 16.561 27.1985 17.1186 25.8809 17.6177C24.5577 18.1189 22.7892 18.5665 20.5703 18.8458C19.4011 18.9946 18.1466 19.0659 16.951 19.0659C16.9509 19.0659 16.9507 19.0659 16.9506 19.0659V18.9159C14.8284 18.9218 12.8505 18.6733 11.9822 18.3213L29.3231 14.041ZM29.3231 14.041L29.4548 14.1989C29.7 14.4931 29.85 14.8796 29.85 15.2743C29.85 15.8165 29.5961 16.3175 29.1902 16.7617L29.1899 16.7621C28.7814 17.2119 28.207 17.6251 27.4512 18.0164C25.9377 18.7927 23.7091 19.4548 20.6765 19.8469C19.4659 20.0027 18.1797 20.0764 16.9482 20.0764C14.7288 20.0705 12.7556 19.857 11.607 19.4093C10.826 19.0998 10.2195 18.684 9.79541 18.1697L9.79515 18.1694C9.37341 17.6606 9.14755 17.0322 9.15002 16.3938C9.16882 14.9557 10.1436 13.5895 11.7883 12.427C15.6576 9.72038 19.8125 9.15 22.6514 9.15C24.6814 9.15 26.0408 9.44233 26.1601 9.46798C26.1615 9.4683 26.1628 9.46858 26.1639 9.46882C26.4062 9.52309 26.5766 9.78458 26.5211 10.0687L26.6683 10.0975M29.3231 14.041L11.9263 18.4605C11.2463 18.1904 10.7764 17.849 10.4874 17.4964L10.4865 17.4953C10.1996 17.1383 10.0824 16.7868 10.0762 16.3896C10.0657 15.9531 10.2456 15.4339 10.6087 14.8988C10.9733 14.3612 11.5289 13.7977 12.2874 13.27C15.9414 10.7053 19.9229 10.1516 22.6487 10.1546M22.6487 10.1546C23.6569 10.1546 24.4955 10.229 25.0784 10.3067C25.3703 10.3426 25.5976 10.3815 25.7486 10.4083C25.8252 10.4219 25.8818 10.4334 25.9197 10.4415C25.9386 10.4456 25.9529 10.4489 25.9627 10.4512L25.974 10.4539L25.9759 10.4544C26.216 10.5072 26.4667 10.3446 26.5211 10.0685L26.6683 10.0975M22.6487 10.1546C22.6487 10.1546 22.6486 10.1546 22.6486 10.1546V10.3046L22.6488 10.1546C22.6488 10.1546 22.6487 10.1546 22.6487 10.1546ZM26.6683 10.0975C26.7376 9.74251 26.5268 9.3964 26.1967 9.32244L25.0593 10.4554C25.3478 10.4909 25.5725 10.5294 25.7223 10.556C25.8721 10.5826 25.9415 10.6004 25.9415 10.6004C26.2716 10.6743 26.5989 10.4495 26.6683 10.0975ZM19.1593 26.1005C19.7192 26.1005 20.2988 26.0706 20.887 26.0049C23.2594 25.7483 25.3375 24.8655 26.3083 24.0957C26.4724 23.9702 26.602 23.8447 26.695 23.7387C26.7416 23.6857 26.7799 23.6366 26.809 23.5939C26.8342 23.5568 26.8584 23.5163 26.8721 23.4783C26.9814 23.2255 27.2539 23.1238 27.4772 23.231L27.508 23.2458H27.5082C27.7199 23.3667 27.8195 23.6519 27.715 23.9005C27.5438 24.2924 27.2506 24.5931 26.8525 24.913C26.4559 25.2235 25.9588 25.5195 25.3698 25.8C24.192 26.355 22.6712 26.8179 20.9815 27.0054L20.9811 27.0054C20.3629 27.0757 19.7529 27.108 19.1592 27.108C16.8384 27.0962 14.8533 26.639 13.6768 25.7515C13.4673 25.5884 13.4172 25.2699 13.5711 25.0406C13.7239 24.8171 14.0081 24.7721 14.2118 24.9269C14.6402 25.2685 15.338 25.5632 16.1892 25.7715C17.0448 25.9809 18.0688 26.1064 19.1593 26.1005ZM19.1593 26.1005C19.1594 26.1005 19.1595 26.1005 19.1596 26.1005L19.1588 25.9505V26.1005C19.159 26.1005 19.1591 26.1005 19.1593 26.1005ZM22.2797 28.3162V28.3162C22.0045 28.3162 21.7107 28.3529 21.395 28.4248C21.3949 28.4248 21.3948 28.4248 21.3948 28.4248L22.2797 28.3162ZM22.2797 28.3162C22.9867 28.3146 23.6 28.5753 23.9988 29.047L23.9994 29.0476C24.405 29.5215 24.5792 30.1574 24.5792 30.8286C24.5792 31.0228 24.5658 31.2203 24.5389 31.421L24.5388 31.4219C24.5062 31.6772 24.3022 31.85 24.0828 31.85C24.0508 31.85 24.0369 31.8496 24.0226 31.8468L24.0226 31.8467L24.0165 31.8458C23.7733 31.809 23.5863 31.5603 23.624 31.2741L23.6241 31.2737C23.6441 31.1184 23.6558 30.9698 23.6558 30.8286C23.6558 30.3408 23.5335 29.9735 23.3256 29.731L23.3257 29.731L23.3235 29.7286C23.1112 29.4917 22.8082 29.3301 22.2787 29.3237H22.2769C22.0759 29.3237 21.8453 29.3489 21.5854 29.4104C20.6594 29.6226 19.8436 29.7614 19.1289 29.7615C18.4203 29.7586 17.7992 29.6309 17.3179 29.203C17.1218 29.0201 17.0973 28.6987 17.2674 28.4848C17.4328 28.2797 17.7205 28.2564 17.9136 28.4298M27.9073 19.5715C28.0473 19.3688 28.3011 19.316 28.4978 19.4315L28.5454 19.4688C28.7526 19.6311 28.801 19.9524 28.6451 20.1793C28.0878 20.9721 25.9331 23.0029 20.2821 23.547C19.3263 23.6354 18.4628 23.6765 17.683 23.6765C13.8774 23.6765 12.067 22.7248 11.3386 22.1635C11.1288 22.0005 11.0787 21.6819 11.235 21.4527C11.388 21.2285 11.6727 21.1838 11.8764 21.3418L11.8769 21.3422C12.4162 21.757 14.0151 22.669 17.6858 22.669C18.4344 22.669 19.2714 22.6302 20.205 22.5411C25.6625 22.0266 27.5857 20.0457 27.9073 19.5715Z" fill="white" stroke="white" stroke-width="0.3"/>
</svg>
