<svg width="16" height="21" viewBox="0 0 16 21" fill="none" xmlns="http://www.w3.org/2000/svg">
<path d="M14.3093 20.2912C14.4701 20.6729 14.9099 20.852 15.2916 20.6912C15.6734 20.5303 15.8524 20.0905 15.6916 19.7088L14.3093 20.2912ZM11.7815 14.2912L14.3093 20.2912L15.6916 19.7088L13.1638 13.7088L11.7815 14.2912Z" fill="#EFA106"/>
<path d="M1.69071 20.2912C1.52989 20.6729 1.09008 20.852 0.708355 20.6912C0.326635 20.5303 0.147559 20.0905 0.308378 19.7088L1.69071 20.2912ZM4.21851 14.2912L1.69071 20.2912L0.308378 19.7088L2.83618 13.7088L4.21851 14.2912Z" fill="#EFA106"/>
<path fill-rule="evenodd" clip-rule="evenodd" d="M0 1C0 0.447715 0.447715 0 1 0H15C15.5523 0 16 0.447715 16 1V15C16 15.5523 15.5523 16 15 16H1C0.447715 16 0 15.5523 0 15V1ZM13 12.5C13 13.3284 12.3284 14 11.5 14C10.6716 14 10 13.3284 10 12.5C10 11.6716 10.6716 11 11.5 11C12.3284 11 13 11.6716 13 12.5ZM4.5 14C5.32843 14 6 13.3284 6 12.5C6 11.6716 5.32843 11 4.5 11C3.67157 11 3 11.6716 3 12.5C3 13.3284 3.67157 14 4.5 14ZM1.5 5.5C1.5 5.22386 1.72386 5 2 5H14C14.2761 5 14.5 5.22386 14.5 5.5V9.5C14.5 9.77614 14.2761 10 14 10H2C1.72386 10 1.5 9.77614 1.5 9.5V5.5ZM4.5 2C4.22386 2 4 2.22386 4 2.5V3.5C4 3.77614 4.22386 4 4.5 4H11.5C11.7761 4 12 3.77614 12 3.5V2.5C12 2.22386 11.7761 2 11.5 2H4.5Z" fill="#EFA106"/>
<rect x="1" y="18" width="14" height="1" fill="#EFA106"/>
</svg>
