<svg width="18" height="17" viewBox="0 0 18 17" fill="none" xmlns="http://www.w3.org/2000/svg">
<path d="M9.02763 12.8453C6.8625 12.8453 5.10156 11.0268 5.10156 8.79082C5.10156 6.55486 6.8625 4.73633 9.02763 4.73633C11.1928 4.73633 12.9542 6.55486 12.9542 8.79082C12.9542 11.0268 11.1933 12.8453 9.02763 12.8453ZM9.02763 5.44351C7.24054 5.44351 5.78634 6.94474 5.78634 8.79082C5.78634 10.6369 7.24003 12.1381 9.02763 12.1381C10.8152 12.1381 12.2689 10.6369 12.2689 8.79082C12.2689 6.94474 10.8152 5.44351 9.02763 5.44351Z" fill="#FFCF25" stroke="#FFCF25"/>
<path d="M5.97272 5.25737C6.07172 5.37497 6.06094 5.55243 5.94758 5.6552C5.8332 5.75796 5.66085 5.74578 5.56236 5.62924L3.53213 3.23437C3.43313 3.11624 3.44493 2.93878 3.55726 2.83761C3.67063 2.73537 3.84349 2.74597 3.94249 2.86356L5.9722 5.2579L5.97272 5.25737Z" fill="#FFCF25" stroke="#FFCF25"/>
<path d="M9.31342 3.96279C9.31495 4.118 9.19339 4.24513 9.0431 4.24619C8.89229 4.24725 8.7697 4.12277 8.76816 3.96597L8.7461 0.783932C8.74507 0.627135 8.86664 0.501061 9.01642 0.500002C9.16774 0.499472 9.28982 0.623427 9.29136 0.780224L9.3129 3.96279H9.31342Z" fill="#FFCF25" stroke="#FFCF25"/>
<path d="M4.36657 8.01805C4.51738 8.03077 4.62766 8.16691 4.61638 8.32158C4.60407 8.47679 4.47327 8.59227 4.32195 8.58009L1.25044 8.32158C1.10015 8.30834 0.987301 8.1722 1.00115 8.01805C1.01295 7.86285 1.14375 7.7479 1.29558 7.75849L4.36657 8.01805Z" fill="#FFCF25" stroke="#FFCF25"/>
<path d="M4.86139 11.0322C4.98911 10.9485 5.15736 10.9882 5.23789 11.1196C5.31791 11.2504 5.28098 11.4252 5.15274 11.5084L2.5475 13.2088C2.41926 13.2925 2.25102 13.2533 2.17151 13.1219C2.09047 12.99 2.12843 12.8163 2.25666 12.7331L4.86139 11.0322Z" fill="#FFCF25" stroke="#FFCF25"/>
<path d="M7.18886 13.1301C7.24272 12.9839 7.39968 12.9108 7.54023 12.9653C7.68078 13.0204 7.75208 13.182 7.70027 13.3287L6.61437 16.3068C6.56 16.4525 6.40355 16.5261 6.26403 16.471C6.12092 16.4159 6.05064 16.2544 6.10348 16.1082L7.18886 13.1301Z" fill="#FFCF25" stroke="#FFCF25"/>
<path d="M13.0759 11.6284C12.942 11.5558 12.8907 11.3863 12.9615 11.2485C13.0308 11.1108 13.1959 11.0573 13.3298 11.1304L16.0571 12.611C16.191 12.6846 16.2423 12.8547 16.1715 12.9908C16.1017 13.1296 15.9371 13.1815 15.8027 13.11L13.0764 11.6284H13.0759Z" fill="#FFCF25" stroke="#FFCF25"/>
<path d="M13.6991 8.19463C13.5494 8.21264 13.4139 8.10193 13.3965 7.94831C13.3785 7.79363 13.4852 7.65272 13.6355 7.63524L16.6963 7.2655C16.8466 7.24801 16.9825 7.3582 16.9984 7.51182C17.0169 7.66755 16.9097 7.80687 16.7594 7.82594L13.6986 8.19463H13.6991Z" fill="#FFCF25" stroke="#FFCF25"/>
<path d="M11.6909 16.1249C11.7417 16.2716 11.6674 16.4326 11.5248 16.4851C11.3822 16.5354 11.2272 16.4596 11.177 16.3129L10.1521 13.3104C10.1024 13.1642 10.1772 13.0027 10.3183 12.9518C10.4604 12.8999 10.6163 12.9762 10.6661 13.1235L11.6899 16.1249H11.6909Z" fill="#FFCF25" stroke="#FFCF25"/>
<path d="M12.1951 5.3363C12.1017 5.4592 11.9314 5.48145 11.8119 5.3861C11.6929 5.29022 11.6724 5.11382 11.7647 4.99093L13.6626 2.48164C13.7554 2.35927 13.9268 2.33649 14.0453 2.4329C14.1637 2.52825 14.1848 2.70571 14.0914 2.82913L12.1946 5.3363H12.1951Z" fill="#FFCF25" stroke="#FFCF25"/>
</svg>
