<svg width="40" height="43" viewBox="0 0 40 43" fill="none" xmlns="http://www.w3.org/2000/svg">
<path d="M20 43L15.6699 38.5L24.3301 38.5L20 43Z" fill="#E55091"/>
<circle cx="20" cy="20" r="20" fill="#E55091"/>
<path d="M26.9257 12.6042V12.7542H27.0757H28.2767C28.4324 12.7542 28.5608 12.8819 28.5608 13.0418V28.2705C28.5608 28.4305 28.4324 28.5581 28.2767 28.5581H11.7235C11.5677 28.5581 11.4394 28.4305 11.4394 28.2705V13.0418C11.4394 12.8819 11.5677 12.7542 11.7235 12.7542H13.0836H13.2336V12.6042V12.3125V12.1625H13.0836H11.7235C11.2399 12.1625 10.85 12.5573 10.85 13.0418V28.2705C10.85 28.755 11.2399 29.1498 11.7235 29.1498H28.2767C28.7602 29.1498 29.1502 28.755 29.1502 28.2705V13.0418C29.1502 12.5573 28.7602 12.1625 28.2767 12.1625H27.0757H26.9257V12.3125V12.6042ZM17.2074 12.7542H17.3574V12.6042V12.3125V12.1625H17.2074H14.5306H14.3806V12.3125V12.6042V12.7542H14.5306H17.2074ZM21.3168 12.7542H21.4668V12.6042V12.3125V12.1625H21.3168H18.6689H18.5189V12.3125V12.6042V12.7542H18.6689H21.3168ZM25.513 12.7542H25.663V12.6042V12.3125V12.1625H25.513H22.8506H22.7006V12.3125V12.6042V12.7542H22.8506H25.513Z" fill="white" stroke="white" stroke-width="0.3"/>
<path d="M14.1798 11.8752V13.0422C14.1798 13.2827 13.9867 13.4756 13.751 13.4756C13.5153 13.4756 13.3222 13.2827 13.3222 13.0422V11.8752C13.3222 11.6347 13.5153 11.4417 13.751 11.4417C13.9867 11.4417 14.1798 11.6347 14.1798 11.8752ZM13.751 10.85C13.1875 10.85 12.7328 11.3101 12.7328 11.8752V13.0422C12.7328 13.6072 13.1875 14.0674 13.751 14.0674C14.3144 14.0674 14.7692 13.6072 14.7692 13.0422V11.8752C14.7692 11.3101 14.3144 10.85 13.751 10.85Z" fill="white" stroke="white" stroke-width="0.3"/>
<path d="M18.3438 11.8752V13.0422C18.3438 13.2827 18.1507 13.4756 17.915 13.4756C17.6794 13.4756 17.4863 13.2827 17.4863 13.0422V11.8752C17.4863 11.6347 17.6794 11.4417 17.915 11.4417C18.1507 11.4417 18.3438 11.6347 18.3438 11.8752ZM17.915 10.85C17.3516 10.85 16.8969 11.3101 16.8969 11.8752V13.0422C16.8969 13.6072 17.3516 14.0674 17.915 14.0674C18.4785 14.0674 18.9332 13.6072 18.9332 13.0422V11.8752C18.9332 11.3101 18.4785 10.85 17.915 10.85Z" fill="white" stroke="white" stroke-width="0.3"/>
<path d="M22.5118 11.8752V13.0422C22.5118 13.2827 22.3187 13.4756 22.083 13.4756C21.8473 13.4756 21.6542 13.2827 21.6542 13.0422V11.8752C21.6542 11.6347 21.8473 11.4417 22.083 11.4417C22.3187 11.4417 22.5118 11.6347 22.5118 11.8752ZM22.083 10.85C21.5196 10.85 21.0648 11.3101 21.0648 11.8752V13.0422C21.0648 13.6072 21.5196 14.0674 22.083 14.0674C22.6465 14.0674 23.1012 13.6072 23.1012 13.0422V11.8752C23.1012 11.3101 22.6465 10.85 22.083 10.85Z" fill="white" stroke="white" stroke-width="0.3"/>
<path d="M26.6798 11.8752V13.0422C26.6798 13.2827 26.4867 13.4756 26.251 13.4756C26.0153 13.4756 25.8222 13.2827 25.8222 13.0422V11.8752C25.8222 11.6347 26.0153 11.4417 26.251 11.4417C26.4867 11.4417 26.6798 11.6347 26.6798 11.8752ZM26.251 10.85C25.6875 10.85 25.2328 11.3101 25.2328 11.8752V13.0422C25.2328 13.6072 25.6875 14.0674 26.251 14.0674C26.8144 14.0674 27.2692 13.6072 27.2692 13.0422V11.8752C27.2692 11.3101 26.8144 10.85 26.251 10.85Z" fill="white" stroke="white" stroke-width="0.3"/>
<path d="M28.8255 15.7152H28.9755V15.5652V15.2734V15.1234H28.8255H11.2305H11.0805V15.2734V15.5652V15.7152H11.2305H28.8255Z" fill="white" stroke="white" stroke-width="0.3"/>
<path d="M20.7434 20.655C20.7274 20.6523 20.7138 20.6421 20.7067 20.6275L20.0649 19.3052C19.9373 19.0423 19.5628 19.0423 19.4352 19.3052L18.7934 20.6275C18.7863 20.6421 18.7726 20.6523 18.7566 20.655L17.3465 20.8908C17.0699 20.9371 16.9573 21.2737 17.1505 21.477L17.2592 21.3737L17.1505 21.4771L18.1715 22.552C18.1821 22.5632 18.187 22.5786 18.1847 22.5938L17.9612 24.0839C17.9185 24.3686 18.2185 24.5802 18.4724 24.4445L19.7264 23.7737C19.7412 23.7658 19.7589 23.7658 19.7736 23.7737L21.0277 24.4445C21.2815 24.5802 21.5816 24.3686 21.5389 24.0839L21.3154 22.5938C21.3131 22.5786 21.3179 22.5632 21.3286 22.552L22.3496 21.4771C22.5428 21.2737 22.4302 20.9371 22.1535 20.8908L20.7434 20.655Z" fill="white" stroke="white" stroke-width="0.3"/>
</svg>
