<svg width="14" height="7" viewBox="0 0 14 7" fill="none" xmlns="http://www.w3.org/2000/svg">
<path d="M0.0709453 5.99432L0.0368903 6.06357C-0.0493823 6.23612 0.020998 6.44499 0.192408 6.53126C0.242355 6.55623 0.295708 6.56758 0.347926 6.56758C0.4762 6.56758 0.598798 6.4972 0.660097 6.37461L0.694152 6.30536C0.780424 6.13282 0.710044 5.92394 0.538634 5.83767C0.366088 5.7514 0.157218 5.82178 0.0709453 5.99319V5.99432Z" fill="#7AC0E2"/>
<path d="M0.719752 5.47599C0.769699 5.50096 0.823052 5.51231 0.87527 5.51231C1.00354 5.51231 1.12614 5.44193 1.18744 5.31933L2.32488 3.04559C2.41115 2.87305 2.34077 2.66418 2.16936 2.57791C1.99681 2.49163 1.78794 2.56201 1.70167 2.73342L0.564234 5.00716C0.477961 5.17971 0.548342 5.38858 0.719752 5.47485V5.47599Z" fill="#7AC0E2"/>
<path d="M2.9811 5.99432L2.94705 6.06357C2.86077 6.23612 2.93115 6.44499 3.10256 6.53126C3.15251 6.55623 3.20586 6.56758 3.25808 6.56758C3.38636 6.56758 3.50895 6.4972 3.57025 6.37461L3.60431 6.30536C3.69058 6.13282 3.6202 5.92394 3.44879 5.83767C3.27624 5.7514 3.06737 5.82178 2.9811 5.99319V5.99432Z" fill="#7AC0E2"/>
<path d="M5.07952 2.57986C4.90697 2.49359 4.6981 2.56397 4.61183 2.73538L3.47439 5.00911C3.38812 5.18166 3.4585 5.39053 3.62991 5.4768C3.67986 5.50178 3.73321 5.51313 3.78543 5.51313C3.9137 5.51313 4.0363 5.44275 4.0976 5.32015L5.23503 3.04641C5.32131 2.87387 5.25093 2.665 5.07952 2.57872V2.57986Z" fill="#7AC0E2"/>
<path d="M5.89126 5.99432L5.8572 6.06357C5.77093 6.23612 5.84131 6.44499 6.01272 6.53126C6.06267 6.55623 6.11602 6.56758 6.16824 6.56758C6.29651 6.56758 6.41911 6.4972 6.48041 6.37461L6.51446 6.30536C6.60074 6.13282 6.53036 5.92394 6.35895 5.83767C6.1864 5.7514 5.97753 5.82178 5.89126 5.99319V5.99432Z" fill="#7AC0E2"/>
<path d="M6.54006 5.47599C6.59001 5.50096 6.64336 5.51231 6.69558 5.51231C6.82386 5.51231 6.94645 5.44193 7.00775 5.31933L8.14519 3.04559C8.23146 2.87305 8.16108 2.66418 7.98967 2.57791C7.81713 2.49163 7.60826 2.56201 7.52198 2.73342L6.38455 5.00716C6.29827 5.17971 6.36865 5.38858 6.54006 5.47485V5.47599Z" fill="#7AC0E2"/>
<path d="M8.80141 5.99432L8.76736 6.06357C8.68109 6.23612 8.75147 6.44499 8.92288 6.53126C8.97282 6.55623 9.02618 6.56758 9.07839 6.56758C9.20667 6.56758 9.32927 6.4972 9.39057 6.37461L9.42462 6.30536C9.51089 6.13282 9.44051 5.92394 9.2691 5.83767C9.09656 5.7514 8.88769 5.82178 8.80141 5.99319V5.99432Z" fill="#7AC0E2"/>
<path d="M10.8998 2.57986C10.7273 2.49359 10.5184 2.56397 10.4321 2.73538L9.2947 5.00911C9.20843 5.18166 9.27881 5.39053 9.45022 5.4768C9.50017 5.50178 9.55352 5.51313 9.60574 5.51313C9.73401 5.51313 9.85661 5.44275 9.91791 5.32015L11.0553 3.04641C11.1416 2.87387 11.0712 2.665 10.8998 2.57872V2.57986Z" fill="#7AC0E2"/>
<path d="M11.7116 5.99432L11.6775 6.06357C11.5912 6.23612 11.6616 6.44499 11.833 6.53126C11.883 6.55623 11.9363 6.56758 11.9886 6.56758C12.1168 6.56758 12.2394 6.4972 12.3007 6.37461L12.3348 6.30536C12.421 6.13282 12.3507 5.92394 12.1793 5.83767C12.0067 5.7514 11.7978 5.82178 11.7116 5.99319V5.99432Z" fill="#7AC0E2"/>
<path d="M13.8061 2.57986C13.6335 2.49359 13.4247 2.56397 13.3384 2.73538L12.201 5.00911C12.1147 5.18166 12.1851 5.39053 12.3565 5.4768C12.4064 5.50178 12.4598 5.51313 12.512 5.51313C12.6403 5.51313 12.7629 5.44275 12.8242 5.32015L13.9616 3.04641C14.0479 2.87387 13.9775 2.665 13.8061 2.57872V2.57986Z" fill="#7AC0E2"/>
<path d="M4.68889 0.0368903C4.51635 -0.0493823 4.30747 0.020998 4.2212 0.192408L3.08377 2.46615C2.99749 2.63869 3.06787 2.84756 3.23928 2.93383C3.28923 2.95881 3.34258 2.97016 3.3948 2.97016C3.52307 2.97016 3.64567 2.89978 3.70697 2.77718L4.84441 0.503444C4.93068 0.330898 4.8603 0.122028 4.68889 0.0357551V0.0368903Z" fill="#7AC0E2"/>
<path d="M6.14944 2.93497C6.19939 2.95994 6.25274 2.97129 6.30496 2.97129C6.43323 2.97129 6.55583 2.90091 6.61713 2.77832L7.75456 0.504579C7.84084 0.332034 7.77046 0.123163 7.59905 0.0368903C7.4265 -0.0493823 7.21763 0.020998 7.13136 0.192408L5.99392 2.46615C5.90765 2.63869 5.97803 2.84756 6.14944 2.93383V2.93497Z" fill="#7AC0E2"/>
<path d="M10.5092 0.0368903C10.3367 -0.0493823 10.1278 0.020998 10.0415 0.192408L8.90408 2.46615C8.81781 2.63869 8.88819 2.84756 9.0596 2.93383C9.10954 2.95881 9.1629 2.97016 9.21511 2.97016C9.34339 2.97016 9.46598 2.89978 9.52728 2.77718L10.6647 0.503444C10.751 0.330898 10.6806 0.122028 10.5092 0.0357551V0.0368903Z" fill="#7AC0E2"/>
<path d="M13.4194 0.0368903C13.2468 -0.0493823 13.0379 0.020998 12.9517 0.192408L11.8142 2.46615C11.728 2.63869 11.7983 2.84756 11.9698 2.93383C12.0197 2.95881 12.0731 2.97016 12.1253 2.97016C12.2535 2.97016 12.3761 2.89978 12.4374 2.77718L13.5749 0.503444C13.6611 0.330898 13.5908 0.122028 13.4194 0.0357551V0.0368903Z" fill="#7AC0E2"/>
</svg>
