<svg width="40" height="40" viewBox="0 0 40 40" fill="none" xmlns="http://www.w3.org/2000/svg">
<path d="M29.0013 38.2267C27.6004 38.2267 26.9294 39.048 25.2948 38.998C24.1176 38.962 23.2534 38.5587 22.9925 37.3393C22.6345 35.6659 24.5774 34.2288 25.9329 32.7502C26.9557 31.6346 27.2881 29.4541 29.0013 29.4541C30.7145 29.4541 31.0469 31.6346 32.0697 32.7502C33.4252 34.2288 35.3681 35.6659 35.0102 37.3393C34.7493 38.5587 33.8851 38.962 32.7078 38.998C31.0731 39.048 30.4022 38.2267 29.0013 38.2267Z" fill="black"/>
<path d="M23.9883 25.7018C23.9883 27.7182 24.8065 29.4543 25.9827 29.4543C27.1589 29.4543 28.3351 27.7182 28.3351 25.7018C28.3351 23.6853 27.4146 22 26.4941 22C25.1133 22 23.9883 23.6853 23.9883 25.7018Z" fill="black"/>
<path d="M20 30.6706C20 29.555 20.716 27.0703 21.7898 27.0703C22.7104 27.0703 23.5286 28.4954 23.5286 30.3157C23.5286 32.1361 22.966 33.6118 21.8922 33.6118C21.1861 33.6118 20 32.4911 20 30.6707V30.6706Z" fill="black"/>
<path d="M34.0108 25.7018C34.0108 27.7182 33.1926 29.4543 32.0164 29.4543C30.8403 29.4543 29.6641 27.7182 29.6641 25.7018C29.6641 23.6853 30.5845 22 31.5051 22C32.8858 22 34.0108 23.6853 34.0108 25.7018Z" fill="black"/>
<path d="M37.9973 30.6706C37.9973 29.555 37.2814 27.0703 36.2075 27.0703C35.287 27.0703 34.4688 28.4954 34.4688 30.3157C34.4688 32.1361 35.0313 33.6118 36.1052 33.6118C36.8112 33.6118 37.9973 32.4911 37.9973 30.6707V30.6706Z" fill="black"/>
<path d="M11.0013 22.2267C9.6004 22.2267 8.92942 23.048 7.2948 22.998C6.1176 22.962 5.25339 22.5587 4.99246 21.3393C4.63448 19.6659 6.57737 18.2288 7.93295 16.7502C8.95573 15.6346 9.28808 13.4541 11.0013 13.4541C12.7145 13.4541 13.0469 15.6346 14.0697 16.7502C15.4252 18.2288 17.3681 19.6659 17.0102 21.3393C16.7493 22.5587 15.8851 22.962 14.7078 22.998C13.0731 23.048 12.4022 22.2267 11.0013 22.2267Z" fill="black"/>
<path d="M5.98828 9.70178C5.98828 11.7182 6.80649 13.4543 7.98268 13.4543C9.15888 13.4543 10.3351 11.7182 10.3351 9.70178C10.3351 7.68533 9.41463 6 8.49408 6C7.1133 6 5.98828 7.68533 5.98828 9.70178Z" fill="black"/>
<path d="M2 14.6706C2 13.555 2.71597 11.0703 3.78982 11.0703C4.71037 11.0703 5.52858 12.4954 5.52858 14.3157C5.52858 16.1361 4.96601 17.6118 3.89217 17.6118C3.18609 17.6118 2 16.4911 2 14.6707V14.6706Z" fill="black"/>
<path d="M16.0108 9.70178C16.0108 11.7182 15.1926 13.4543 14.0164 13.4543C12.8403 13.4543 11.6641 11.7182 11.6641 9.70178C11.6641 7.68533 12.5845 6 13.5051 6C14.8858 6 16.0108 7.68533 16.0108 9.70178Z" fill="black"/>
<path d="M19.9973 14.6706C19.9973 13.555 19.2814 11.0703 18.2075 11.0703C17.287 11.0703 16.4688 12.4954 16.4688 14.3157C16.4688 16.1361 17.0313 17.6118 18.1052 17.6118C18.8112 17.6118 19.9973 16.4911 19.9973 14.6707V14.6706Z" fill="black"/>
</svg>
