<svg width="41" height="40" viewBox="0 0 41 40" fill="none" xmlns="http://www.w3.org/2000/svg">
<circle cx="20.5" cy="20" r="20" fill="#E55091"/>
<path d="M31.5 12.5135C31.5 12.3625 31.4375 12.2142 31.3308 12.1075L27.3935 8.16982C27.1697 7.94339 26.8054 7.94339 26.579 8.16982L17.0077 17.7394C16.5757 17.6457 16.1359 17.5989 15.6987 17.5989C14.1139 17.5989 12.5239 18.2052 11.3164 19.4128C10.1141 20.6178 9.5 22.1976 9.5 23.7773C9.5 25.3675 10.0985 26.968 11.3164 28.1834C12.5265 29.3936 14.1165 30 15.7013 30H15.7039C17.2887 30 18.8762 29.3936 20.0836 28.1834C21.2937 26.9758 21.9 25.3857 21.8974 23.8007C21.8974 23.3609 21.8506 22.9211 21.7595 22.4916L28.8482 15.4023C29.072 15.1785 29.072 14.8141 28.8482 14.5903C28.6244 14.3639 28.2601 14.3639 28.0337 14.5903L20.716 21.9061C20.5703 22.0518 20.513 22.2652 20.5677 22.463C20.6874 22.9002 20.7472 23.3505 20.7472 23.8007C20.7472 25.0942 20.2554 26.3825 19.2691 27.3688C18.2828 28.3552 16.9921 28.8471 15.6987 28.8471C14.4054 28.8471 13.1146 28.3552 12.1283 27.3688C11.1369 26.3773 10.6502 25.0786 10.6502 23.7747C10.6502 22.489 11.1473 21.2086 12.1283 20.2274C13.1146 19.2411 14.4028 18.7492 15.6987 18.7492C16.1489 18.7492 16.5991 18.809 17.0363 18.9288C17.2367 18.9834 17.4475 18.9288 17.5958 18.7804L26.985 9.39041L30.1104 12.5161L29.7304 12.896C29.5066 13.1199 29.5066 13.4842 29.7304 13.7106C29.9542 13.9345 30.3185 13.9345 30.545 13.7106L31.3308 12.9247C31.4375 12.818 31.5 12.6696 31.5 12.5187V12.5135ZM25.5797 13.9215C25.3559 13.6976 24.9916 13.6976 24.7652 13.9215L16.8281 21.8592C16.482 21.6588 16.0943 21.5573 15.7091 21.5573C15.1392 21.5573 14.5641 21.7785 14.1295 22.2132C13.6949 22.6478 13.4737 23.223 13.4737 23.7929C13.4737 24.3629 13.6923 24.938 14.1295 25.3727C14.5641 25.8073 15.1392 26.0285 15.7091 26.0285H15.7117C16.2816 26.0285 16.8542 25.8073 17.2887 25.3727L16.8828 24.9667L17.2913 25.3727C17.7259 24.938 17.9471 24.3629 17.9445 23.7929C17.9445 23.4077 17.843 23.02 17.6427 22.6738L25.5797 14.7334C25.8035 14.5096 25.8035 14.1453 25.5797 13.9215Z" fill="white"/>
</svg>
