<svg width="16" height="13" viewBox="0 0 16 13" fill="none" xmlns="http://www.w3.org/2000/svg">
<mask id="path-1-outside-1_964_109" maskUnits="userSpaceOnUse" x="0" y="0" width="16" height="8" fill="black">
<rect fill="white" width="16" height="8"/>
<path d="M1.23647 7.10199C1.23647 7.10199 1.24097 7.11099 1.2421 7.1155C1.2421 7.11775 1.24435 7.12 1.24548 7.12225C1.24773 7.12676 1.24998 7.13126 1.25223 7.13577C1.25561 7.14252 1.25899 7.14815 1.26349 7.15378C1.26574 7.15716 1.268 7.16054 1.27025 7.16392C1.27475 7.17067 1.27926 7.17743 1.28489 7.18306C1.28714 7.18531 1.28827 7.18757 1.29052 7.18982C1.29502 7.19545 1.30065 7.20108 1.30628 7.20671C1.30853 7.20896 1.30966 7.21009 1.31191 7.21234C1.31867 7.21909 1.32655 7.22585 1.33443 7.23261C1.33443 7.23261 1.33668 7.23373 1.33781 7.23486C1.34457 7.24049 1.35132 7.24499 1.35808 7.25062C1.36146 7.25287 1.36371 7.25513 1.36709 7.25625C1.37272 7.25963 1.37722 7.26301 1.38285 7.26639C1.38623 7.26864 1.38961 7.27089 1.39299 7.27202C1.40087 7.27652 1.40875 7.2799 1.41663 7.28328C1.42114 7.28553 1.42564 7.28666 1.43015 7.28891C1.43465 7.29116 1.43915 7.29229 1.44478 7.29454C1.44929 7.29566 1.45379 7.29792 1.4583 7.29904C1.46618 7.30129 1.47293 7.30355 1.48082 7.30467C1.48532 7.30467 1.4887 7.3058 1.4932 7.30692C1.49996 7.30805 1.50784 7.30918 1.51572 7.3103C1.5191 7.3103 1.52248 7.3103 1.52586 7.3103C1.53599 7.3103 1.54613 7.31143 1.55739 7.31143H14.4437C14.4539 7.31143 14.464 7.31143 14.4753 7.3103C14.4786 7.3103 14.482 7.3103 14.4854 7.3103C14.4922 7.3103 14.4989 7.30805 14.5068 7.30692C14.5124 7.30692 14.5169 7.30467 14.5226 7.30355C14.5293 7.30242 14.5349 7.30017 14.5417 7.29904C14.5462 7.29792 14.5518 7.29566 14.5563 7.29454C14.5608 7.29341 14.5642 7.29116 14.5687 7.29003C14.5732 7.28778 14.5789 7.28666 14.5834 7.2844C14.5912 7.28103 14.598 7.27765 14.6059 7.27314C14.6104 7.27089 14.6138 7.26864 14.6183 7.26639C14.6228 7.26414 14.6273 7.26076 14.6318 7.25738C14.6352 7.25513 14.6385 7.25287 14.6419 7.25062C14.6476 7.24612 14.6543 7.24161 14.6599 7.23711C14.6622 7.23598 14.6633 7.23486 14.6656 7.23261C14.6734 7.22698 14.6802 7.22022 14.687 7.21346C14.6892 7.21121 14.6915 7.20896 14.6937 7.20671C14.6982 7.2022 14.7027 7.19657 14.7072 7.19207C14.7095 7.18982 14.7117 7.18644 14.714 7.18419C14.7185 7.17856 14.7219 7.17293 14.7264 7.1673C14.7298 7.16167 14.7343 7.15604 14.7376 7.15041C14.7399 7.1459 14.7433 7.1414 14.7455 7.13689C14.7489 7.13239 14.7511 7.12676 14.7534 7.12113C14.7534 7.11888 14.7556 7.11775 14.7568 7.1155C14.759 7.11212 14.7602 7.10874 14.7613 7.10424C14.7613 7.10311 14.7624 7.10086 14.7635 7.09973C14.9201 6.76643 15 6.40947 15 6.03676C15 4.65286 13.874 3.52795 12.4912 3.52795C12.0971 3.52795 11.7075 3.62254 11.3584 3.7982C10.8179 2.15081 9.26397 1 7.49272 1C6.61554 1 5.78115 1.27475 5.0785 1.79498C4.46932 2.2454 4.00539 2.84445 3.72501 3.53808C3.65294 3.53245 3.58087 3.52908 3.50881 3.52908C2.12604 3.52795 1 4.65399 1 6.03788C1 6.4106 1.07995 6.76755 1.23647 7.10086C1.23647 7.10086 1.23647 7.10086 1.23647 7.10199ZM3.50881 4.21934C3.63492 4.21934 3.75991 4.23172 3.88153 4.25762C3.88378 4.25762 3.8849 4.25762 3.88716 4.25762C3.89729 4.25987 3.9063 4.261 3.91643 4.26212C3.91868 4.26212 3.92206 4.26212 3.92431 4.26212C3.93332 4.26212 3.94233 4.26325 3.95021 4.26325C3.95472 4.26325 3.95922 4.26325 3.9626 4.26325C3.96936 4.26325 3.97611 4.26325 3.98399 4.26325C3.98962 4.26325 3.99525 4.26212 3.99976 4.261C4.00539 4.261 4.01102 4.25987 4.01665 4.25875C4.02228 4.25875 4.02791 4.25649 4.03354 4.25424C4.03804 4.25312 4.04367 4.25199 4.04818 4.25086C4.05381 4.24974 4.05944 4.24749 4.06507 4.24523C4.06957 4.24298 4.0752 4.24186 4.07971 4.2396C4.08421 4.23735 4.08984 4.2351 4.09435 4.23285C4.09998 4.2306 4.10448 4.22834 4.11011 4.22497C4.11461 4.22271 4.11799 4.22046 4.1225 4.21821C4.12813 4.21483 4.13376 4.21145 4.13939 4.20808C4.14277 4.20582 4.14614 4.20357 4.14952 4.20132C4.15515 4.19681 4.16078 4.19344 4.16641 4.18893C4.16866 4.18668 4.17204 4.18443 4.17429 4.18218C4.17992 4.17767 4.18555 4.17204 4.19118 4.16754C4.19344 4.16529 4.19569 4.16191 4.19907 4.15966C4.2047 4.15403 4.2092 4.14952 4.21483 4.14277C4.21821 4.13939 4.22046 4.13601 4.22271 4.13263C4.22722 4.127 4.2306 4.1225 4.2351 4.11687C4.23848 4.11236 4.24186 4.10673 4.24523 4.1011C4.24749 4.0966 4.25086 4.09322 4.25312 4.08872C4.25762 4.08196 4.261 4.07408 4.26438 4.06619C4.2655 4.06282 4.26776 4.06056 4.26888 4.05719C4.27226 4.04818 4.27564 4.0403 4.27902 4.03129C4.27902 4.02904 4.28127 4.02678 4.28127 4.02453C4.73281 2.62825 6.02324 1.68913 7.49159 1.68913C9.09732 1.68913 10.488 2.82868 10.7999 4.40063C10.7999 4.40288 10.7999 4.40513 10.801 4.40626C10.801 4.41076 10.8033 4.41527 10.8044 4.41977C10.8055 4.42653 10.8078 4.43216 10.8089 4.43891C10.81 4.44342 10.8111 4.44792 10.8134 4.4513C10.8157 4.45693 10.8179 4.46369 10.8202 4.46932C10.8213 4.47382 10.8235 4.4772 10.8247 4.4817C10.8269 4.48733 10.8303 4.49296 10.8325 4.49972C10.8348 4.5031 10.8359 4.5076 10.8382 4.51098C10.8416 4.51661 10.8449 4.52337 10.8494 4.529C10.8517 4.53237 10.8528 4.53575 10.8551 4.538C10.8596 4.54476 10.8652 4.55152 10.8697 4.55827C10.8708 4.5594 10.872 4.56165 10.8731 4.56278C10.8798 4.57066 10.8866 4.57854 10.8945 4.58642C10.8967 4.58868 10.8979 4.5898 10.9001 4.59205C10.9057 4.59768 10.9114 4.60331 10.9181 4.60782C10.9215 4.61007 10.9238 4.61232 10.9271 4.61457C10.9328 4.61908 10.9373 4.62246 10.9429 4.62696C10.9463 4.62921 10.9496 4.63146 10.953 4.63372C10.9587 4.63709 10.9643 4.64047 10.9688 4.64385C10.9722 4.6461 10.9767 4.64836 10.9801 4.65061C10.9857 4.65399 10.9913 4.65624 10.9969 4.65849C11.0014 4.66074 11.0048 4.66187 11.0093 4.66412C11.015 4.66637 11.0217 4.66862 11.0273 4.67088C11.0319 4.672 11.0352 4.67425 11.0397 4.67538C11.0465 4.67763 11.0521 4.67876 11.0589 4.67988C11.0634 4.67988 11.0668 4.68214 11.0713 4.68326C11.078 4.68439 11.0859 4.68551 11.0927 4.68664C11.096 4.68664 11.0994 4.68777 11.1039 4.68777C11.1152 4.68777 11.1264 4.69002 11.1377 4.69002C11.149 4.69002 11.1602 4.69002 11.1715 4.68777C11.1749 4.68777 11.1782 4.68777 11.1827 4.68664C11.1895 4.68664 11.1974 4.68439 11.2041 4.68326C11.2086 4.68326 11.212 4.68101 11.2165 4.68101C11.2233 4.67988 11.23 4.67763 11.2357 4.67651C11.2402 4.67538 11.2435 4.67425 11.248 4.672C11.2537 4.66975 11.2604 4.6675 11.2661 4.66525C11.2706 4.66412 11.2739 4.66187 11.2785 4.66074C11.2841 4.65849 11.2897 4.65511 11.2965 4.65173C11.2998 4.64948 11.3032 4.64836 11.3077 4.6461C11.3134 4.64272 11.3201 4.63935 11.3257 4.63484C11.3291 4.63259 11.3314 4.63146 11.3348 4.62921C11.3426 4.62358 11.3494 4.61795 11.3573 4.61232C11.3573 4.61232 11.3595 4.6112 11.3595 4.61007C11.6827 4.35446 12.0723 4.21934 12.4856 4.21934C13.4877 4.21934 14.303 5.03459 14.303 6.03676C14.303 6.23832 14.2703 6.43425 14.2073 6.62004H1.7871C1.72404 6.43312 1.69139 6.23832 1.69139 6.03676C1.69139 5.03459 2.50664 4.21934 3.50881 4.21934Z"/>
</mask>
<path d="M1.23647 7.10199C1.23647 7.10199 1.24097 7.11099 1.2421 7.1155C1.2421 7.11775 1.24435 7.12 1.24548 7.12225C1.24773 7.12676 1.24998 7.13126 1.25223 7.13577C1.25561 7.14252 1.25899 7.14815 1.26349 7.15378C1.26574 7.15716 1.268 7.16054 1.27025 7.16392C1.27475 7.17067 1.27926 7.17743 1.28489 7.18306C1.28714 7.18531 1.28827 7.18757 1.29052 7.18982C1.29502 7.19545 1.30065 7.20108 1.30628 7.20671C1.30853 7.20896 1.30966 7.21009 1.31191 7.21234C1.31867 7.21909 1.32655 7.22585 1.33443 7.23261C1.33443 7.23261 1.33668 7.23373 1.33781 7.23486C1.34457 7.24049 1.35132 7.24499 1.35808 7.25062C1.36146 7.25287 1.36371 7.25513 1.36709 7.25625C1.37272 7.25963 1.37722 7.26301 1.38285 7.26639C1.38623 7.26864 1.38961 7.27089 1.39299 7.27202C1.40087 7.27652 1.40875 7.2799 1.41663 7.28328C1.42114 7.28553 1.42564 7.28666 1.43015 7.28891C1.43465 7.29116 1.43915 7.29229 1.44478 7.29454C1.44929 7.29566 1.45379 7.29792 1.4583 7.29904C1.46618 7.30129 1.47293 7.30355 1.48082 7.30467C1.48532 7.30467 1.4887 7.3058 1.4932 7.30692C1.49996 7.30805 1.50784 7.30918 1.51572 7.3103C1.5191 7.3103 1.52248 7.3103 1.52586 7.3103C1.53599 7.3103 1.54613 7.31143 1.55739 7.31143H14.4437C14.4539 7.31143 14.464 7.31143 14.4753 7.3103C14.4786 7.3103 14.482 7.3103 14.4854 7.3103C14.4922 7.3103 14.4989 7.30805 14.5068 7.30692C14.5124 7.30692 14.5169 7.30467 14.5226 7.30355C14.5293 7.30242 14.5349 7.30017 14.5417 7.29904C14.5462 7.29792 14.5518 7.29566 14.5563 7.29454C14.5608 7.29341 14.5642 7.29116 14.5687 7.29003C14.5732 7.28778 14.5789 7.28666 14.5834 7.2844C14.5912 7.28103 14.598 7.27765 14.6059 7.27314C14.6104 7.27089 14.6138 7.26864 14.6183 7.26639C14.6228 7.26414 14.6273 7.26076 14.6318 7.25738C14.6352 7.25513 14.6385 7.25287 14.6419 7.25062C14.6476 7.24612 14.6543 7.24161 14.6599 7.23711C14.6622 7.23598 14.6633 7.23486 14.6656 7.23261C14.6734 7.22698 14.6802 7.22022 14.687 7.21346C14.6892 7.21121 14.6915 7.20896 14.6937 7.20671C14.6982 7.2022 14.7027 7.19657 14.7072 7.19207C14.7095 7.18982 14.7117 7.18644 14.714 7.18419C14.7185 7.17856 14.7219 7.17293 14.7264 7.1673C14.7298 7.16167 14.7343 7.15604 14.7376 7.15041C14.7399 7.1459 14.7433 7.1414 14.7455 7.13689C14.7489 7.13239 14.7511 7.12676 14.7534 7.12113C14.7534 7.11888 14.7556 7.11775 14.7568 7.1155C14.759 7.11212 14.7602 7.10874 14.7613 7.10424C14.7613 7.10311 14.7624 7.10086 14.7635 7.09973C14.9201 6.76643 15 6.40947 15 6.03676C15 4.65286 13.874 3.52795 12.4912 3.52795C12.0971 3.52795 11.7075 3.62254 11.3584 3.7982C10.8179 2.15081 9.26397 1 7.49272 1C6.61554 1 5.78115 1.27475 5.0785 1.79498C4.46932 2.2454 4.00539 2.84445 3.72501 3.53808C3.65294 3.53245 3.58087 3.52908 3.50881 3.52908C2.12604 3.52795 1 4.65399 1 6.03788C1 6.4106 1.07995 6.76755 1.23647 7.10086C1.23647 7.10086 1.23647 7.10086 1.23647 7.10199ZM3.50881 4.21934C3.63492 4.21934 3.75991 4.23172 3.88153 4.25762C3.88378 4.25762 3.8849 4.25762 3.88716 4.25762C3.89729 4.25987 3.9063 4.261 3.91643 4.26212C3.91868 4.26212 3.92206 4.26212 3.92431 4.26212C3.93332 4.26212 3.94233 4.26325 3.95021 4.26325C3.95472 4.26325 3.95922 4.26325 3.9626 4.26325C3.96936 4.26325 3.97611 4.26325 3.98399 4.26325C3.98962 4.26325 3.99525 4.26212 3.99976 4.261C4.00539 4.261 4.01102 4.25987 4.01665 4.25875C4.02228 4.25875 4.02791 4.25649 4.03354 4.25424C4.03804 4.25312 4.04367 4.25199 4.04818 4.25086C4.05381 4.24974 4.05944 4.24749 4.06507 4.24523C4.06957 4.24298 4.0752 4.24186 4.07971 4.2396C4.08421 4.23735 4.08984 4.2351 4.09435 4.23285C4.09998 4.2306 4.10448 4.22834 4.11011 4.22497C4.11461 4.22271 4.11799 4.22046 4.1225 4.21821C4.12813 4.21483 4.13376 4.21145 4.13939 4.20808C4.14277 4.20582 4.14614 4.20357 4.14952 4.20132C4.15515 4.19681 4.16078 4.19344 4.16641 4.18893C4.16866 4.18668 4.17204 4.18443 4.17429 4.18218C4.17992 4.17767 4.18555 4.17204 4.19118 4.16754C4.19344 4.16529 4.19569 4.16191 4.19907 4.15966C4.2047 4.15403 4.2092 4.14952 4.21483 4.14277C4.21821 4.13939 4.22046 4.13601 4.22271 4.13263C4.22722 4.127 4.2306 4.1225 4.2351 4.11687C4.23848 4.11236 4.24186 4.10673 4.24523 4.1011C4.24749 4.0966 4.25086 4.09322 4.25312 4.08872C4.25762 4.08196 4.261 4.07408 4.26438 4.06619C4.2655 4.06282 4.26776 4.06056 4.26888 4.05719C4.27226 4.04818 4.27564 4.0403 4.27902 4.03129C4.27902 4.02904 4.28127 4.02678 4.28127 4.02453C4.73281 2.62825 6.02324 1.68913 7.49159 1.68913C9.09732 1.68913 10.488 2.82868 10.7999 4.40063C10.7999 4.40288 10.7999 4.40513 10.801 4.40626C10.801 4.41076 10.8033 4.41527 10.8044 4.41977C10.8055 4.42653 10.8078 4.43216 10.8089 4.43891C10.81 4.44342 10.8111 4.44792 10.8134 4.4513C10.8157 4.45693 10.8179 4.46369 10.8202 4.46932C10.8213 4.47382 10.8235 4.4772 10.8247 4.4817C10.8269 4.48733 10.8303 4.49296 10.8325 4.49972C10.8348 4.5031 10.8359 4.5076 10.8382 4.51098C10.8416 4.51661 10.8449 4.52337 10.8494 4.529C10.8517 4.53237 10.8528 4.53575 10.8551 4.538C10.8596 4.54476 10.8652 4.55152 10.8697 4.55827C10.8708 4.5594 10.872 4.56165 10.8731 4.56278C10.8798 4.57066 10.8866 4.57854 10.8945 4.58642C10.8967 4.58868 10.8979 4.5898 10.9001 4.59205C10.9057 4.59768 10.9114 4.60331 10.9181 4.60782C10.9215 4.61007 10.9238 4.61232 10.9271 4.61457C10.9328 4.61908 10.9373 4.62246 10.9429 4.62696C10.9463 4.62921 10.9496 4.63146 10.953 4.63372C10.9587 4.63709 10.9643 4.64047 10.9688 4.64385C10.9722 4.6461 10.9767 4.64836 10.9801 4.65061C10.9857 4.65399 10.9913 4.65624 10.9969 4.65849C11.0014 4.66074 11.0048 4.66187 11.0093 4.66412C11.015 4.66637 11.0217 4.66862 11.0273 4.67088C11.0319 4.672 11.0352 4.67425 11.0397 4.67538C11.0465 4.67763 11.0521 4.67876 11.0589 4.67988C11.0634 4.67988 11.0668 4.68214 11.0713 4.68326C11.078 4.68439 11.0859 4.68551 11.0927 4.68664C11.096 4.68664 11.0994 4.68777 11.1039 4.68777C11.1152 4.68777 11.1264 4.69002 11.1377 4.69002C11.149 4.69002 11.1602 4.69002 11.1715 4.68777C11.1749 4.68777 11.1782 4.68777 11.1827 4.68664C11.1895 4.68664 11.1974 4.68439 11.2041 4.68326C11.2086 4.68326 11.212 4.68101 11.2165 4.68101C11.2233 4.67988 11.23 4.67763 11.2357 4.67651C11.2402 4.67538 11.2435 4.67425 11.248 4.672C11.2537 4.66975 11.2604 4.6675 11.2661 4.66525C11.2706 4.66412 11.2739 4.66187 11.2785 4.66074C11.2841 4.65849 11.2897 4.65511 11.2965 4.65173C11.2998 4.64948 11.3032 4.64836 11.3077 4.6461C11.3134 4.64272 11.3201 4.63935 11.3257 4.63484C11.3291 4.63259 11.3314 4.63146 11.3348 4.62921C11.3426 4.62358 11.3494 4.61795 11.3573 4.61232C11.3573 4.61232 11.3595 4.6112 11.3595 4.61007C11.6827 4.35446 12.0723 4.21934 12.4856 4.21934C13.4877 4.21934 14.303 5.03459 14.303 6.03676C14.303 6.23832 14.2703 6.43425 14.2073 6.62004H1.7871C1.72404 6.43312 1.69139 6.23832 1.69139 6.03676C1.69139 5.03459 2.50664 4.21934 3.50881 4.21934Z" fill="#7AC0E2"/>
<path d="M1.23647 7.10199C1.23647 7.10199 1.24097 7.11099 1.2421 7.1155C1.2421 7.11775 1.24435 7.12 1.24548 7.12225C1.24773 7.12676 1.24998 7.13126 1.25223 7.13577C1.25561 7.14252 1.25899 7.14815 1.26349 7.15378C1.26574 7.15716 1.268 7.16054 1.27025 7.16392C1.27475 7.17067 1.27926 7.17743 1.28489 7.18306C1.28714 7.18531 1.28827 7.18757 1.29052 7.18982C1.29502 7.19545 1.30065 7.20108 1.30628 7.20671C1.30853 7.20896 1.30966 7.21009 1.31191 7.21234C1.31867 7.21909 1.32655 7.22585 1.33443 7.23261C1.33443 7.23261 1.33668 7.23373 1.33781 7.23486C1.34457 7.24049 1.35132 7.24499 1.35808 7.25062C1.36146 7.25287 1.36371 7.25513 1.36709 7.25625C1.37272 7.25963 1.37722 7.26301 1.38285 7.26639C1.38623 7.26864 1.38961 7.27089 1.39299 7.27202C1.40087 7.27652 1.40875 7.2799 1.41663 7.28328C1.42114 7.28553 1.42564 7.28666 1.43015 7.28891C1.43465 7.29116 1.43915 7.29229 1.44478 7.29454C1.44929 7.29566 1.45379 7.29792 1.4583 7.29904C1.46618 7.30129 1.47293 7.30355 1.48082 7.30467C1.48532 7.30467 1.4887 7.3058 1.4932 7.30692C1.49996 7.30805 1.50784 7.30918 1.51572 7.3103C1.5191 7.3103 1.52248 7.3103 1.52586 7.3103C1.53599 7.3103 1.54613 7.31143 1.55739 7.31143H14.4437C14.4539 7.31143 14.464 7.31143 14.4753 7.3103C14.4786 7.3103 14.482 7.3103 14.4854 7.3103C14.4922 7.3103 14.4989 7.30805 14.5068 7.30692C14.5124 7.30692 14.5169 7.30467 14.5226 7.30355C14.5293 7.30242 14.5349 7.30017 14.5417 7.29904C14.5462 7.29792 14.5518 7.29566 14.5563 7.29454C14.5608 7.29341 14.5642 7.29116 14.5687 7.29003C14.5732 7.28778 14.5789 7.28666 14.5834 7.2844C14.5912 7.28103 14.598 7.27765 14.6059 7.27314C14.6104 7.27089 14.6138 7.26864 14.6183 7.26639C14.6228 7.26414 14.6273 7.26076 14.6318 7.25738C14.6352 7.25513 14.6385 7.25287 14.6419 7.25062C14.6476 7.24612 14.6543 7.24161 14.6599 7.23711C14.6622 7.23598 14.6633 7.23486 14.6656 7.23261C14.6734 7.22698 14.6802 7.22022 14.687 7.21346C14.6892 7.21121 14.6915 7.20896 14.6937 7.20671C14.6982 7.2022 14.7027 7.19657 14.7072 7.19207C14.7095 7.18982 14.7117 7.18644 14.714 7.18419C14.7185 7.17856 14.7219 7.17293 14.7264 7.1673C14.7298 7.16167 14.7343 7.15604 14.7376 7.15041C14.7399 7.1459 14.7433 7.1414 14.7455 7.13689C14.7489 7.13239 14.7511 7.12676 14.7534 7.12113C14.7534 7.11888 14.7556 7.11775 14.7568 7.1155C14.759 7.11212 14.7602 7.10874 14.7613 7.10424C14.7613 7.10311 14.7624 7.10086 14.7635 7.09973C14.9201 6.76643 15 6.40947 15 6.03676C15 4.65286 13.874 3.52795 12.4912 3.52795C12.0971 3.52795 11.7075 3.62254 11.3584 3.7982C10.8179 2.15081 9.26397 1 7.49272 1C6.61554 1 5.78115 1.27475 5.0785 1.79498C4.46932 2.2454 4.00539 2.84445 3.72501 3.53808C3.65294 3.53245 3.58087 3.52908 3.50881 3.52908C2.12604 3.52795 1 4.65399 1 6.03788C1 6.4106 1.07995 6.76755 1.23647 7.10086C1.23647 7.10086 1.23647 7.10086 1.23647 7.10199ZM3.50881 4.21934C3.63492 4.21934 3.75991 4.23172 3.88153 4.25762C3.88378 4.25762 3.8849 4.25762 3.88716 4.25762C3.89729 4.25987 3.9063 4.261 3.91643 4.26212C3.91868 4.26212 3.92206 4.26212 3.92431 4.26212C3.93332 4.26212 3.94233 4.26325 3.95021 4.26325C3.95472 4.26325 3.95922 4.26325 3.9626 4.26325C3.96936 4.26325 3.97611 4.26325 3.98399 4.26325C3.98962 4.26325 3.99525 4.26212 3.99976 4.261C4.00539 4.261 4.01102 4.25987 4.01665 4.25875C4.02228 4.25875 4.02791 4.25649 4.03354 4.25424C4.03804 4.25312 4.04367 4.25199 4.04818 4.25086C4.05381 4.24974 4.05944 4.24749 4.06507 4.24523C4.06957 4.24298 4.0752 4.24186 4.07971 4.2396C4.08421 4.23735 4.08984 4.2351 4.09435 4.23285C4.09998 4.2306 4.10448 4.22834 4.11011 4.22497C4.11461 4.22271 4.11799 4.22046 4.1225 4.21821C4.12813 4.21483 4.13376 4.21145 4.13939 4.20808C4.14277 4.20582 4.14614 4.20357 4.14952 4.20132C4.15515 4.19681 4.16078 4.19344 4.16641 4.18893C4.16866 4.18668 4.17204 4.18443 4.17429 4.18218C4.17992 4.17767 4.18555 4.17204 4.19118 4.16754C4.19344 4.16529 4.19569 4.16191 4.19907 4.15966C4.2047 4.15403 4.2092 4.14952 4.21483 4.14277C4.21821 4.13939 4.22046 4.13601 4.22271 4.13263C4.22722 4.127 4.2306 4.1225 4.2351 4.11687C4.23848 4.11236 4.24186 4.10673 4.24523 4.1011C4.24749 4.0966 4.25086 4.09322 4.25312 4.08872C4.25762 4.08196 4.261 4.07408 4.26438 4.06619C4.2655 4.06282 4.26776 4.06056 4.26888 4.05719C4.27226 4.04818 4.27564 4.0403 4.27902 4.03129C4.27902 4.02904 4.28127 4.02678 4.28127 4.02453C4.73281 2.62825 6.02324 1.68913 7.49159 1.68913C9.09732 1.68913 10.488 2.82868 10.7999 4.40063C10.7999 4.40288 10.7999 4.40513 10.801 4.40626C10.801 4.41076 10.8033 4.41527 10.8044 4.41977C10.8055 4.42653 10.8078 4.43216 10.8089 4.43891C10.81 4.44342 10.8111 4.44792 10.8134 4.4513C10.8157 4.45693 10.8179 4.46369 10.8202 4.46932C10.8213 4.47382 10.8235 4.4772 10.8247 4.4817C10.8269 4.48733 10.8303 4.49296 10.8325 4.49972C10.8348 4.5031 10.8359 4.5076 10.8382 4.51098C10.8416 4.51661 10.8449 4.52337 10.8494 4.529C10.8517 4.53237 10.8528 4.53575 10.8551 4.538C10.8596 4.54476 10.8652 4.55152 10.8697 4.55827C10.8708 4.5594 10.872 4.56165 10.8731 4.56278C10.8798 4.57066 10.8866 4.57854 10.8945 4.58642C10.8967 4.58868 10.8979 4.5898 10.9001 4.59205C10.9057 4.59768 10.9114 4.60331 10.9181 4.60782C10.9215 4.61007 10.9238 4.61232 10.9271 4.61457C10.9328 4.61908 10.9373 4.62246 10.9429 4.62696C10.9463 4.62921 10.9496 4.63146 10.953 4.63372C10.9587 4.63709 10.9643 4.64047 10.9688 4.64385C10.9722 4.6461 10.9767 4.64836 10.9801 4.65061C10.9857 4.65399 10.9913 4.65624 10.9969 4.65849C11.0014 4.66074 11.0048 4.66187 11.0093 4.66412C11.015 4.66637 11.0217 4.66862 11.0273 4.67088C11.0319 4.672 11.0352 4.67425 11.0397 4.67538C11.0465 4.67763 11.0521 4.67876 11.0589 4.67988C11.0634 4.67988 11.0668 4.68214 11.0713 4.68326C11.078 4.68439 11.0859 4.68551 11.0927 4.68664C11.096 4.68664 11.0994 4.68777 11.1039 4.68777C11.1152 4.68777 11.1264 4.69002 11.1377 4.69002C11.149 4.69002 11.1602 4.69002 11.1715 4.68777C11.1749 4.68777 11.1782 4.68777 11.1827 4.68664C11.1895 4.68664 11.1974 4.68439 11.2041 4.68326C11.2086 4.68326 11.212 4.68101 11.2165 4.68101C11.2233 4.67988 11.23 4.67763 11.2357 4.67651C11.2402 4.67538 11.2435 4.67425 11.248 4.672C11.2537 4.66975 11.2604 4.6675 11.2661 4.66525C11.2706 4.66412 11.2739 4.66187 11.2785 4.66074C11.2841 4.65849 11.2897 4.65511 11.2965 4.65173C11.2998 4.64948 11.3032 4.64836 11.3077 4.6461C11.3134 4.64272 11.3201 4.63935 11.3257 4.63484C11.3291 4.63259 11.3314 4.63146 11.3348 4.62921C11.3426 4.62358 11.3494 4.61795 11.3573 4.61232C11.3573 4.61232 11.3595 4.6112 11.3595 4.61007C11.6827 4.35446 12.0723 4.21934 12.4856 4.21934C13.4877 4.21934 14.303 5.03459 14.303 6.03676C14.303 6.23832 14.2703 6.43425 14.2073 6.62004H1.7871C1.72404 6.43312 1.69139 6.23832 1.69139 6.03676C1.69139 5.03459 2.50664 4.21934 3.50881 4.21934Z" stroke="#7AC0E2" stroke-width="0.8" mask="url(#path-1-outside-1_964_109)"/>
<path d="M1.54211 11.894C1.37096 11.8084 1.16377 11.8783 1.07819 12.0483L1.04441 12.117C0.958827 12.2881 1.02864 12.4953 1.19867 12.5809C1.24822 12.6057 1.30114 12.6169 1.35294 12.6169C1.48018 12.6169 1.60179 12.5471 1.6626 12.4255L1.69638 12.3568C1.78196 12.1857 1.71215 11.9785 1.54211 11.8929V11.894Z" fill="#7AC0E2"/>
<path d="M2.18604 11.379L3.31432 9.12357C3.3999 8.95241 3.33009 8.74522 3.16006 8.65964C2.9889 8.57406 2.78171 8.64388 2.69613 8.81391L1.56784 11.0694C1.48226 11.2405 1.55208 11.4477 1.72211 11.5333C1.77166 11.5581 1.82458 11.5693 1.87638 11.5693C2.00362 11.5693 2.12523 11.4995 2.18604 11.3779V11.379Z" fill="#7AC0E2"/>
<path d="M7.31164 11.894C7.14049 11.8084 6.9333 11.8783 6.84772 12.0483L6.81394 12.117C6.72836 12.2881 6.79817 12.4953 6.9682 12.5809C7.01775 12.6057 7.07067 12.6169 7.12247 12.6169C7.24971 12.6169 7.37132 12.5471 7.43213 12.4255L7.46591 12.3568C7.55149 12.1857 7.48168 11.9785 7.31164 11.8929V11.894Z" fill="#7AC0E2"/>
<path d="M7.95947 11.379L9.08776 9.12357C9.17334 8.95241 9.10353 8.74522 8.9335 8.65964C8.76234 8.57406 8.55515 8.64388 8.46957 8.81391L7.34128 11.0694C7.2557 11.2405 7.32552 11.4477 7.49555 11.5333C7.54509 11.5581 7.59802 11.5693 7.64981 11.5693C7.77706 11.5693 7.89867 11.4995 7.95947 11.3779V11.379Z" fill="#7AC0E2"/>
<path d="M11.2076 10.1525L11.6602 9.24719C11.694 9.1785 11.667 9.09517 11.5983 9.06139C11.5296 9.02761 11.4463 9.05463 11.4125 9.12332L10.9598 10.0287C10.926 10.0973 10.9531 10.1807 11.0218 10.2145C11.042 10.2246 11.0623 10.2291 11.0837 10.2291C11.1344 10.2291 11.1839 10.2009 11.2076 10.1525Z" fill="#DEFFFF"/>
<path d="M10.7953 9.53568L11.7007 9.98835C11.7693 10.0221 11.8527 9.9951 11.8864 9.92641C11.9202 9.85773 11.8932 9.7744 11.8245 9.74062L10.9192 9.28795C10.8505 9.25417 10.7672 9.2812 10.7334 9.34988C10.7233 9.37015 10.7188 9.39042 10.7188 9.41182C10.7188 9.46249 10.7469 9.51203 10.7953 9.53568Z" fill="#DEFFFF"/>
<path d="M10.874 9.9301L11.8334 9.61031C11.9066 9.58554 11.9449 9.50784 11.9213 9.43465C11.8976 9.36145 11.8188 9.32317 11.7456 9.34682L10.7862 9.66661C10.713 9.69138 10.6747 9.76908 10.6984 9.84227C10.7051 9.86367 10.7175 9.88168 10.7322 9.89632C10.7682 9.93235 10.8222 9.94699 10.874 9.9301Z" fill="#DEFFFF"/>
<path d="M11.0187 9.20217L11.3385 10.1615C11.3633 10.2347 11.441 10.273 11.5142 10.2494C11.5874 10.2257 11.6256 10.1469 11.602 10.0737L11.2822 9.11433C11.2574 9.04114 11.1797 9.00286 11.1065 9.0265C11.0851 9.03326 11.0671 9.04565 11.0525 9.06028C11.0165 9.09632 11.0018 9.15037 11.0187 9.20217Z" fill="#DEFFFF"/>
<path d="M10.2232 12.5158L10.6758 11.6105C10.7096 11.5418 10.6826 11.4585 10.6139 11.4247C10.5452 11.3909 10.4619 11.4179 10.4281 11.4866L9.97545 12.3919C9.94167 12.4606 9.9687 12.544 10.0374 12.5777C10.0577 12.5879 10.0779 12.5924 10.0993 12.5924C10.15 12.5924 10.1995 12.5642 10.2232 12.5158Z" fill="#DEFFFF"/>
<path d="M9.81095 11.899L10.7163 12.3516C10.785 12.3854 10.8683 12.3584 10.9021 12.2897C10.9359 12.221 10.9088 12.1377 10.8401 12.1039L9.93481 11.6512C9.86612 11.6175 9.7828 11.6445 9.74901 11.7132C9.73888 11.7334 9.73438 11.7537 9.73438 11.7751C9.73438 11.8258 9.76253 11.8753 9.81095 11.899Z" fill="#DEFFFF"/>
<path d="M9.88966 12.2914L10.849 11.9716C10.9222 11.9469 10.9605 11.8692 10.9369 11.796C10.9132 11.7228 10.8344 11.6845 10.7612 11.7081L9.80183 12.0279C9.72864 12.0527 9.69036 12.1304 9.714 12.2036C9.72076 12.225 9.73315 12.243 9.74778 12.2576C9.78382 12.2937 9.83787 12.3083 9.88966 12.2914Z" fill="#DEFFFF"/>
<path d="M10.0343 11.5635L10.3541 12.5229C10.3789 12.5961 10.4566 12.6344 10.5298 12.6107C10.603 12.5871 10.6413 12.5082 10.6176 12.435L10.2978 11.4757C10.2731 11.4025 10.1954 11.3642 10.1222 11.3878C10.1008 11.3946 10.0828 11.407 10.0681 11.4216C10.0321 11.4576 10.0174 11.5117 10.0343 11.5635Z" fill="#DEFFFF"/>
<path d="M5.58256 10.1525L6.03522 9.24719C6.069 9.1785 6.04198 9.09517 5.97329 9.06139C5.9046 9.02761 5.82128 9.05463 5.78749 9.12332L5.33483 10.0287C5.30105 10.0973 5.32807 10.1807 5.39676 10.2145C5.41703 10.2246 5.4373 10.2291 5.45869 10.2291C5.50936 10.2291 5.55891 10.2009 5.58256 10.1525Z" fill="#DEFFFF"/>
<path d="M5.17032 9.53568L6.07565 9.98835C6.14434 10.0221 6.22767 9.9951 6.26145 9.92641C6.29523 9.85773 6.26821 9.7744 6.19952 9.74062L5.29418 9.28795C5.2255 9.25417 5.14217 9.2812 5.10839 9.34988C5.09825 9.37015 5.09375 9.39042 5.09375 9.41182C5.09375 9.46249 5.1219 9.51203 5.17032 9.53568Z" fill="#DEFFFF"/>
<path d="M5.24904 9.9301L6.20842 9.61031C6.28161 9.58554 6.3199 9.50784 6.29625 9.43465C6.27261 9.36145 6.19378 9.32317 6.12059 9.34682L5.16121 9.66661C5.08802 9.69138 5.04973 9.76908 5.07338 9.84227C5.08013 9.86367 5.09252 9.88168 5.10716 9.89632C5.14319 9.93235 5.19724 9.94699 5.24904 9.9301Z" fill="#DEFFFF"/>
<path d="M5.39371 9.20217L5.71351 10.1615C5.73828 10.2347 5.81598 10.273 5.88917 10.2494C5.96236 10.2257 6.00065 10.1469 5.977 10.0737L5.65721 9.11433C5.63243 9.04114 5.55474 9.00286 5.48154 9.0265C5.46015 9.03326 5.44213 9.04565 5.42749 9.06028C5.39146 9.09632 5.37682 9.15037 5.39371 9.20217Z" fill="#DEFFFF"/>
<path d="M4.60209 12.5158L5.05475 11.6105C5.08853 11.5418 5.06151 11.4585 4.99282 11.4247C4.92413 11.3909 4.84081 11.4179 4.80703 11.4866L4.35436 12.3919C4.32058 12.4606 4.3476 12.544 4.41629 12.5777C4.43656 12.5879 4.45683 12.5924 4.47822 12.5924C4.52889 12.5924 4.57844 12.5642 4.60209 12.5158Z" fill="#DEFFFF"/>
<path d="M4.18985 11.899L5.09518 12.3516C5.16387 12.3854 5.2472 12.3584 5.28098 12.2897C5.31476 12.221 5.28774 12.1377 5.21905 12.1039L4.31372 11.6512C4.24503 11.6175 4.1617 11.6445 4.12792 11.7132C4.11779 11.7334 4.11328 11.7537 4.11328 11.7751C4.11328 11.8258 4.14143 11.8753 4.18985 11.899Z" fill="#DEFFFF"/>
<path d="M4.26857 12.2914L5.22795 11.9716C5.30115 11.9469 5.33943 11.8692 5.31578 11.796C5.29214 11.7228 5.21332 11.6845 5.14012 11.7081L4.18074 12.0279C4.10755 12.0527 4.06926 12.1304 4.09291 12.2036C4.09967 12.225 4.11205 12.243 4.12669 12.2576C4.16272 12.2937 4.21677 12.3083 4.26857 12.2914Z" fill="#DEFFFF"/>
<path d="M4.41324 11.5635L4.73304 12.5229C4.75781 12.5961 4.83551 12.6344 4.9087 12.6107C4.98189 12.5871 5.02018 12.5082 4.99653 12.435L4.67674 11.4757C4.65196 11.4025 4.57427 11.3642 4.50108 11.3878C4.47968 11.3946 4.46166 11.407 4.44703 11.4216C4.41099 11.4576 4.39635 11.5117 4.41324 11.5635Z" fill="#DEFFFF"/>
<path d="M13.0851 11.894C12.9139 11.8084 12.7067 11.8783 12.6212 12.0483L12.5874 12.117C12.5018 12.2881 12.5716 12.4953 12.7416 12.5809C12.7912 12.6057 12.8441 12.6169 12.8959 12.6169C13.0232 12.6169 13.1448 12.5471 13.2056 12.4255L13.2393 12.3568C13.3249 12.1857 13.2551 11.9785 13.0851 11.8929V11.894Z" fill="#7AC0E2"/>
<path d="M13.729 11.379L14.8573 9.12357C14.9429 8.95241 14.8731 8.74522 14.703 8.65964C14.5319 8.57406 14.3247 8.64388 14.2391 8.81391L13.1108 11.0694C13.0252 11.2405 13.095 11.4477 13.2651 11.5333C13.3146 11.5581 13.3675 11.5693 13.4193 11.5693C13.5466 11.5693 13.6682 11.4995 13.729 11.3779V11.379Z" fill="#7AC0E2"/>
</svg>
