<svg width="18" height="20" viewBox="0 0 18 20" fill="none" xmlns="http://www.w3.org/2000/svg">
<path fill-rule="evenodd" clip-rule="evenodd" d="M16.5 4.5C16.5 4.56421 16.477 4.73832 16.2061 5.0229C15.928 5.31522 15.4545 5.6467 14.7548 5.95771C13.359 6.57805 11.3256 7 9 7C6.67436 7 4.64101 6.57805 3.24525 5.95771C2.54547 5.6467 2.07204 5.31522 1.79386 5.0229C1.52303 4.73832 1.5 4.56421 1.5 4.5C1.5 4.43579 1.52303 4.26168 1.79386 3.9771C2.07204 3.68478 2.54547 3.3533 3.24525 3.04229C4.64101 2.42195 6.67436 2 9 2C11.3256 2 13.359 2.42195 14.7548 3.04229C15.4545 3.3533 15.928 3.68478 16.2061 3.9771C16.477 4.26168 16.5 4.43579 16.5 4.5ZM16.5 6.71186C14.8876 7.78966 12.1305 8.5 9 8.5C5.86954 8.5 3.11238 7.78966 1.5 6.71186V8.49902V9.24902C1.5 9.91647 2.31057 10.7226 3.67856 11.4066C5.00168 12.0682 6.88205 12.499 9 12.499C11.118 12.499 12.9983 12.0682 14.3214 11.4066C15.6894 10.7226 16.5 9.91647 16.5 9.24902V8.49902V6.71186ZM18 4.5C18 2.29086 13.9706 0.5 9 0.5C4.02944 0.5 0 2.29086 0 4.5V15.5C0 17.7091 4.02944 19.5 9 19.5C13.9706 19.5 18 17.7091 18 15.5V4.5ZM1.5 15.5V11.7447C1.93283 12.1338 2.45051 12.4697 3.00774 12.7483C4.58004 13.5344 6.69967 13.999 9 13.999C11.3003 13.999 13.42 13.5344 14.9923 12.7483C15.5495 12.4697 16.0672 12.1338 16.5 11.7447V15.5C16.5 15.5642 16.477 15.7383 16.2061 16.0229C15.928 16.3152 15.4545 16.6467 14.7548 16.9577C13.359 17.578 11.3256 18 9 18C6.67436 18 4.64101 17.578 3.24525 16.9577C2.54547 16.6467 2.07204 16.3152 1.79386 16.0229C1.52303 15.7383 1.5 15.5642 1.5 15.5Z" fill="#868E96"/>
</svg>
