<svg width="41" height="40" viewBox="0 0 41 40" fill="none" xmlns="http://www.w3.org/2000/svg">
<circle cx="20.5" cy="20" r="20" fill="#00BCCC"/>
<path d="M27.4257 12.6042V12.7542H27.5757H28.7767C28.9324 12.7542 29.0608 12.8819 29.0608 13.0418V28.2705C29.0608 28.4305 28.9324 28.5581 28.7767 28.5581H12.2235C12.0677 28.5581 11.9394 28.4305 11.9394 28.2705V13.0418C11.9394 12.8819 12.0677 12.7542 12.2235 12.7542H13.5836H13.7336V12.6042V12.3125V12.1625H13.5836H12.2235C11.7399 12.1625 11.35 12.5573 11.35 13.0418V28.2705C11.35 28.755 11.7399 29.1498 12.2235 29.1498H28.7767C29.2602 29.1498 29.6502 28.755 29.6502 28.2705V13.0418C29.6502 12.5573 29.2602 12.1625 28.7767 12.1625H27.5757H27.4257V12.3125V12.6042ZM17.7074 12.7542H17.8574V12.6042V12.3125V12.1625H17.7074H15.0306H14.8806V12.3125V12.6042V12.7542H15.0306H17.7074ZM21.8168 12.7542H21.9668V12.6042V12.3125V12.1625H21.8168H19.1689H19.0189V12.3125V12.6042V12.7542H19.1689H21.8168ZM26.013 12.7542H26.163V12.6042V12.3125V12.1625H26.013H23.3506H23.2006V12.3125V12.6042V12.7542H23.3506H26.013Z" fill="white" stroke="white" stroke-width="0.3"/>
<path d="M14.6798 11.8752V13.0422C14.6798 13.2827 14.4867 13.4756 14.251 13.4756C14.0153 13.4756 13.8222 13.2827 13.8222 13.0422V11.8752C13.8222 11.6347 14.0153 11.4417 14.251 11.4417C14.4867 11.4417 14.6798 11.6347 14.6798 11.8752ZM14.251 10.85C13.6875 10.85 13.2328 11.3101 13.2328 11.8752V13.0422C13.2328 13.6072 13.6875 14.0674 14.251 14.0674C14.8144 14.0674 15.2692 13.6072 15.2692 13.0422V11.8752C15.2692 11.3101 14.8144 10.85 14.251 10.85Z" fill="white" stroke="white" stroke-width="0.3"/>
<path d="M18.8438 11.8752V13.0422C18.8438 13.2827 18.6507 13.4756 18.415 13.4756C18.1794 13.4756 17.9863 13.2827 17.9863 13.0422V11.8752C17.9863 11.6347 18.1794 11.4417 18.415 11.4417C18.6507 11.4417 18.8438 11.6347 18.8438 11.8752ZM18.415 10.85C17.8516 10.85 17.3969 11.3101 17.3969 11.8752V13.0422C17.3969 13.6072 17.8516 14.0674 18.415 14.0674C18.9785 14.0674 19.4332 13.6072 19.4332 13.0422V11.8752C19.4332 11.3101 18.9785 10.85 18.415 10.85Z" fill="white" stroke="white" stroke-width="0.3"/>
<path d="M23.0118 11.8752V13.0422C23.0118 13.2827 22.8187 13.4756 22.583 13.4756C22.3473 13.4756 22.1542 13.2827 22.1542 13.0422V11.8752C22.1542 11.6347 22.3473 11.4417 22.583 11.4417C22.8187 11.4417 23.0118 11.6347 23.0118 11.8752ZM22.583 10.85C22.0196 10.85 21.5648 11.3101 21.5648 11.8752V13.0422C21.5648 13.6072 22.0196 14.0674 22.583 14.0674C23.1465 14.0674 23.6012 13.6072 23.6012 13.0422V11.8752C23.6012 11.3101 23.1465 10.85 22.583 10.85Z" fill="white" stroke="white" stroke-width="0.3"/>
<path d="M27.1798 11.8752V13.0422C27.1798 13.2827 26.9867 13.4756 26.751 13.4756C26.5153 13.4756 26.3222 13.2827 26.3222 13.0422V11.8752C26.3222 11.6347 26.5153 11.4417 26.751 11.4417C26.9867 11.4417 27.1798 11.6347 27.1798 11.8752ZM26.751 10.85C26.1875 10.85 25.7328 11.3101 25.7328 11.8752V13.0422C25.7328 13.6072 26.1875 14.0674 26.751 14.0674C27.3144 14.0674 27.7692 13.6072 27.7692 13.0422V11.8752C27.7692 11.3101 27.3144 10.85 26.751 10.85Z" fill="white" stroke="white" stroke-width="0.3"/>
<path d="M29.3255 15.7152H29.4755V15.5652V15.2734V15.1234H29.3255H11.7305H11.5805V15.2734V15.5652V15.7152H11.7305H29.3255Z" fill="white" stroke="white" stroke-width="0.3"/>
<path d="M21.2434 20.655C21.2274 20.6523 21.2138 20.6421 21.2067 20.6275L20.5649 19.3052C20.4373 19.0423 20.0628 19.0423 19.9352 19.3052L19.2934 20.6275C19.2863 20.6421 19.2726 20.6523 19.2566 20.655L17.8465 20.8908C17.5699 20.9371 17.4573 21.2737 17.6505 21.477L17.7592 21.3737L17.6505 21.4771L18.6715 22.552C18.6821 22.5632 18.687 22.5786 18.6847 22.5938L18.4612 24.0839C18.4185 24.3686 18.7185 24.5802 18.9724 24.4445L20.2264 23.7737C20.2412 23.7658 20.2589 23.7658 20.2736 23.7737L21.5277 24.4445C21.7815 24.5802 22.0816 24.3686 22.0389 24.0839L21.8154 22.5938C21.8131 22.5786 21.8179 22.5632 21.8286 22.552L22.8496 21.4771C23.0428 21.2737 22.9302 20.9371 22.6535 20.8908L21.2434 20.655Z" fill="white" stroke="white" stroke-width="0.3"/>
</svg>
