<svg width="40" height="40" viewBox="0 0 40 40" fill="none" xmlns="http://www.w3.org/2000/svg">
<path d="M6.50166 39.1089C6.09546 38.7172 7.85454 32.9067 8.44691 30.5401H11.9198C19.1129 30.2136 33.4992 29.8545 33.4992 31.0297C33.4992 32.2049 32.4231 37.6461 32 39.8496C23.622 39.8496 6.90786 39.5006 6.50166 39.1089Z" fill="white"/>
<path d="M33.7674 31.4126C33.7674 31.4126 31.2737 26.1538 27.235 25.3079C23.1962 24.4619 10.4168 24.7813 8.55469 31.4444C8.55469 31.4444 17.916 31.4999 21.8956 31.4076C25.8752 31.3148 33.7674 31.4126 33.7674 31.4126Z" fill="white"/>
<path d="M19.3412 10.4526C19.3412 10.4526 16.0704 8.52551 14.4647 8.49815C12.8594 8.47079 13.7355 14.0634 13.0898 15.7198" fill="#4D4D4D"/>
<path d="M13.1065 15.8102C13.0711 15.8102 13.0347 15.804 12.9996 15.7905C12.8459 15.7321 12.7695 15.562 12.8286 15.4104C13.0564 14.8263 13.0814 13.6056 13.1055 12.4252C13.1265 11.4066 13.1479 10.3535 13.2922 9.54749C13.3614 9.16083 13.5718 7.98304 14.4867 8.00019C16.1525 8.02853 19.3742 9.91603 19.5105 9.99646C19.6518 10.0799 19.6979 10.2602 19.6137 10.3996C19.5292 10.539 19.3465 10.5845 19.2052 10.5015C19.1732 10.4827 15.9842 8.61397 14.4767 8.58858C14.475 8.58858 14.473 8.58858 14.4713 8.58858C13.7809 8.58858 13.7351 10.8123 13.7017 12.4371C13.6753 13.725 13.6503 14.9413 13.3851 15.6217C13.3396 15.7387 13.2264 15.8102 13.1065 15.8102Z" fill="black"/>
<path d="M17.1235 11.3525C17.1235 11.3525 14.1494 14.1961 13.7865 15.4883C13.7865 15.4883 13.2033 9.6868 14.0658 9.11136C14.9282 8.53592 16.4101 10.3066 17.1235 11.3522V11.3525Z" fill="#F78C8B"/>
<path d="M14.8242 28.3892C14.8242 28.3892 10.9567 26.9081 10.5973 21.5566C10.2379 16.2054 13.5777 15.4614 14.3522 13.9888C15.6617 12.8751 18.8383 6.80491 27.4661 11.0805C36.0939 15.3557 36.6472 24.5294 33.5775 27.3891C33.5775 27.3891 31.2243 29.8617 27.5359 29.9636" fill="white"/>
<path d="M27.5727 11.0926C26.592 10.608 25.6738 10.2492 24.815 9.99609C24.1828 11.971 20.5415 19.0914 23.0248 20.7306C26.3919 22.9531 24.372 30.3722 35.2786 22.2825C35.2361 18.1955 33.7111 14.1257 27.5731 11.0926H27.5727Z" fill="#FAAF5E"/>
<path d="M19.1991 17.2894C20.1377 12.9627 22.6475 11.4193 22.6717 9.59943C17.8813 9.24566 15.2058 12.7203 14.6264 13.9251C14.1091 15.0007 12.3839 15.7641 11.5781 18.1278C12.2084 18.1084 12.8743 18.2278 13.0985 18.7616C13.5644 19.8713 18.0357 22.6546 19.1991 17.2894Z" fill="#4D4D4D"/>
<path d="M27.7713 29.9632C27.6111 29.9632 27.4794 29.8359 27.4751 29.6753C27.4707 29.5118 27.5997 29.3758 27.7637 29.3715C31.2675 29.2773 33.5564 26.9847 33.579 26.9615C33.583 26.9575 33.5873 26.9532 33.5916 26.9492C34.8704 25.7886 35.443 23.5388 35.0859 21.078C34.8116 19.1871 33.5301 14.4785 27.5728 11.6021C19.0114 7.46862 15.4703 13.0157 14.8476 14.1697C14.6145 14.6015 14.2059 14.9611 13.7327 15.3777C12.5537 16.4152 10.9388 17.8365 11.1905 21.4857C11.5316 26.4334 15.1734 27.8481 15.2103 27.8617C15.3636 27.919 15.4417 28.0895 15.3842 28.2424C15.3267 28.3957 15.1558 28.4733 15.0025 28.4159C14.9606 28.4003 13.9665 28.0219 12.9248 26.9794C11.9692 26.0231 10.7898 24.301 10.5986 21.5261C10.327 17.5857 12.0686 16.053 13.3404 14.9339C13.771 14.5551 14.1427 14.2277 14.3256 13.8891C14.6265 13.3315 15.7865 11.427 18.0811 10.3234C20.8092 9.01162 24.0896 9.26271 27.8315 11.0691C30.1636 12.1951 32.0465 13.7222 33.4281 15.6082C34.622 17.2384 35.3984 19.1005 35.6734 20.9931C36.0578 23.642 35.4157 26.0885 33.9976 27.381C33.828 27.5522 31.4717 29.8637 27.78 29.9629C27.7773 29.9629 27.7746 29.9629 27.772 29.9629L27.7713 29.9632Z" fill="black"/>
<path d="M27.6953 11.7407C27.6953 11.7407 32.2037 9.92075 33.8979 10.9772C35.5921 12.0337 34.4581 18.042 34.8058 19.2933" fill="#FAAF5E"/>
<path d="M34.8109 19.5876C34.68 19.5876 34.5601 19.5019 34.5237 19.3714C34.3978 18.9182 34.4412 18.0169 34.4963 16.8754C34.5928 14.8729 34.7391 11.8465 33.7437 11.2261C32.4607 10.4258 29.0275 11.5228 27.8133 12.013C27.6607 12.0746 27.487 12.0024 27.4245 11.8521C27.3624 11.7018 27.4352 11.53 27.5875 11.4684C27.7773 11.3919 32.2586 9.60431 34.0621 10.7287C35.3507 11.5323 35.2068 14.5103 35.0915 16.9034C35.0431 17.9058 34.9973 18.8529 35.0982 19.2158C35.1416 19.3724 35.0484 19.5342 34.8898 19.5771C34.8634 19.5844 34.837 19.5876 34.8106 19.5876H34.8109Z" fill="black"/>
<path d="M32.9559 17.4852C32.8563 17.3949 30.6033 14.0146 28.2188 13.2029C28.2188 13.2029 30.8155 10.7605 32.8356 11.7174C34.8556 12.6742 32.9555 17.4852 32.9555 17.4852H32.9559Z" fill="#F78C8B"/>
<path d="M14.6064 28.3383C14.6064 28.3383 13.3922 26.2501 13.1772 23.6237C12.9622 20.9972 12.7689 21.1916 12.4465 20.8998C12.124 20.608 12.4036 19.8542 11.0925 19.8053C11.0925 19.8053 10.1254 18.9541 9.26604 20.0243C9.26604 20.0243 8.42784 19.8784 8.08422 21.0457C8.08422 21.0457 7.20314 21.4349 7.69743 23.5509C8.19172 25.6668 7.91242 27.2719 8.66457 30.02C8.66457 30.02 8.23092 30.5634 8.04074 31.4646" fill="white"/>
<path d="M15.064 28.1736C15.0516 28.1541 13.8132 26.1904 13.5942 23.7555C13.3902 21.4861 13.1962 21.2574 12.8109 20.9912C12.7762 20.9674 12.7437 20.9447 12.7115 20.9182C12.6722 20.8861 12.6417 20.8041 12.6059 20.7093C12.4448 20.2797 12.2018 19.8568 11.1934 19.7999C10.7454 19.4885 9.83408 19.2049 9.04105 19.9995C8.63203 20.0025 7.98845 20.2288 7.66584 21.0893C7.37443 21.2919 6.74351 21.9609 7.21231 23.789C7.43583 24.6609 7.50665 25.4464 7.5817 26.2781C7.67819 27.3479 7.7776 28.4528 8.19669 29.8986C8.02321 30.1376 6.17582 39.1634 6.03125 39.9184C6.04554 39.9284 6.07251 39.9505 6.07251 39.9505C6.14138 39.9067 6.22293 39.8809 6.31357 39.8809C6.361 39.8809 6.40778 39.8896 6.45262 39.9043C6.49778 39.8893 6.54553 39.8809 6.59524 39.8809C6.60758 39.8809 6.6196 39.8819 6.63195 39.8829C6.81128 39.1336 8.70968 30.1912 8.73404 30.1628C8.80259 30.0844 8.82598 29.9749 8.79577 29.8741C8.35653 28.4126 8.25615 27.2997 8.15933 26.2232C8.08201 25.3661 8.00924 24.5564 7.77338 23.6367C7.34811 21.979 7.96148 21.5983 8.01314 21.5698C8.09826 21.54 8.14991 21.476 8.1785 21.3873C8.4527 20.5392 9.0495 20.5928 9.11318 20.6015C9.20902 20.6166 9.30648 20.5814 9.37178 20.5071C10.0751 19.7095 10.8341 20.2653 10.9172 20.3306C10.9656 20.3695 11.0244 20.3912 11.0855 20.3932C11.8766 20.42 11.9646 20.6541 12.066 20.9249C12.1235 21.0783 12.1888 21.2521 12.3499 21.3853C12.4009 21.4275 12.4477 21.4596 12.4887 21.4881C12.6719 21.6147 12.8301 21.7238 13.0176 23.8111C13.2495 26.3933 14.526 28.4176 14.5802 28.5024C14.6683 28.6403 14.8479 28.6785 14.9818 28.5877C15.1156 28.497 15.1527 28.3118 15.0646 28.1739L15.064 28.1736Z" fill="black"/>
<path d="M12.3342 23.476C12.4734 23.476 12.5863 23.1408 12.5863 22.7273C12.5863 22.3137 12.4734 21.9785 12.3342 21.9785C12.1949 21.9785 12.082 22.3137 12.082 22.7273C12.082 23.1408 12.1949 23.476 12.3342 23.476Z" fill="#F78C8B"/>
<path d="M11.0781 21.9757C11.0781 22.2516 11.191 22.4749 11.3303 22.4749C11.4695 22.4749 11.5824 22.2513 11.5824 21.9757C11.5824 21.7002 11.4695 21.4766 11.3303 21.4766C11.191 21.4766 11.0781 21.7002 11.0781 21.9757Z" fill="#F78C8B"/>
<path d="M9.56641 21.9757C9.56641 22.2516 9.79224 22.4749 10.0707 22.4749C10.3491 22.4749 10.5749 22.2513 10.5749 21.9757C10.5749 21.7002 10.3491 21.4766 10.0707 21.4766C9.79224 21.4766 9.56641 21.7002 9.56641 21.9757Z" fill="#F78C8B"/>
<path d="M9.05894 23.476C9.33743 23.476 9.5632 23.1408 9.5632 22.7273C9.5632 22.3137 9.33743 21.9785 9.05894 21.9785C8.78045 21.9785 8.55469 22.3137 8.55469 22.7273C8.55469 23.1408 8.78045 23.476 9.05894 23.476Z" fill="#F78C8B"/>
<path d="M9.56641 24.1672C9.56641 24.8272 10.1308 24.9684 10.827 24.9684C11.5232 24.9684 12.0877 24.8272 12.0877 24.1672C12.0877 23.5071 11.5232 22.9717 10.827 22.9717C10.1308 22.9717 9.56641 23.5067 9.56641 24.1672Z" fill="#F78C8B"/>
<path d="M27.2148 29.9322C27.2148 29.9322 28.6026 27.8878 28.8483 25.3989C29.094 22.9101 29.3148 23.0944 29.6834 22.8178C30.0519 22.5413 29.7324 21.827 31.2307 21.7807C31.2307 21.7807 32.336 20.974 33.3182 21.9882C33.3182 21.9882 34.2761 21.85 34.6688 22.9561C34.6688 22.9561 35.6758 23.3249 35.1109 25.33C34.546 27.335 34.8652 28.856 34.0056 31.4601" fill="white"/>
<path d="M29.9829 24.4739C30.4007 24.4739 30.7393 24.2504 30.7393 23.9748C30.7393 23.6991 30.4007 23.4756 29.9829 23.4756C29.5652 23.4756 29.2266 23.6991 29.2266 23.9748C29.2266 24.2504 29.5652 24.4739 29.9829 24.4739Z" fill="#F78C8B"/>
<path d="M31.4986 23.9721C31.9163 23.9721 32.255 23.6369 32.255 23.2234C32.255 22.8098 31.9163 22.4746 31.4986 22.4746C31.0808 22.4746 30.7422 22.8098 30.7422 23.2234C30.7422 23.6369 31.0808 23.9721 31.4986 23.9721Z" fill="#F78C8B"/>
<path d="M33.0138 23.9721C33.1531 23.9721 33.266 23.6369 33.266 23.2234C33.266 22.8098 33.1531 22.4746 33.0138 22.4746C32.8746 22.4746 32.7617 22.8098 32.7617 23.2234C32.7617 23.6369 32.8746 23.9721 33.0138 23.9721Z" fill="#F78C8B"/>
<path d="M34.2741 23.9748C34.2741 24.2506 34.0483 24.4739 33.7699 24.4739C33.4915 24.4739 33.2656 24.2503 33.2656 23.9748C33.2656 23.6992 33.4915 23.4756 33.7699 23.4756C34.0483 23.4756 34.2741 23.6992 34.2741 23.9748Z" fill="#F78C8B"/>
<path d="M33.2635 25.6701C33.2635 26.3302 32.699 26.4713 32.0028 26.4713C31.3066 26.4713 30.7422 26.3302 30.7422 25.6701C30.7422 25.01 31.3066 24.4746 32.0028 24.4746C32.699 24.4746 33.2635 25.0096 33.2635 25.6701Z" fill="#F78C8B"/>
<path d="M21.9113 22.3874C21.9113 22.3874 21.8121 24.0369 19.6228 23.7755C17.5037 23.5224 18.0151 21.5208 18.0151 21.5208C18.0151 21.5208 19.693 21.5043 19.7123 21.3247C19.7317 21.145 20.7084 22.127 20.7084 22.127L21.9116 22.3874H21.9113Z" fill="#F78C8B"/>
<path d="M20.0791 24.0985C19.9241 24.0985 19.7618 24.0883 19.5921 24.0682C18.8709 23.9821 18.3401 23.7006 18.0138 23.2322C17.48 22.4651 17.7205 21.4907 17.7309 21.4499C17.771 21.2923 17.9333 21.1967 18.0926 21.2366C18.252 21.2762 18.3485 21.4357 18.3091 21.5929C18.3064 21.6041 18.126 22.3583 18.5072 22.9026C18.7323 23.224 19.1214 23.4201 19.6632 23.4847C20.329 23.5642 20.8394 23.4623 21.1801 23.1814C21.5786 22.8531 21.618 22.3758 21.6183 22.3712C21.628 22.209 21.7693 22.0851 21.9333 22.095C22.0977 22.1045 22.2229 22.244 22.2132 22.4061C22.2116 22.4358 22.1625 23.1386 21.5619 23.633C21.1854 23.9429 20.6877 24.0992 20.0784 24.0992L20.0791 24.0985Z" fill="black"/>
<path d="M21.1507 19.6863C21.0656 20.2647 20.4669 21.1453 19.9168 20.9494C19.367 20.7535 19.074 19.5549 19.1591 18.9765C19.2441 18.398 19.7121 18.4055 20.2622 18.6014C20.8121 18.7973 21.2357 19.1078 21.1507 19.6858V19.6863Z" fill="black"/>
<path d="M21.5656 22.477C20.9071 22.477 20.4262 22.304 20.0992 22.1173C19.8196 21.9579 19.6215 21.7723 19.4897 21.6205C19.2015 21.8291 18.8864 21.9361 18.5485 21.9397C18.543 21.9397 18.5372 21.9397 18.5318 21.9397C17.7793 21.9397 17.2234 21.4083 17.2 21.3855C17.0952 21.2836 17.1077 21.1287 17.2279 21.0399C17.3482 20.9511 17.5299 20.9614 17.6351 21.063C17.6425 21.0701 18.047 21.4499 18.5318 21.4499C18.536 21.4499 18.5401 21.4499 18.5443 21.4499C18.8152 21.446 19.0765 21.3178 19.3211 21.0682C19.3855 21.0024 19.4852 20.9698 19.5849 20.9823C19.6846 20.9945 19.7696 21.0497 19.809 21.1282C19.8372 21.1825 20.5432 22.4773 22.7918 21.7826C22.9419 21.7365 23.1076 21.8017 23.1625 21.9288C23.217 22.0559 23.14 22.1964 22.99 22.2428C22.4443 22.4113 21.9714 22.477 21.5659 22.477H21.5656Z" fill="black"/>
<path d="M19.8939 21.4811C19.8251 21.4811 19.758 21.4112 19.72 21.2852C19.5518 20.7281 19.7279 19.8855 19.765 19.7224C19.8111 19.5189 19.9312 19.4284 20.0334 19.5203C20.1353 19.6122 20.1807 19.851 20.1348 20.0541C20.0718 20.3351 20.0298 20.7429 20.0678 20.8689C20.1256 21.0602 20.0945 21.3081 19.9985 21.4233C19.9659 21.4622 19.9297 21.4811 19.8941 21.4811H19.8939Z" fill="black"/>
<path d="M18.3086 18.482C18.1775 18.482 18.0535 18.4264 18.0015 18.335C17.9651 18.2717 17.0906 16.8108 14.4607 16.9674C14.2787 16.9784 14.1183 16.8822 14.1027 16.7528C14.0875 16.6234 14.2227 16.5098 14.405 16.4987C16.0356 16.4014 17.0928 16.8551 17.6925 17.2526C18.3427 17.6836 18.6053 18.1399 18.616 18.1591C18.684 18.2796 18.6016 18.4167 18.4319 18.4649C18.3914 18.4765 18.3498 18.4818 18.3086 18.4818V18.482Z" fill="black"/>
<path d="M22.9879 19.979C22.8969 19.979 22.8066 19.9386 22.7443 19.8601C22.6331 19.7208 22.6522 19.5147 22.7864 19.3995C22.8756 19.3232 25.0049 17.5489 28.0456 19.1454C28.2014 19.2271 28.2633 19.4241 28.1844 19.5851C28.1054 19.7461 27.9153 19.8106 27.7598 19.7289C25.0842 18.3242 23.2074 19.8876 23.1887 19.9038C23.1299 19.954 23.0583 19.9786 22.9875 19.9786L22.9879 19.979Z" fill="black"/>
<path d="M34.619 22.5811C34.2762 21.7224 33.5923 21.4965 33.1577 21.4935C32.315 20.7006 31.3467 20.9836 30.8707 21.2944C29.7991 21.3515 29.5409 21.7732 29.3697 22.2019C29.3317 22.2965 29.2993 22.3783 29.2575 22.4104C29.2233 22.4368 29.1888 22.4592 29.1519 22.4832C28.7424 22.7489 28.5363 22.9771 28.3195 25.2419C28.0872 27.6717 26.7713 29.6314 26.7578 29.6508C26.6643 29.7885 26.7036 29.9732 26.8458 30.0638C26.9881 30.1543 27.179 30.1163 27.2725 29.9786C27.3302 29.8937 28.6865 27.8735 28.933 25.297C29.1322 23.214 29.3003 23.1051 29.495 22.9788C29.5385 22.9504 29.5882 22.9183 29.6424 22.8762C29.814 22.7435 29.883 22.5698 29.9441 22.4167C30.0522 22.1464 30.1454 21.9129 30.986 21.8861C31.0509 21.8841 31.1137 21.8621 31.1648 21.8237C31.2532 21.7588 32.0592 21.2042 32.8069 21.9997C32.8763 22.0739 32.9796 22.109 33.0817 22.094C33.1494 22.0856 33.7835 22.0322 34.0749 22.8782C34.1053 22.9667 34.1602 23.0302 34.2506 23.0603C34.3055 23.0887 34.9573 23.4686 34.5054 25.1229C34.2548 26.0408 34.1771 26.8487 34.0953 27.7041C33.9924 28.7784 33.8857 29.889 33.419 31.3475C33.4069 31.385 31.8904 39.4105 31.8935 39.4483C32.1382 39.4149 32.3654 39.3861 32.6091 39.4489C32.5849 39.4155 34.0753 31.3983 34.0549 31.3719C34.5002 29.9291 34.6058 28.8265 34.7084 27.7589C34.7881 26.9289 34.863 26.145 35.1009 25.2749C35.599 23.4506 34.9286 22.7833 34.619 22.5811Z" fill="black"/>
<path d="M37.5892 39.9992H2.41078C2.18403 39.9992 2 39.8165 2 39.5914C2 39.3663 2.18403 39.1836 2.41078 39.1836H37.5892C37.816 39.1836 38 39.3663 38 39.5914C38 39.8165 37.816 39.9992 37.5892 39.9992Z" fill="black"/>
</svg>
