<svg width="16" height="16" viewBox="0 0 16 16" fill="none" xmlns="http://www.w3.org/2000/svg">
<path d="M2 11.0996V14.4996C2 14.7758 2.22386 14.9996 2.5 14.9996H14.5C14.7761 14.9996 15 14.7758 15 14.4996V11.0996" stroke="#888EA0" stroke-linecap="round"/>
<path d="M9 2C9 1.72386 8.77614 1.5 8.5 1.5C8.22386 1.5 8 1.72386 8 2H9ZM8.14645 12.7536C8.34171 12.9488 8.65829 12.9488 8.85355 12.7536L12.0355 9.57157C12.2308 9.37631 12.2308 9.05973 12.0355 8.86447C11.8403 8.6692 11.5237 8.6692 11.3284 8.86447L8.5 11.6929L5.67157 8.86447C5.47631 8.6692 5.15973 8.6692 4.96447 8.86447C4.7692 9.05973 4.7692 9.37631 4.96447 9.57157L8.14645 12.7536ZM8 2V12.4H9V2H8Z" fill="#888EA0"/>
</svg>
