<svg width="26" height="17" viewBox="0 0 26 17" fill="none" xmlns="http://www.w3.org/2000/svg">
<path d="M1.44308 5.81538L12.9231 1.03205C12.9723 1.01154 13.0277 1.01154 13.0769 1.03205L24.5569 5.81538C24.721 5.88376 24.721 6.11624 24.5569 6.18462L13.0769 10.9679C13.0277 10.9885 12.9723 10.9885 12.9231 10.9679L1.44308 6.18462C1.27897 6.11624 1.27897 5.88376 1.44308 5.81538Z" stroke="#EFA106" stroke-width="1.5"/>
<path fill-rule="evenodd" clip-rule="evenodd" d="M19.6667 7.74074L13 11.4444L6.29882 7.72157L6.33333 13.5206C6.35698 13.552 6.395 13.597 6.45398 13.6551C6.6918 13.8894 7.11857 14.1733 7.76478 14.4426C9.04327 14.9753 10.8943 15.3333 13 15.3333C15.1057 15.3333 16.9567 14.9753 18.2352 14.4426C18.8814 14.1733 19.3082 13.8894 19.546 13.6551C19.605 13.597 19.643 13.552 19.6667 13.5206V7.74074ZM19.7012 13.4665C19.7012 13.4665 19.7 13.4702 19.6958 13.4775C19.6988 13.4701 19.7012 13.4665 19.7012 13.4665ZM6.29882 13.4665C6.29882 13.4665 6.30122 13.4701 6.30426 13.4776C6.30005 13.4702 6.29882 13.4665 6.29882 13.4665ZM21 7V13.6667C21 15.5076 17.4183 17 13 17C8.58172 17 5 15.5076 5 13.6667V7L13 11.4444L21 7Z" fill="#EFA106"/>
</svg>
