<svg width="27" height="28" viewBox="0 0 27 28" fill="none" xmlns="http://www.w3.org/2000/svg">
<path d="M2.92202 22.1108V9.95634H24.078V22.1111C24.078 22.9004 23.4606 23.5401 22.7013 23.5556H22.673H4.32695C3.55478 23.5556 2.92202 22.9099 2.92202 22.1108ZM22.673 4.715H20.3588V3.92205C20.3588 3.6363 20.1323 3.4 19.8476 3.4C19.563 3.4 19.3365 3.6363 19.3365 3.92205V4.715H7.66353V3.92205C7.66353 3.6363 7.43704 3.4 7.15238 3.4C6.86771 3.4 6.64123 3.6363 6.64123 3.92205V4.715H4.32667C2.98628 4.715 1.9 5.83391 1.9 7.20365V22.1113C1.9 23.4811 2.98629 24.6 4.32695 24.6H22.6733C24.014 24.6 25.1003 23.4811 25.1 22.111V7.20365C25.1 5.8339 24.0137 4.715 22.673 4.715ZM4.32695 5.75881H6.64151V6.55176C6.64151 6.83751 6.86799 7.07381 7.15266 7.07381C7.43732 7.07381 7.66381 6.83751 7.66381 6.55176V5.75881H19.3368V6.55176C19.3368 6.83751 19.5632 7.07381 19.8479 7.07381C20.1326 7.07381 20.359 6.83751 20.359 6.55176V5.75881H22.6733C23.4455 5.75881 24.0783 6.40454 24.0783 7.20365V8.91253H2.92202V7.20365C2.92202 6.40454 3.55478 5.75881 4.32695 5.75881Z" fill="#3F4249" stroke="#3F4249" stroke-width="0.2"/>
<path d="M7.07414 12.1016H5.05198C4.68953 12.1016 4.39453 12.4041 4.39453 12.7764V14.8522C4.39453 15.2243 4.68925 15.5271 5.05198 15.5271H7.07414C7.43659 15.5271 7.73158 15.2246 7.73158 14.8522V12.7764C7.73158 12.4044 7.43687 12.1016 7.07414 12.1016Z" fill="#3F4249"/>
<path d="M12.0624 12.1445H10.0403C9.67781 12.1445 9.38281 12.4471 9.38281 12.8194V14.8952C9.38281 15.2673 9.67753 15.5701 10.0403 15.5701H12.0624C12.4249 15.5701 12.7199 15.2675 12.7199 14.8952V12.8194C12.7199 12.4474 12.4251 12.1445 12.0624 12.1445Z" fill="#3F4249"/>
<path d="M16.9569 12.1016H14.9348C14.5723 12.1016 14.2773 12.4041 14.2773 12.7764V14.8522C14.2773 15.2243 14.5721 15.5271 14.9348 15.5271H16.9569C17.3194 15.5271 17.6144 15.2246 17.6144 14.8522V12.7764C17.6144 12.4044 17.3197 12.1016 16.9569 12.1016Z" fill="#3F4249"/>
<path d="M21.9452 12.1016H19.9231C19.5606 12.1016 19.2656 12.4041 19.2656 12.7764V14.8522C19.2656 15.2243 19.5603 15.5271 19.9231 15.5271H21.9452C22.3077 15.5271 22.6027 15.2246 22.6027 14.8522V12.7764C22.6027 12.4044 22.308 12.1016 21.9452 12.1016Z" fill="#3F4249"/>
<path d="M7.07414 17.1348H5.05198C4.68953 17.1348 4.39453 17.4373 4.39453 17.8096V19.8854C4.39453 20.2575 4.68925 20.5603 5.05198 20.5603H7.07414C7.43659 20.5603 7.73158 20.2578 7.73158 19.8854V17.8096C7.73158 17.4376 7.43687 17.1348 7.07414 17.1348Z" fill="#3F4249"/>
<path d="M12.0624 17.1797H10.0403C9.67781 17.1797 9.38281 17.4822 9.38281 17.8546V19.9303C9.38281 20.3024 9.67753 20.6052 10.0403 20.6052H12.0624C12.4249 20.6052 12.7199 20.3027 12.7199 19.9303V17.8546C12.7199 17.4825 12.4251 17.1797 12.0624 17.1797Z" fill="#3F4249"/>
<path d="M16.9569 17.1348H14.9348C14.5723 17.1348 14.2773 17.4373 14.2773 17.8096V19.8854C14.2773 20.2575 14.5721 20.5603 14.9348 20.5603H16.9569C17.3194 20.5603 17.6144 20.2578 17.6144 19.8854V17.8096C17.6144 17.4376 17.3197 17.1348 16.9569 17.1348Z" fill="#3F4249"/>
</svg>
