<svg width="40" height="40" viewBox="0 0 40 40" fill="none" xmlns="http://www.w3.org/2000/svg">
<circle cx="20" cy="20" r="20" fill="#F44B4B"/>
<path d="M16.2864 10.0842C16.0732 9.68258 15.512 9.63861 15.2383 10.0031L13.9289 11.7472L11.5941 10.4388C11.1553 10.193 10.6168 10.5419 10.6703 11.044L10.9692 13.8484L8.90907 14.203C8.38893 14.2925 8.20959 14.946 8.61285 15.2857L10.637 16.9907C10.7992 17.1274 11.0425 17.1078 11.1806 16.9457C11.319 16.7833 11.2984 16.5403 11.1357 16.4033L9.35817 14.906L11.239 14.5823C11.5615 14.5268 11.7864 14.2316 11.7518 13.9067L11.4688 11.2513L13.6646 12.4818C13.9365 12.6342 14.2805 12.5624 14.468 12.3127L15.7144 10.6525L17.0029 13.0804C17.1024 13.2679 17.3356 13.3394 17.5238 13.2406C17.7127 13.1416 17.7853 12.9086 17.6855 12.7205L17.5529 12.791L17.6855 12.7205L16.2864 10.0842Z" fill="white" stroke="white" stroke-width="0.3" stroke-linecap="round"/>
<path d="M33 25.2788H33.15V25.1288V21.5163C33.15 19.7485 31.7088 18.3168 29.9328 18.3168H10.0672C8.29118 18.3168 6.85 19.7485 6.85 21.5163V25.1288V25.2788H7H9.94918H10.0992V25.1288V24.6597V24.5097H9.94918H7.62187V21.5163C7.62187 20.1749 8.71584 19.086 10.0672 19.086H29.9328C31.2842 19.086 32.3781 20.1749 32.3781 21.5163V24.5097H30.098H29.948V24.6597V25.1288V25.2788H30.098H33Z" fill="white" stroke="white" stroke-width="0.3"/>
<path d="M11.1124 18.8287L11.0017 19.0466H11.2461H28.7524H28.9969L28.8862 18.8287L27.3121 15.7299C26.8048 14.7312 25.7756 14.102 24.6512 14.102H15.3473C14.2229 14.102 13.1937 14.7312 12.6864 15.7299L11.1124 18.8287ZM15.3473 14.8711H24.6512C25.4853 14.8711 26.2478 15.3379 26.6234 16.0773L27.7411 18.2775H12.2575L13.3751 16.0773C13.7507 15.3379 14.5133 14.8711 15.3473 14.8711Z" fill="white" stroke="white" stroke-width="0.3"/>
<path d="M12.4742 27.4338C13.9895 27.4338 15.2195 26.2122 15.2195 24.7034C15.2195 23.1947 13.9895 21.973 12.4742 21.973C10.9588 21.973 9.72891 23.1947 9.72891 24.7034C9.72891 26.2122 10.9588 27.4338 12.4742 27.4338Z" fill="white" stroke="white" stroke-width="0.3"/>
<path d="M27.5758 27.4338C29.0911 27.4338 30.321 26.2122 30.321 24.7034C30.321 23.1947 29.0911 21.973 27.5758 21.973C26.0604 21.973 24.8305 23.1947 24.8305 24.7034C24.8305 26.2122 26.0604 27.4338 27.5758 27.4338Z" fill="white" stroke="white" stroke-width="0.3"/>
<path d="M25.0271 25.2774H25.1771V25.1274V24.6582V24.5082H25.0271H15.0234H14.8734V24.6582V25.1274V25.2774H15.0234H25.0271Z" fill="white" stroke="white" stroke-width="0.3"/>
</svg>
