<svg width="48" height="48" viewBox="0 0 48 48" fill="none" xmlns="http://www.w3.org/2000/svg">
<path d="M33.4277 24.7271L24.0119 34.0497L14.596 24.7271C12.1102 22.3124 12.055 18.3363 14.4755 15.8513C16.891 13.3663 20.8682 13.3111 23.354 15.7308C23.5951 15.9617 23.816 16.2178 24.0119 16.4838C26.0959 13.7127 30.033 13.1554 32.8 15.2388C35.572 17.3222 36.1295 21.2581 34.0454 24.0243C33.8596 24.2753 33.6487 24.5112 33.4277 24.7321" stroke="white" stroke-width="1.5"/>
<path d="M23.3007 17.4883L19.8808 20.6109C19.3887 21.1029 19.3887 21.8961 19.8808 22.388L20.5638 23.0708C21.4275 23.9343 22.8336 23.9343 23.7024 23.0708L24.9578 21.8157C26.5196 20.2544 29.0456 20.2544 30.6074 21.8157L33.4296 24.6371" stroke="white" stroke-width="1.5" stroke-linecap="round"/>
<path d="M24.6406 28.4023L27.1515 30.9125" stroke="white" stroke-width="1.5"/>
<path d="M27.7773 25.2637L30.2882 27.7738" stroke="white" stroke-width="1.5"/>
</svg>
