<svg width="40" height="43" viewBox="0 0 40 43" fill="none" xmlns="http://www.w3.org/2000/svg">
<path d="M20 43L15.6699 38.5L24.3301 38.5L20 43Z" fill="#00BCCC"/>
<circle cx="20" cy="20" r="20" fill="#00BCCC"/>
<path d="M31 12.5135C31 12.3625 30.9375 12.2142 30.8308 12.1075L26.8935 8.16982C26.6697 7.94339 26.3054 7.94339 26.079 8.16982L16.5077 17.7394C16.0757 17.6457 15.6359 17.5989 15.1987 17.5989C13.6139 17.5989 12.0239 18.2052 10.8164 19.4128C9.61415 20.6178 9 22.1976 9 23.7773C9 25.3675 9.59853 26.968 10.8164 28.1834C12.0265 29.3936 13.6165 30 15.2013 30H15.2039C16.7887 30 18.3762 29.3936 19.5836 28.1834C20.7937 26.9758 21.4 25.3857 21.3974 23.8007C21.3974 23.3609 21.3506 22.9211 21.2595 22.4916L28.3482 15.4023C28.572 15.1785 28.572 14.8141 28.3482 14.5903C28.1244 14.3639 27.7601 14.3639 27.5337 14.5903L20.216 21.9061C20.0703 22.0518 20.013 22.2652 20.0677 22.463C20.1874 22.9002 20.2472 23.3505 20.2472 23.8007C20.2472 25.0942 19.7554 26.3825 18.7691 27.3688C17.7828 28.3552 16.4921 28.8471 15.1987 28.8471C13.9054 28.8471 12.6146 28.3552 11.6283 27.3688C10.6369 26.3773 10.1502 25.0786 10.1502 23.7747C10.1502 22.489 10.6473 21.2086 11.6283 20.2274C12.6146 19.2411 13.9028 18.7492 15.1987 18.7492C15.6489 18.7492 16.0991 18.809 16.5363 18.9288C16.7367 18.9834 16.9475 18.9288 17.0958 18.7804L26.485 9.39041L29.6104 12.5161L29.2304 12.896C29.0066 13.1199 29.0066 13.4842 29.2304 13.7106C29.4542 13.9345 29.8185 13.9345 30.045 13.7106L30.8308 12.9247C30.9375 12.818 31 12.6696 31 12.5187V12.5135ZM25.0797 13.9215C24.8559 13.6976 24.4916 13.6976 24.2652 13.9215L16.3281 21.8592C15.982 21.6588 15.5943 21.5573 15.2091 21.5573C14.6392 21.5573 14.0641 21.7785 13.6295 22.2132C13.1949 22.6478 12.9737 23.223 12.9737 23.7929C12.9737 24.3629 13.1923 24.938 13.6295 25.3727C14.0641 25.8073 14.6392 26.0285 15.2091 26.0285H15.2117C15.7816 26.0285 16.3542 25.8073 16.7887 25.3727L16.3828 24.9667L16.7913 25.3727C17.2259 24.938 17.4471 24.3629 17.4445 23.7929C17.4445 23.4077 17.343 23.02 17.1427 22.6738L25.0797 14.7334C25.3035 14.5096 25.3035 14.1453 25.0797 13.9215Z" fill="white"/>
</svg>
