<svg width="40" height="40" viewBox="0 0 40 40" fill="none" xmlns="http://www.w3.org/2000/svg">
<circle cx="20" cy="20" r="20" fill="#F59239"/>
<path d="M30.4396 23.9174C30.4396 17.9695 27.8794 14.7786 24.0093 13.1564C23.1493 11.788 21.5417 11.7012 20.0003 11.7012C18.4589 11.7012 16.7719 11.788 15.9185 13.2699C12.2668 15.0056 9.63379 17.1951 9.63379 23.8974C8.55545 24.0843 7.93359 25.1123 7.93359 25.346C7.93359 26.0402 13.3385 26.0002 20.0003 26.0002C26.6622 26.0002 32.0671 26.0402 32.0671 25.346C32.0671 25.099 31.6172 24.1043 30.4396 23.9107V23.9174Z" stroke="white" stroke-linecap="round" stroke-linejoin="round"/>
<path d="M15.9907 13.2617C15.9907 13.2617 14.6212 18.6288 15.2233 23.3551" stroke="white" stroke-linecap="round" stroke-linejoin="round"/>
<path d="M24.0078 13.2617C24.0078 13.2617 25.3772 18.6288 24.7752 23.3551" stroke="white" stroke-linecap="round" stroke-linejoin="round"/>
<path d="M9.63281 23.8982C10.1554 23.858 9.81143 23.8781 10.3341 23.8781" stroke="white" stroke-linecap="round" stroke-linejoin="round"/>
<path d="M29.5938 23.8982C30.1164 23.858 29.7724 23.8781 30.295 23.8781" stroke="white" stroke-linecap="round" stroke-linejoin="round"/>
</svg>
