<svg width="18" height="20" viewBox="0 0 18 20" fill="none" xmlns="http://www.w3.org/2000/svg">
<path d="M7.24219 6.03305V2C7.24219 1.72386 7.46605 1.5 7.74219 1.5H14.5C14.7761 1.5 15 1.72386 15 2V10.5048" stroke="#EFA106" stroke-width="1.5"/>
<path d="M5.5 10.1895H1.5C1.22386 10.1895 1 10.4133 1 10.6895V18C1 18.2762 1.22385 18.5 1.49999 18.5L16.5027 18.5003C16.7789 18.5003 17.0027 18.2764 17.0027 18.0003V11.0117C17.0027 10.7322 16.7789 10.5057 16.5027 10.5057H14.5C14.2239 10.5057 14 10.7322 14 11.0117V18.5003" stroke="#EFA106" stroke-width="1.5"/>
<path d="M5 18.4983V6.91016C5 6.63401 5.22386 6.41016 5.5 6.41016H10.5C10.7761 6.41016 11 6.63401 11 6.91016V18.4983" stroke="#EFA106" stroke-width="1.5"/>
<rect x="7" y="8.58398" width="2" height="2.02389" rx="0.2" fill="#EFA106"/>
<rect x="7" y="11.6191" width="2" height="2.02389" rx="0.2" fill="#EFA106"/>
</svg>
