<svg width="40" height="40" viewBox="0 0 40 40" fill="none" xmlns="http://www.w3.org/2000/svg">
<circle cx="20" cy="20" r="20" fill="#5D3F8B"/>
<path d="M9.08802 17.434C9.08005 17.2246 8.90367 17.0615 8.69418 17.0694C8.48469 17.0774 8.32122 17.2535 8.32918 17.4628L8.72471 27.8551C8.73268 28.0645 8.90906 28.2277 9.11854 28.2197C9.32803 28.2118 9.49151 28.0357 9.48354 27.8263L9.08802 17.434Z" fill="white" stroke="white" stroke-width="0.1" stroke-linecap="round" stroke-linejoin="round"/>
<path d="M31.5099 17.482C31.5284 17.2733 31.3741 17.0891 31.1652 17.0706C30.9564 17.0521 30.772 17.2062 30.7535 17.4149L29.8304 27.8072C29.8119 28.0159 29.9662 28.2 30.1751 28.2185C30.3839 28.237 30.5683 28.083 30.5868 27.8743L31.5099 17.482Z" fill="white" stroke="white" stroke-width="0.1" stroke-linecap="round" stroke-linejoin="round"/>
<path d="M8.10404 11.95C7.91564 11.95 7.75061 12.0796 7.73118 12.2588L5.95185 28.6734C5.93088 28.8669 6.08742 29.0307 6.28875 29.0484C6.4896 29.0661 6.67672 28.9336 6.69758 28.7411L8.44342 12.6354H31.4491L32.9269 28.736C32.9446 28.9288 33.1297 29.0638 33.3308 29.0488C33.5323 29.0338 33.6914 28.8723 33.6737 28.6786L32.1671 12.264C32.1504 12.0824 31.9842 11.95 31.7937 11.95H8.10404Z" fill="white" stroke="white" stroke-width="0.1" stroke-linecap="round" stroke-linejoin="round"/>
<mask id="mask0_285_38595" style="mask-type:luminance" maskUnits="userSpaceOnUse" x="7" y="12" width="26" height="6">
<path d="M31.9355 17.3551H31.9876L31.9855 17.3031L31.7877 12.4296L31.7857 12.3816H31.7377H7.68359H7.63152L7.63363 12.4337L7.83145 17.3071L7.8334 17.3551H7.88141H31.9355Z" fill="white" stroke="white" stroke-width="0.1"/>
</mask>
<g mask="url(#mask0_285_38595)">
<path d="M14.0897 11.1199C14.1064 11.0979 14.1022 11.0666 14.0802 11.0498L11.0889 8.77469C11.0669 8.75797 11.0355 8.76222 11.0188 8.78418L5.98103 15.3915C5.96429 15.4135 5.96853 15.4448 5.99051 15.4615L8.98182 17.7367C9.0038 17.7534 9.03519 17.7492 9.05193 17.7272L14.0897 11.1199Z" fill="white" stroke="white" stroke-width="0.1" stroke-linecap="round" stroke-linejoin="round"/>
<path d="M20.9444 11.1249C20.9611 11.1029 20.9569 11.0716 20.9349 11.0549L19.167 9.71024C19.1451 9.69352 19.1137 9.69777 19.0969 9.71973L12.1619 18.8155C12.1451 18.8374 12.1494 18.8688 12.1714 18.8855L13.9392 20.2301C13.9612 20.2468 13.9926 20.2426 14.0093 20.2206L20.9444 11.1249Z" fill="white" stroke="white" stroke-width="0.1" stroke-linecap="round" stroke-linejoin="round"/>
<path d="M19.3668 9.44685C19.2 9.31996 18.9617 9.35216 18.8347 9.51881L11.8996 18.6145C11.7726 18.7812 11.8048 19.0192 11.9717 19.146L13.7395 20.4907C13.9064 20.6176 14.1446 20.5854 14.2717 20.4187L21.2067 11.323C21.3338 11.1563 21.3015 10.9184 21.1347 10.7915L19.3668 9.44685ZM13.8976 19.6574L12.7339 18.7723L19.2088 10.2801L20.3725 11.1652L13.8976 19.6574Z" fill="white" stroke="white" stroke-width="0.1" stroke-linecap="round" stroke-linejoin="round"/>
<path d="M27.8038 11.1249C27.8205 11.1029 27.8162 11.0716 27.7943 11.0549L26.0264 9.71024C26.0044 9.69352 25.973 9.69777 25.9563 9.71973L19.0213 18.8155C19.0045 18.8374 19.0088 18.8688 19.0307 18.8855L20.7986 20.2301C20.8206 20.2468 20.852 20.2426 20.8687 20.2206L27.8038 11.1249Z" fill="white" stroke="white" stroke-width="0.1" stroke-linecap="round" stroke-linejoin="round"/>
<path d="M26.2262 9.4488C26.0594 9.32191 25.8211 9.35411 25.6941 9.52077L18.759 18.6165C18.6319 18.7832 18.6642 19.0211 18.831 19.148L20.5989 20.4926C20.7657 20.6195 21.004 20.5873 21.1311 20.4206L28.0661 11.3249C28.1932 11.1583 28.1609 10.9203 27.9941 10.7934L26.2262 9.4488ZM20.7569 19.6594L19.5932 18.7743L26.0682 10.282L27.2319 11.1671L20.7569 19.6594Z" fill="white" stroke="white" stroke-width="0.1" stroke-linecap="round" stroke-linejoin="round"/>
<path d="M35.7486 11.9534C35.7653 11.9315 35.7611 11.9001 35.7391 11.8834L32.8819 9.71024C32.8599 9.69352 32.8285 9.69777 32.8118 9.71973L25.8767 18.8155C25.86 18.8374 25.8642 18.8688 25.8862 18.8855L28.7434 21.0587C28.7654 21.0754 28.7968 21.0711 28.8135 21.0492L35.7486 11.9534Z" fill="white" stroke="white" stroke-width="0.1" stroke-linecap="round" stroke-linejoin="round"/>
</g>
<path d="M7.50546 17.3089L7.50428 17.3087L7.50473 17.3197C7.51298 17.523 7.68045 17.6836 7.88411 17.6836H31.9382C32.0416 17.6836 32.1405 17.6415 32.2121 17.567C32.2837 17.4925 32.3218 17.3921 32.3176 17.2889L32.1198 12.4155C32.1115 12.2121 31.9441 12.0516 31.7404 12.0516H8.74879C8.64544 12.0516 8.54655 12.0936 8.47495 12.1681C8.40464 12.2412 8.36662 12.3394 8.36923 12.4406L7.50546 17.3089ZM31.5428 16.925H8.26238L9.13265 12.8101H31.3758L31.5428 16.925Z" fill="white" stroke="white" stroke-width="0.1" stroke-linecap="round" stroke-linejoin="round"/>
</svg>
