<svg width="16" height="13" viewBox="0 0 16 13" fill="none" xmlns="http://www.w3.org/2000/svg">
<mask id="path-1-outside-1_758_127" maskUnits="userSpaceOnUse" x="0" y="0" width="16" height="8" fill="black">
<rect fill="white" width="16" height="8"/>
<path d="M12.4908 3.63464C12.0966 3.63464 11.7069 3.73322 11.3578 3.9163C10.8195 2.19938 9.2653 1 7.49377 1C6.61644 1 5.78192 1.28635 5.07916 1.82853C4.46987 2.29796 4.00587 2.92229 3.72544 3.64521C3.65337 3.63934 3.58129 3.63582 3.50921 3.63582C2.12622 3.63464 1 4.80821 1 6.25051C1 6.63896 1.07996 7.01098 1.23651 7.35835V7.35953C1.23876 7.36422 1.24101 7.36891 1.24214 7.37361C1.24214 7.37596 1.24439 7.3783 1.24552 7.38065C1.24777 7.38534 1.25002 7.39004 1.25227 7.39473C1.25565 7.40177 1.25903 7.40764 1.26353 7.41351C1.26579 7.41703 1.26804 7.42055 1.27029 7.42407C1.2748 7.43111 1.2793 7.43815 1.28493 7.44402C1.28719 7.44637 1.28831 7.44872 1.29056 7.45106C1.29507 7.45693 1.3007 7.4628 1.30633 7.46867C1.30858 7.47101 1.30971 7.47219 1.31196 7.47453C1.31872 7.48158 1.3266 7.48862 1.33449 7.49566L1.33787 7.49801C1.34462 7.50387 1.35138 7.50857 1.35814 7.51444C1.36152 7.51678 1.36377 7.51913 1.36715 7.5203C1.37278 7.52382 1.37728 7.52735 1.38291 7.53087C1.38629 7.53321 1.38967 7.53556 1.39305 7.53673C1.40093 7.54143 1.40882 7.54495 1.4167 7.54847C1.42121 7.55082 1.42571 7.55199 1.43021 7.55434C1.43472 7.55668 1.43922 7.55786 1.44486 7.5602C1.44936 7.56138 1.45387 7.56373 1.45837 7.5649C1.46625 7.56725 1.47301 7.56959 1.48089 7.57077C1.4854 7.57077 1.48878 7.57194 1.49328 7.57311C1.50004 7.57429 1.50792 7.57546 1.51468 7.57663C1.51806 7.57663 1.52144 7.57663 1.52482 7.57663C1.53495 7.57663 1.54509 7.57781 1.55635 7.57781H14.4448C14.4549 7.57781 14.465 7.57781 14.4763 7.57663C14.4797 7.57663 14.4831 7.57663 14.4864 7.57663C14.4932 7.57663 14.5011 7.57429 14.5078 7.57311C14.5123 7.57311 14.518 7.57077 14.5225 7.56959C14.5292 7.56842 14.536 7.56607 14.5428 7.56373C14.5473 7.56255 14.5529 7.5602 14.5574 7.55903C14.5619 7.55786 14.5664 7.55551 14.5698 7.55434C14.5743 7.55199 14.5799 7.55082 14.5844 7.54847C14.5923 7.54495 14.5991 7.54143 14.607 7.53673C14.6103 7.53439 14.6148 7.53204 14.6182 7.52969C14.6227 7.52735 14.6283 7.52382 14.6329 7.5203C14.6362 7.51796 14.6396 7.51561 14.643 7.51326C14.6486 7.50857 14.6554 7.50387 14.661 7.49918C14.6633 7.49801 14.6644 7.49683 14.6666 7.49449C14.6745 7.48862 14.6813 7.48158 14.688 7.47453C14.6903 7.47219 14.6925 7.46984 14.6948 7.46749C14.6993 7.4628 14.7038 7.45693 14.7083 7.45224C14.7106 7.44989 14.7128 7.44637 14.7151 7.44402C14.7196 7.43815 14.7229 7.43229 14.7275 7.42759C14.732 7.42172 14.7353 7.41586 14.7387 7.40999C14.741 7.40529 14.7443 7.4006 14.7466 7.39708C14.75 7.39121 14.7522 7.38652 14.7545 7.38065C14.7545 7.3783 14.7567 7.37713 14.7567 7.37478C14.7579 7.37126 14.7601 7.36774 14.7612 7.36422L14.7635 7.35953C14.92 7.01215 15 6.64013 15 6.25168C15 4.80938 14.2128 3.49029 12.4908 3.63699V3.63464ZM14.2128 6.85842H1.78723C1.72416 6.6636 1.6915 6.46058 1.6915 6.25051C1.6915 5.20604 2.50688 4.35638 3.50921 4.35638C3.63535 4.35638 3.76036 4.36929 3.88199 4.39629H3.88649C3.89663 4.39863 3.90564 4.39981 3.91578 4.40098C3.91803 4.40098 3.92141 4.40098 3.92366 4.40098C3.93267 4.40098 3.94168 4.40215 3.95069 4.40215C3.95519 4.40215 3.9597 4.40215 3.9642 4.40215C3.97096 4.40215 3.97772 4.40215 3.98447 4.40215C3.99011 4.40215 3.99574 4.40098 4.00137 4.39981C4.007 4.39981 4.01263 4.39863 4.01713 4.39746C4.02389 4.39629 4.02952 4.39394 4.03515 4.39276C4.03966 4.39159 4.04416 4.39042 4.04867 4.38924C4.0543 4.3869 4.06106 4.38455 4.06669 4.38338C4.07119 4.3822 4.0757 4.37986 4.0802 4.37868C4.08583 4.37633 4.09146 4.37399 4.09597 4.37164C4.10047 4.36929 4.10498 4.36695 4.11061 4.3646C4.11512 4.36225 4.11962 4.35873 4.12413 4.35638C4.12976 4.35286 4.13426 4.35052 4.13877 4.347C4.14214 4.34465 4.14665 4.34113 4.15003 4.33878C4.15566 4.33526 4.16016 4.33057 4.1658 4.32704C4.16917 4.3247 4.17255 4.32118 4.17593 4.31883C4.18156 4.31414 4.18607 4.30944 4.1917 4.30475C4.19508 4.30123 4.19733 4.29771 4.20071 4.29536C4.20521 4.29066 4.20972 4.2848 4.21422 4.2801C4.2176 4.27658 4.22098 4.27189 4.22323 4.26719C4.22661 4.2625 4.23112 4.2578 4.23449 4.25194C4.23787 4.24607 4.24125 4.2402 4.24576 4.23433C4.24801 4.23081 4.25026 4.22612 4.25251 4.2226C4.25702 4.21438 4.2604 4.20617 4.26378 4.19795C4.2649 4.19561 4.26603 4.19326 4.26715 4.18974C4.27053 4.18035 4.27391 4.17096 4.27729 4.16157C4.27729 4.15923 4.27842 4.15805 4.27954 4.1557V4.15453C4.73116 2.69932 6.0218 1.72174 7.49039 1.72174C9.09637 1.72174 10.4872 2.90938 10.7992 4.54767C10.7992 4.55002 10.8003 4.55354 10.8003 4.55354C10.8003 4.55824 10.8026 4.56293 10.8037 4.56762C10.8048 4.57467 10.8071 4.58053 10.8082 4.5864C10.8093 4.5911 10.8105 4.59579 10.8127 4.60048C10.815 4.60635 10.8172 4.61339 10.8195 4.61926C10.8206 4.62396 10.8229 4.62748 10.8251 4.63217C10.8274 4.63804 10.8307 4.64391 10.833 4.64977C10.8353 4.65329 10.8364 4.65799 10.8386 4.66151C10.842 4.66738 10.8454 4.67325 10.8488 4.67911C10.851 4.68263 10.8533 4.68615 10.8555 4.68968C10.86 4.69672 10.8645 4.70376 10.8702 4.70963C10.8713 4.71197 10.8747 4.71549 10.8747 4.71549C10.8814 4.72371 10.8882 4.73192 10.8961 4.74014C10.8983 4.74249 10.9006 4.74366 10.9028 4.74601C10.9085 4.75187 10.9141 4.75657 10.9197 4.76244C10.9231 4.76478 10.9265 4.76713 10.9287 4.76948C10.9344 4.77417 10.9389 4.77769 10.9445 4.78121C10.9479 4.78356 10.9513 4.78591 10.9558 4.78825C10.9614 4.79177 10.9659 4.7953 10.9715 4.79882C10.9749 4.80116 10.9794 4.80351 10.9828 4.80586C10.9884 4.80938 10.994 4.81173 10.9997 4.81407C11.0042 4.81642 11.0076 4.81759 11.0121 4.81994C11.0177 4.82229 11.0233 4.82463 11.0301 4.82698C11.0346 4.82816 11.038 4.8305 11.0425 4.83168C11.0492 4.83402 11.0549 4.8352 11.0616 4.83637C11.0661 4.83637 11.0695 4.83872 11.074 4.83989C11.0808 4.84106 11.0886 4.84224 11.0954 4.84341C11.0988 4.84341 11.1022 4.84458 11.1067 4.84458C11.1179 4.84458 11.1292 4.84693 11.1405 4.84693C11.1517 4.84693 11.163 4.84693 11.1742 4.84458C11.1776 4.84458 11.181 4.84459 11.1855 4.84341C11.1923 4.84341 11.2001 4.84106 11.2069 4.83989C11.2114 4.83989 11.2148 4.83754 11.2193 4.83754C11.226 4.83637 11.2317 4.83402 11.2384 4.83285C11.2429 4.83168 11.2463 4.8305 11.2508 4.82816C11.2565 4.82581 11.2632 4.82346 11.2688 4.82111C11.2733 4.81994 11.2767 4.81759 11.2812 4.81642C11.2869 4.81407 11.2925 4.81055 11.2981 4.8082C11.3015 4.80586 11.306 4.80468 11.3094 4.80234C11.315 4.79882 11.3218 4.7953 11.3274 4.7906C11.3308 4.78825 11.333 4.78708 11.3364 4.78473C11.3443 4.77887 11.3511 4.773 11.3589 4.76713L11.3623 4.76478C11.6855 4.49838 12.0752 4.35756 12.4885 4.35756C13.4909 4.35756 14.3063 5.20722 14.3063 6.25168C14.3063 6.46175 14.2736 6.66595 14.2105 6.85959L14.2128 6.85842Z"/>
</mask>
<path d="M12.4908 3.63464C12.0966 3.63464 11.7069 3.73322 11.3578 3.9163C10.8195 2.19938 9.2653 1 7.49377 1C6.61644 1 5.78192 1.28635 5.07916 1.82853C4.46987 2.29796 4.00587 2.92229 3.72544 3.64521C3.65337 3.63934 3.58129 3.63582 3.50921 3.63582C2.12622 3.63464 1 4.80821 1 6.25051C1 6.63896 1.07996 7.01098 1.23651 7.35835V7.35953C1.23876 7.36422 1.24101 7.36891 1.24214 7.37361C1.24214 7.37596 1.24439 7.3783 1.24552 7.38065C1.24777 7.38534 1.25002 7.39004 1.25227 7.39473C1.25565 7.40177 1.25903 7.40764 1.26353 7.41351C1.26579 7.41703 1.26804 7.42055 1.27029 7.42407C1.2748 7.43111 1.2793 7.43815 1.28493 7.44402C1.28719 7.44637 1.28831 7.44872 1.29056 7.45106C1.29507 7.45693 1.3007 7.4628 1.30633 7.46867C1.30858 7.47101 1.30971 7.47219 1.31196 7.47453C1.31872 7.48158 1.3266 7.48862 1.33449 7.49566L1.33787 7.49801C1.34462 7.50387 1.35138 7.50857 1.35814 7.51444C1.36152 7.51678 1.36377 7.51913 1.36715 7.5203C1.37278 7.52382 1.37728 7.52735 1.38291 7.53087C1.38629 7.53321 1.38967 7.53556 1.39305 7.53673C1.40093 7.54143 1.40882 7.54495 1.4167 7.54847C1.42121 7.55082 1.42571 7.55199 1.43021 7.55434C1.43472 7.55668 1.43922 7.55786 1.44486 7.5602C1.44936 7.56138 1.45387 7.56373 1.45837 7.5649C1.46625 7.56725 1.47301 7.56959 1.48089 7.57077C1.4854 7.57077 1.48878 7.57194 1.49328 7.57311C1.50004 7.57429 1.50792 7.57546 1.51468 7.57663C1.51806 7.57663 1.52144 7.57663 1.52482 7.57663C1.53495 7.57663 1.54509 7.57781 1.55635 7.57781H14.4448C14.4549 7.57781 14.465 7.57781 14.4763 7.57663C14.4797 7.57663 14.4831 7.57663 14.4864 7.57663C14.4932 7.57663 14.5011 7.57429 14.5078 7.57311C14.5123 7.57311 14.518 7.57077 14.5225 7.56959C14.5292 7.56842 14.536 7.56607 14.5428 7.56373C14.5473 7.56255 14.5529 7.5602 14.5574 7.55903C14.5619 7.55786 14.5664 7.55551 14.5698 7.55434C14.5743 7.55199 14.5799 7.55082 14.5844 7.54847C14.5923 7.54495 14.5991 7.54143 14.607 7.53673C14.6103 7.53439 14.6148 7.53204 14.6182 7.52969C14.6227 7.52735 14.6283 7.52382 14.6329 7.5203C14.6362 7.51796 14.6396 7.51561 14.643 7.51326C14.6486 7.50857 14.6554 7.50387 14.661 7.49918C14.6633 7.49801 14.6644 7.49683 14.6666 7.49449C14.6745 7.48862 14.6813 7.48158 14.688 7.47453C14.6903 7.47219 14.6925 7.46984 14.6948 7.46749C14.6993 7.4628 14.7038 7.45693 14.7083 7.45224C14.7106 7.44989 14.7128 7.44637 14.7151 7.44402C14.7196 7.43815 14.7229 7.43229 14.7275 7.42759C14.732 7.42172 14.7353 7.41586 14.7387 7.40999C14.741 7.40529 14.7443 7.4006 14.7466 7.39708C14.75 7.39121 14.7522 7.38652 14.7545 7.38065C14.7545 7.3783 14.7567 7.37713 14.7567 7.37478C14.7579 7.37126 14.7601 7.36774 14.7612 7.36422L14.7635 7.35953C14.92 7.01215 15 6.64013 15 6.25168C15 4.80938 14.2128 3.49029 12.4908 3.63699V3.63464ZM14.2128 6.85842H1.78723C1.72416 6.6636 1.6915 6.46058 1.6915 6.25051C1.6915 5.20604 2.50688 4.35638 3.50921 4.35638C3.63535 4.35638 3.76036 4.36929 3.88199 4.39629H3.88649C3.89663 4.39863 3.90564 4.39981 3.91578 4.40098C3.91803 4.40098 3.92141 4.40098 3.92366 4.40098C3.93267 4.40098 3.94168 4.40215 3.95069 4.40215C3.95519 4.40215 3.9597 4.40215 3.9642 4.40215C3.97096 4.40215 3.97772 4.40215 3.98447 4.40215C3.99011 4.40215 3.99574 4.40098 4.00137 4.39981C4.007 4.39981 4.01263 4.39863 4.01713 4.39746C4.02389 4.39629 4.02952 4.39394 4.03515 4.39276C4.03966 4.39159 4.04416 4.39042 4.04867 4.38924C4.0543 4.3869 4.06106 4.38455 4.06669 4.38338C4.07119 4.3822 4.0757 4.37986 4.0802 4.37868C4.08583 4.37633 4.09146 4.37399 4.09597 4.37164C4.10047 4.36929 4.10498 4.36695 4.11061 4.3646C4.11512 4.36225 4.11962 4.35873 4.12413 4.35638C4.12976 4.35286 4.13426 4.35052 4.13877 4.347C4.14214 4.34465 4.14665 4.34113 4.15003 4.33878C4.15566 4.33526 4.16016 4.33057 4.1658 4.32704C4.16917 4.3247 4.17255 4.32118 4.17593 4.31883C4.18156 4.31414 4.18607 4.30944 4.1917 4.30475C4.19508 4.30123 4.19733 4.29771 4.20071 4.29536C4.20521 4.29066 4.20972 4.2848 4.21422 4.2801C4.2176 4.27658 4.22098 4.27189 4.22323 4.26719C4.22661 4.2625 4.23112 4.2578 4.23449 4.25194C4.23787 4.24607 4.24125 4.2402 4.24576 4.23433C4.24801 4.23081 4.25026 4.22612 4.25251 4.2226C4.25702 4.21438 4.2604 4.20617 4.26378 4.19795C4.2649 4.19561 4.26603 4.19326 4.26715 4.18974C4.27053 4.18035 4.27391 4.17096 4.27729 4.16157C4.27729 4.15923 4.27842 4.15805 4.27954 4.1557V4.15453C4.73116 2.69932 6.0218 1.72174 7.49039 1.72174C9.09637 1.72174 10.4872 2.90938 10.7992 4.54767C10.7992 4.55002 10.8003 4.55354 10.8003 4.55354C10.8003 4.55824 10.8026 4.56293 10.8037 4.56762C10.8048 4.57467 10.8071 4.58053 10.8082 4.5864C10.8093 4.5911 10.8105 4.59579 10.8127 4.60048C10.815 4.60635 10.8172 4.61339 10.8195 4.61926C10.8206 4.62396 10.8229 4.62748 10.8251 4.63217C10.8274 4.63804 10.8307 4.64391 10.833 4.64977C10.8353 4.65329 10.8364 4.65799 10.8386 4.66151C10.842 4.66738 10.8454 4.67325 10.8488 4.67911C10.851 4.68263 10.8533 4.68615 10.8555 4.68968C10.86 4.69672 10.8645 4.70376 10.8702 4.70963C10.8713 4.71197 10.8747 4.71549 10.8747 4.71549C10.8814 4.72371 10.8882 4.73192 10.8961 4.74014C10.8983 4.74249 10.9006 4.74366 10.9028 4.74601C10.9085 4.75187 10.9141 4.75657 10.9197 4.76244C10.9231 4.76478 10.9265 4.76713 10.9287 4.76948C10.9344 4.77417 10.9389 4.77769 10.9445 4.78121C10.9479 4.78356 10.9513 4.78591 10.9558 4.78825C10.9614 4.79177 10.9659 4.7953 10.9715 4.79882C10.9749 4.80116 10.9794 4.80351 10.9828 4.80586C10.9884 4.80938 10.994 4.81173 10.9997 4.81407C11.0042 4.81642 11.0076 4.81759 11.0121 4.81994C11.0177 4.82229 11.0233 4.82463 11.0301 4.82698C11.0346 4.82816 11.038 4.8305 11.0425 4.83168C11.0492 4.83402 11.0549 4.8352 11.0616 4.83637C11.0661 4.83637 11.0695 4.83872 11.074 4.83989C11.0808 4.84106 11.0886 4.84224 11.0954 4.84341C11.0988 4.84341 11.1022 4.84458 11.1067 4.84458C11.1179 4.84458 11.1292 4.84693 11.1405 4.84693C11.1517 4.84693 11.163 4.84693 11.1742 4.84458C11.1776 4.84458 11.181 4.84459 11.1855 4.84341C11.1923 4.84341 11.2001 4.84106 11.2069 4.83989C11.2114 4.83989 11.2148 4.83754 11.2193 4.83754C11.226 4.83637 11.2317 4.83402 11.2384 4.83285C11.2429 4.83168 11.2463 4.8305 11.2508 4.82816C11.2565 4.82581 11.2632 4.82346 11.2688 4.82111C11.2733 4.81994 11.2767 4.81759 11.2812 4.81642C11.2869 4.81407 11.2925 4.81055 11.2981 4.8082C11.3015 4.80586 11.306 4.80468 11.3094 4.80234C11.315 4.79882 11.3218 4.7953 11.3274 4.7906C11.3308 4.78825 11.333 4.78708 11.3364 4.78473C11.3443 4.77887 11.3511 4.773 11.3589 4.76713L11.3623 4.76478C11.6855 4.49838 12.0752 4.35756 12.4885 4.35756C13.4909 4.35756 14.3063 5.20722 14.3063 6.25168C14.3063 6.46175 14.2736 6.66595 14.2105 6.85959L14.2128 6.85842Z" fill="#7AC0E2"/>
<path d="M12.4908 3.63464C12.0966 3.63464 11.7069 3.73322 11.3578 3.9163C10.8195 2.19938 9.2653 1 7.49377 1C6.61644 1 5.78192 1.28635 5.07916 1.82853C4.46987 2.29796 4.00587 2.92229 3.72544 3.64521C3.65337 3.63934 3.58129 3.63582 3.50921 3.63582C2.12622 3.63464 1 4.80821 1 6.25051C1 6.63896 1.07996 7.01098 1.23651 7.35835V7.35953C1.23876 7.36422 1.24101 7.36891 1.24214 7.37361C1.24214 7.37596 1.24439 7.3783 1.24552 7.38065C1.24777 7.38534 1.25002 7.39004 1.25227 7.39473C1.25565 7.40177 1.25903 7.40764 1.26353 7.41351C1.26579 7.41703 1.26804 7.42055 1.27029 7.42407C1.2748 7.43111 1.2793 7.43815 1.28493 7.44402C1.28719 7.44637 1.28831 7.44872 1.29056 7.45106C1.29507 7.45693 1.3007 7.4628 1.30633 7.46867C1.30858 7.47101 1.30971 7.47219 1.31196 7.47453C1.31872 7.48158 1.3266 7.48862 1.33449 7.49566L1.33787 7.49801C1.34462 7.50387 1.35138 7.50857 1.35814 7.51444C1.36152 7.51678 1.36377 7.51913 1.36715 7.5203C1.37278 7.52382 1.37728 7.52735 1.38291 7.53087C1.38629 7.53321 1.38967 7.53556 1.39305 7.53673C1.40093 7.54143 1.40882 7.54495 1.4167 7.54847C1.42121 7.55082 1.42571 7.55199 1.43021 7.55434C1.43472 7.55668 1.43922 7.55786 1.44486 7.5602C1.44936 7.56138 1.45387 7.56373 1.45837 7.5649C1.46625 7.56725 1.47301 7.56959 1.48089 7.57077C1.4854 7.57077 1.48878 7.57194 1.49328 7.57311C1.50004 7.57429 1.50792 7.57546 1.51468 7.57663C1.51806 7.57663 1.52144 7.57663 1.52482 7.57663C1.53495 7.57663 1.54509 7.57781 1.55635 7.57781H14.4448C14.4549 7.57781 14.465 7.57781 14.4763 7.57663C14.4797 7.57663 14.4831 7.57663 14.4864 7.57663C14.4932 7.57663 14.5011 7.57429 14.5078 7.57311C14.5123 7.57311 14.518 7.57077 14.5225 7.56959C14.5292 7.56842 14.536 7.56607 14.5428 7.56373C14.5473 7.56255 14.5529 7.5602 14.5574 7.55903C14.5619 7.55786 14.5664 7.55551 14.5698 7.55434C14.5743 7.55199 14.5799 7.55082 14.5844 7.54847C14.5923 7.54495 14.5991 7.54143 14.607 7.53673C14.6103 7.53439 14.6148 7.53204 14.6182 7.52969C14.6227 7.52735 14.6283 7.52382 14.6329 7.5203C14.6362 7.51796 14.6396 7.51561 14.643 7.51326C14.6486 7.50857 14.6554 7.50387 14.661 7.49918C14.6633 7.49801 14.6644 7.49683 14.6666 7.49449C14.6745 7.48862 14.6813 7.48158 14.688 7.47453C14.6903 7.47219 14.6925 7.46984 14.6948 7.46749C14.6993 7.4628 14.7038 7.45693 14.7083 7.45224C14.7106 7.44989 14.7128 7.44637 14.7151 7.44402C14.7196 7.43815 14.7229 7.43229 14.7275 7.42759C14.732 7.42172 14.7353 7.41586 14.7387 7.40999C14.741 7.40529 14.7443 7.4006 14.7466 7.39708C14.75 7.39121 14.7522 7.38652 14.7545 7.38065C14.7545 7.3783 14.7567 7.37713 14.7567 7.37478C14.7579 7.37126 14.7601 7.36774 14.7612 7.36422L14.7635 7.35953C14.92 7.01215 15 6.64013 15 6.25168C15 4.80938 14.2128 3.49029 12.4908 3.63699V3.63464ZM14.2128 6.85842H1.78723C1.72416 6.6636 1.6915 6.46058 1.6915 6.25051C1.6915 5.20604 2.50688 4.35638 3.50921 4.35638C3.63535 4.35638 3.76036 4.36929 3.88199 4.39629H3.88649C3.89663 4.39863 3.90564 4.39981 3.91578 4.40098C3.91803 4.40098 3.92141 4.40098 3.92366 4.40098C3.93267 4.40098 3.94168 4.40215 3.95069 4.40215C3.95519 4.40215 3.9597 4.40215 3.9642 4.40215C3.97096 4.40215 3.97772 4.40215 3.98447 4.40215C3.99011 4.40215 3.99574 4.40098 4.00137 4.39981C4.007 4.39981 4.01263 4.39863 4.01713 4.39746C4.02389 4.39629 4.02952 4.39394 4.03515 4.39276C4.03966 4.39159 4.04416 4.39042 4.04867 4.38924C4.0543 4.3869 4.06106 4.38455 4.06669 4.38338C4.07119 4.3822 4.0757 4.37986 4.0802 4.37868C4.08583 4.37633 4.09146 4.37399 4.09597 4.37164C4.10047 4.36929 4.10498 4.36695 4.11061 4.3646C4.11512 4.36225 4.11962 4.35873 4.12413 4.35638C4.12976 4.35286 4.13426 4.35052 4.13877 4.347C4.14214 4.34465 4.14665 4.34113 4.15003 4.33878C4.15566 4.33526 4.16016 4.33057 4.1658 4.32704C4.16917 4.3247 4.17255 4.32118 4.17593 4.31883C4.18156 4.31414 4.18607 4.30944 4.1917 4.30475C4.19508 4.30123 4.19733 4.29771 4.20071 4.29536C4.20521 4.29066 4.20972 4.2848 4.21422 4.2801C4.2176 4.27658 4.22098 4.27189 4.22323 4.26719C4.22661 4.2625 4.23112 4.2578 4.23449 4.25194C4.23787 4.24607 4.24125 4.2402 4.24576 4.23433C4.24801 4.23081 4.25026 4.22612 4.25251 4.2226C4.25702 4.21438 4.2604 4.20617 4.26378 4.19795C4.2649 4.19561 4.26603 4.19326 4.26715 4.18974C4.27053 4.18035 4.27391 4.17096 4.27729 4.16157C4.27729 4.15923 4.27842 4.15805 4.27954 4.1557V4.15453C4.73116 2.69932 6.0218 1.72174 7.49039 1.72174C9.09637 1.72174 10.4872 2.90938 10.7992 4.54767C10.7992 4.55002 10.8003 4.55354 10.8003 4.55354C10.8003 4.55824 10.8026 4.56293 10.8037 4.56762C10.8048 4.57467 10.8071 4.58053 10.8082 4.5864C10.8093 4.5911 10.8105 4.59579 10.8127 4.60048C10.815 4.60635 10.8172 4.61339 10.8195 4.61926C10.8206 4.62396 10.8229 4.62748 10.8251 4.63217C10.8274 4.63804 10.8307 4.64391 10.833 4.64977C10.8353 4.65329 10.8364 4.65799 10.8386 4.66151C10.842 4.66738 10.8454 4.67325 10.8488 4.67911C10.851 4.68263 10.8533 4.68615 10.8555 4.68968C10.86 4.69672 10.8645 4.70376 10.8702 4.70963C10.8713 4.71197 10.8747 4.71549 10.8747 4.71549C10.8814 4.72371 10.8882 4.73192 10.8961 4.74014C10.8983 4.74249 10.9006 4.74366 10.9028 4.74601C10.9085 4.75187 10.9141 4.75657 10.9197 4.76244C10.9231 4.76478 10.9265 4.76713 10.9287 4.76948C10.9344 4.77417 10.9389 4.77769 10.9445 4.78121C10.9479 4.78356 10.9513 4.78591 10.9558 4.78825C10.9614 4.79177 10.9659 4.7953 10.9715 4.79882C10.9749 4.80116 10.9794 4.80351 10.9828 4.80586C10.9884 4.80938 10.994 4.81173 10.9997 4.81407C11.0042 4.81642 11.0076 4.81759 11.0121 4.81994C11.0177 4.82229 11.0233 4.82463 11.0301 4.82698C11.0346 4.82816 11.038 4.8305 11.0425 4.83168C11.0492 4.83402 11.0549 4.8352 11.0616 4.83637C11.0661 4.83637 11.0695 4.83872 11.074 4.83989C11.0808 4.84106 11.0886 4.84224 11.0954 4.84341C11.0988 4.84341 11.1022 4.84458 11.1067 4.84458C11.1179 4.84458 11.1292 4.84693 11.1405 4.84693C11.1517 4.84693 11.163 4.84693 11.1742 4.84458C11.1776 4.84458 11.181 4.84459 11.1855 4.84341C11.1923 4.84341 11.2001 4.84106 11.2069 4.83989C11.2114 4.83989 11.2148 4.83754 11.2193 4.83754C11.226 4.83637 11.2317 4.83402 11.2384 4.83285C11.2429 4.83168 11.2463 4.8305 11.2508 4.82816C11.2565 4.82581 11.2632 4.82346 11.2688 4.82111C11.2733 4.81994 11.2767 4.81759 11.2812 4.81642C11.2869 4.81407 11.2925 4.81055 11.2981 4.8082C11.3015 4.80586 11.306 4.80468 11.3094 4.80234C11.315 4.79882 11.3218 4.7953 11.3274 4.7906C11.3308 4.78825 11.333 4.78708 11.3364 4.78473C11.3443 4.77887 11.3511 4.773 11.3589 4.76713L11.3623 4.76478C11.6855 4.49838 12.0752 4.35756 12.4885 4.35756C13.4909 4.35756 14.3063 5.20722 14.3063 6.25168C14.3063 6.46175 14.2736 6.66595 14.2105 6.85959L14.2128 6.85842Z" stroke="#7AC0E2" stroke-width="0.8" mask="url(#path-1-outside-1_758_127)"/>
<path fill-rule="evenodd" clip-rule="evenodd" d="M12.0863 11.6888C11.931 12.0421 11.9957 12.4387 12.1966 12.7031L12.4324 12.914C12.542 12.9763 12.6565 13.0032 12.7652 13.0032C13.0323 13.0032 13.3048 12.8359 13.4453 12.5164L14.603 9.88374C14.8085 9.41608 14.6287 8.87267 14.2579 8.66037L14.257 8.65984C13.8946 8.45371 13.441 8.61099 13.2446 9.0549L12.0863 11.6888Z" fill="#7AC0E2"/>
<path fill-rule="evenodd" clip-rule="evenodd" d="M7.08634 11.6888C6.93104 12.0421 6.99574 12.4387 7.19659 12.7031L7.43235 12.914C7.54195 12.9763 7.65648 13.0032 7.76523 13.0032C8.03234 13.0032 8.30479 12.8359 8.44528 12.5164L9.60296 9.88374C9.80851 9.41608 9.62868 8.87267 9.2579 8.66037L9.25695 8.65984C8.89456 8.45371 8.44096 8.61099 8.24456 9.0549L7.08634 11.6888Z" fill="#7AC0E2"/>
<path fill-rule="evenodd" clip-rule="evenodd" d="M2.08634 11.6888C1.93104 12.0421 1.99574 12.4387 2.19659 12.7031L2.43235 12.914C2.54195 12.9763 2.65648 13.0032 2.76523 13.0032C3.03234 13.0032 3.30479 12.8359 3.44528 12.5164L4.60296 9.88374C4.80851 9.41608 4.62868 8.87267 4.2579 8.66037L4.25695 8.65984C3.89456 8.45371 3.44096 8.61099 3.24456 9.0549L2.08634 11.6888Z" fill="#7AC0E2"/>
</svg>
