<svg width="48" height="48" viewBox="0 0 48 48" fill="none" xmlns="http://www.w3.org/2000/svg">
<mask id="path-2-outside-1_1031_835" maskUnits="userSpaceOnUse" x="10" y="12" width="28" height="24" fill="black">
<rect fill="#ED6C00" x="10" y="12" width="28" height="24"/>
<path d="M15.2329 35C12.9048 35 11 33.0608 11 30.6535C11 28.5471 12.449 26.8085 14.3701 26.3906L15.1841 26.307L15.1515 26.1231C15.1515 25.7052 15.412 25.3875 15.6888 25.1869L15.7539 25.1368L15.6725 25.0866C15.412 24.886 15.1515 24.5851 15.1515 24.1505C15.1515 23.9331 15.2167 23.7492 15.3143 23.5988L15.6399 23.2477L15.3143 22.8967C15.2167 22.7462 15.1515 22.5623 15.1515 22.345C15.1515 21.9271 15.412 21.6094 15.6725 21.4088C15.9493 21.2082 16.3075 21.041 16.6982 20.9073C17.4959 20.6398 18.5704 20.4894 19.7426 20.4894C20.0357 20.4894 20.3125 20.4894 20.6055 20.5228L20.9474 20.5562L21.0939 20.0547C21.1916 19.9043 21.3219 19.7705 21.4521 19.6702L21.5172 19.6201L21.4521 19.5699C21.1916 19.3693 20.9148 19.0517 20.9148 18.6337C20.9148 18.2158 21.1753 17.8982 21.4521 17.6976L21.5335 17.6474L21.4521 17.5973C21.1916 17.3967 20.9148 17.079 20.9148 16.6611C20.9148 16.4438 20.98 16.2599 21.0776 16.1094L21.4033 15.7584L21.0776 15.4073C20.98 15.2568 20.9148 15.0729 20.9148 14.8556C20.9148 14.4377 21.1753 14.1201 21.4521 13.9195C21.7126 13.7188 22.087 13.5517 22.4778 13.4179C23.2755 13.1505 24.3663 13 25.5222 13C26.6781 13 27.7689 13.1505 28.5667 13.4179C28.9574 13.5517 29.3319 13.7188 29.5924 13.9195C29.8528 14.1201 30.1133 14.4377 30.1133 14.8556C30.1133 15.0729 30.0482 15.2568 29.9505 15.4073L29.6249 15.7584L29.9505 16.1094C30.0482 16.2599 30.1133 16.4438 30.1133 16.6611C30.1133 17.079 29.8528 17.3967 29.5924 17.5973L29.511 17.6474L29.5924 17.6976C29.8528 17.8982 30.1133 18.2158 30.1133 18.6337C30.1133 19.0517 29.8528 19.3693 29.5924 19.5699L29.5272 19.6201L29.5924 19.6702C29.8528 19.8708 30.1133 20.1717 30.1133 20.6064C30.1133 21.041 29.8528 21.3419 29.5924 21.5426L29.4784 21.6261L29.5924 21.7097C29.8528 21.9103 30.1133 22.2112 30.1133 22.6459C30.1133 22.8632 30.0482 23.0471 29.9505 23.1976L29.6412 23.5152L29.9505 23.8328C30.0482 23.9833 30.1133 24.1672 30.1133 24.3845C30.1133 24.8191 29.8528 25.1201 29.5924 25.3207L29.4784 25.3875L29.5924 25.4544C29.7226 25.5547 29.8528 25.6885 29.9505 25.8389L30.0808 26.2568L31.139 26.0897C31.546 26.0562 31.9693 26.0228 32.4089 26.0228C33.5811 26.0228 34.6556 26.1733 35.4534 26.4407C35.8441 26.5745 36.2185 26.7249 36.479 26.9422C36.7395 27.1429 37 27.4438 37 27.8784C37 28.0957 36.9349 28.2796 36.8372 28.4301L36.5116 28.7812L36.8372 29.1322C36.9349 29.2827 37 29.4666 37 29.6839C37 30.1018 36.7395 30.4195 36.479 30.6201L36.3976 30.6702L36.479 30.7204C36.7395 30.921 37 31.2386 37 31.6565C37 32.0745 36.7395 32.3921 36.479 32.5927C36.2023 32.7933 35.8441 32.9605 35.4534 33.0942C34.6556 33.345 33.5811 33.5122 32.4089 33.5122C31.2367 33.5122 30.1622 33.3617 29.3644 33.0942C28.9737 32.9605 28.5992 32.7933 28.3388 32.5927C28.2085 32.4924 28.0783 32.3587 27.9806 32.2082L27.8666 31.8237L27.655 31.8739C27.02 31.9909 26.2874 32.0578 25.5222 32.0578C25.2292 32.0578 24.9524 32.0578 24.6594 32.0243L24.2849 31.9909L24.1547 32.4088C24.057 32.5593 23.9267 32.693 23.7965 32.7933C23.5197 32.9939 23.1616 33.1611 22.7708 33.2948C21.9731 33.5623 20.8986 33.7128 19.7264 33.7128C19.4333 33.7128 19.1403 33.7128 18.8635 33.6793L18.2774 33.6292L18.196 33.7295C17.4308 34.5152 16.3726 35 15.2004 35H15.2329ZM15.2329 33.9468C17.0075 33.9468 18.4402 32.459 18.4402 30.6535C18.4402 28.848 17.0075 27.3602 15.2329 27.3602C13.4584 27.3602 12.0257 28.8313 12.0257 30.6535C12.0257 32.4757 13.4584 33.9468 15.2329 33.9468ZM19.7589 32.6596C20.8497 32.6596 21.8265 32.5091 22.4941 32.2918C22.8359 32.1748 23.0802 32.0578 23.2267 31.9407L23.3244 31.8404L23.2267 31.7401C23.2267 31.7401 23.0639 31.6231 22.9336 31.573L22.8034 31.5228C21.9894 31.7903 20.9148 31.9407 19.7426 31.9407H19.2705L18.9937 32.6261H19.7589V32.6596ZM32.4252 32.459C33.516 32.459 34.4928 32.3085 35.1603 32.0912C35.5022 31.9742 35.7464 31.8571 35.8929 31.7401L35.9906 31.6398L35.8929 31.5395C35.8929 31.5395 35.7301 31.4225 35.5999 31.3723L35.1766 31.2052H35.1115L33.8904 31.4392C33.4346 31.4894 32.9299 31.5228 32.4252 31.5228C31.9205 31.5228 31.4158 31.4894 30.9599 31.4392L29.7063 31.2052H29.69C29.3482 31.3222 29.1039 31.4392 28.9737 31.5562L28.876 31.6565L28.9737 31.7568C29.1202 31.8739 29.3482 31.9909 29.7063 32.0912C30.3901 32.3085 31.3507 32.459 32.4415 32.459H32.4252ZM25.5385 31.0046C26.6293 31.0046 27.6061 30.8541 28.2736 30.6368L28.355 30.6033L27.9969 30.2188L27.8666 29.7842L27.6713 29.8343C27.0363 29.9514 26.3037 30.0182 25.5385 30.0182C25.2455 30.0182 24.9687 30.0182 24.6756 29.9848L24.3175 29.9514V30.0851C24.3338 30.3024 24.2686 30.4863 24.1709 30.6368L23.943 30.8708L24.1709 30.9043C24.5942 30.9544 25.0338 30.9878 25.5222 30.9878L25.5385 31.0046ZM19.7589 30.921C20.8497 30.921 21.8103 30.7705 22.4941 30.5532C22.8359 30.4362 23.0802 30.3191 23.2267 30.2188L23.3244 30.1185L23.2267 30.0182C23.0802 29.9012 22.8359 29.7842 22.4941 29.6839L22.3964 29.6505L22.1522 29.7173C21.4521 29.8678 20.6381 29.9514 19.7589 29.9514H19.4008L19.4659 30.6702V30.921H19.7589ZM32.4252 30.4863C33.516 30.4863 34.4928 30.3359 35.1603 30.1185C35.5022 30.0015 35.7464 29.8845 35.8929 29.7675L35.9906 29.6672L35.8929 29.5669L35.4045 29.3161L34.0858 29.6003C33.5648 29.6672 33.0113 29.7173 32.4252 29.7173C31.8391 29.7173 31.2855 29.6839 30.7646 29.6003L29.4458 29.3161L28.9574 29.5669L28.8597 29.6672L28.9574 29.7675C29.1039 29.8845 29.3319 30.0015 29.69 30.1018C30.3738 30.3192 31.3344 30.4696 32.4252 30.4696V30.4863ZM25.5385 28.9818C26.092 28.9818 26.5967 28.9483 27.0689 28.8815L28.1922 28.6307L27.9969 28.4301L27.8666 28.0122L27.6713 28.0456C27.0363 28.1626 26.3037 28.2295 25.5385 28.2295C25.2455 28.2295 24.9687 28.2295 24.6756 28.196L24.3175 28.1626L24.1709 28.6307L23.9593 28.8647L25.5222 28.9818H25.5385ZM19.7589 28.8982C20.8497 28.8982 21.8103 28.7477 22.4941 28.5304C22.8359 28.4134 23.0802 28.2964 23.2267 28.196L23.3244 28.0957L23.2267 27.9954C23.2267 27.9954 23.0639 27.8784 22.9336 27.8283L22.5103 27.6611H22.4452L21.2242 27.8951C20.7683 27.9453 20.2636 27.9787 19.7589 27.9787L18.489 27.8951L18.7495 28.2295L19.0914 28.8815H19.7589V28.8982ZM32.4252 28.6809C33.516 28.6809 34.4928 28.5304 35.1603 28.3131C35.5022 28.196 35.7464 28.079 35.8929 27.9787L35.9906 27.8784L35.8929 27.7781C35.7464 27.6611 35.5185 27.5441 35.1603 27.4438C34.4765 27.2264 33.516 27.076 32.4252 27.076C31.3344 27.076 30.3575 27.2264 29.69 27.4438C29.3482 27.5608 29.1039 27.6778 28.9574 27.7781L28.8597 27.8784L28.9574 27.9787C29.1039 28.079 29.3319 28.2128 29.69 28.3131C30.3738 28.5304 31.3344 28.6809 32.4252 28.6809ZM25.5385 27.193C26.6293 27.193 27.6061 27.0426 28.2736 26.8252C28.6155 26.7082 28.8597 26.5912 29.0063 26.4909L29.1039 26.3906L29.0063 26.2903C28.8597 26.1733 28.6155 26.0562 28.2736 25.9559L28.176 25.9225L27.9317 25.9726C27.2317 26.1231 26.4177 26.2067 25.5385 26.2067C25.2455 26.2067 24.9687 26.2067 24.6756 26.1733L24.3337 26.1398L24.1709 26.6581C24.0733 26.8085 23.943 26.9423 23.8128 27.0426L24.1872 27.1094C24.6105 27.1596 25.0501 27.193 25.5385 27.193ZM19.7589 26.9255C20.8497 26.9255 21.8265 26.7751 22.4941 26.5578C22.8359 26.4407 23.0802 26.3237 23.2267 26.2234L23.3244 26.1231L23.2267 26.0228C23.0802 25.9225 22.8359 25.7888 22.5103 25.6884H22.4778L22.1684 25.7553C21.4684 25.9058 20.6544 25.9894 19.7752 25.9894C18.8961 25.9894 18.0657 25.9058 17.382 25.7553L17.0726 25.6717H17.0401C16.6982 25.7888 16.454 25.9058 16.3237 26.0228L16.226 26.1231L16.3237 26.2234C16.4703 26.3404 16.7145 26.4574 17.0564 26.5578C17.7401 26.7751 18.7007 26.9255 19.7915 26.9255H19.7589ZM25.5385 25.1702C26.6293 25.1702 27.6061 25.0198 28.2736 24.8024C28.6155 24.6854 28.8597 24.5684 29.0063 24.4681L29.1039 24.3678L29.0063 24.2675C28.9086 24.2006 28.7946 24.117 28.6155 24.0502H28.583C27.7852 24.3009 26.7107 24.4681 25.5385 24.4681C25.2455 24.4681 24.9687 24.4681 24.6756 24.4347L24.3175 24.4012V24.4347C24.2686 24.5684 24.1872 24.7021 24.1058 24.8024L23.8616 25.0365L24.0081 25.0699C24.464 25.1368 24.985 25.1702 25.5222 25.1702H25.5385ZM19.7589 24.9529C20.8497 24.9529 21.8265 24.8024 22.4941 24.5851C22.8359 24.4681 23.0802 24.3511 23.2267 24.2508L23.3244 24.1505L23.2267 24.0502L22.7383 23.7994L21.4195 24.0836C20.8986 24.1505 20.345 24.2006 19.7589 24.2006C19.1728 24.2006 18.6193 24.1672 18.0983 24.0836L16.7796 23.7994L16.2912 24.0502L16.1935 24.1505L16.2912 24.2508C16.4377 24.3678 16.6819 24.4848 17.0238 24.5851C17.7076 24.8024 18.6681 24.9529 19.7589 24.9529ZM25.5385 23.4316C26.6293 23.4316 27.6061 23.2812 28.2736 23.0638C28.6155 22.9468 28.8597 22.8298 29.0063 22.7295L29.1039 22.6292L29.0063 22.5289C28.8597 22.4119 28.6155 22.2948 28.2736 22.1945L28.1597 22.1611L27.9317 22.228C27.2317 22.3784 26.4177 22.462 25.5385 22.462C25.2455 22.462 24.9687 22.462 24.6756 22.4286L24.3337 22.3951L24.1872 22.8967L23.8616 23.2477L23.943 23.3146L24.1058 23.348C24.5454 23.3982 25.0338 23.4316 25.5385 23.4316ZM19.7589 23.1474C20.8497 23.1474 21.8265 22.997 22.4941 22.7796C22.8359 22.6626 23.0802 22.5456 23.2267 22.4286L23.3244 22.3283L23.2267 22.228C23.0802 22.1109 22.8359 21.9939 22.4941 21.8936C21.8103 21.6763 20.8497 21.5258 19.7589 21.5258C18.6681 21.5258 17.6913 21.6763 17.0238 21.8936C16.6819 22.0106 16.4377 22.1277 16.2912 22.228L16.1935 22.3283L16.2912 22.4286C16.4377 22.5456 16.6819 22.6626 17.0238 22.7796C17.7076 22.997 18.6681 23.1474 19.7589 23.1474ZM25.5385 21.4088C26.6293 21.4088 27.6061 21.2584 28.2736 21.041C28.6155 20.924 28.8597 20.807 29.0063 20.7067L29.1039 20.6064L29.0063 20.5061C29.0063 20.5061 28.8435 20.3891 28.7132 20.3389L28.2899 20.1717H28.2248L27.0038 20.4058C26.5479 20.4559 26.0432 20.4894 25.5385 20.4894C25.0338 20.4894 24.5291 20.4559 24.0733 20.4058L22.8197 20.1717H22.7545L22.3475 20.3389C22.2336 20.4058 22.1196 20.4559 22.0545 20.5061L21.9568 20.6064L22.0545 20.7067L22.1033 20.7401H22.1196C22.3475 20.7903 22.5755 20.8571 22.7708 20.924C22.9662 20.9909 23.1616 21.0578 23.3406 21.1413L23.5034 21.2249L23.9919 21.3085C24.4477 21.3754 24.9687 21.4088 25.5059 21.4088H25.5385ZM25.5385 19.4362C26.6293 19.4362 27.6061 19.2857 28.2736 19.0684C28.6155 18.9514 28.8597 18.8343 29.0063 18.7173L29.1039 18.617L29.0063 18.5167C29.0063 18.5167 28.8435 18.3997 28.7132 18.3495L28.2899 18.1824H28.2248L27.0038 18.4164C26.5479 18.4666 26.0432 18.5 25.5385 18.5C25.0338 18.5 24.5291 18.4666 24.0733 18.4164L22.8197 18.1824H22.8034C22.4615 18.2994 22.2173 18.4164 22.087 18.5334L21.9894 18.6337L22.087 18.734C22.2336 18.8511 22.4778 18.9681 22.8197 19.0851C23.5034 19.3024 24.464 19.4529 25.5548 19.4529L25.5385 19.4362ZM25.5385 17.4635C26.6293 17.4635 27.6061 17.3131 28.2736 17.0957C28.6155 16.9787 28.8597 16.8617 29.0063 16.7614L29.1039 16.6611L29.0063 16.5608L28.5178 16.31L27.1991 16.5942C26.6781 16.6611 26.1246 16.6945 25.5385 16.6945C24.9524 16.6945 24.3989 16.6611 23.8779 16.5942L22.5592 16.31L22.0708 16.5608L21.9731 16.6611L22.0708 16.7614C22.2173 16.8784 22.4615 16.9954 22.8034 17.0957C23.4872 17.3131 24.4477 17.4635 25.5385 17.4635ZM25.5385 15.6748C26.6293 15.6748 27.6061 15.5243 28.2736 15.307C28.6155 15.19 28.8597 15.0729 29.0063 14.9726L29.1039 14.8723L29.0063 14.772C28.8597 14.655 28.6155 14.538 28.2736 14.4377C27.5899 14.2204 26.6293 14.0699 25.5385 14.0699C24.4477 14.0699 23.4872 14.2204 22.8034 14.4377C22.4615 14.5547 22.2173 14.6717 22.0708 14.772L21.9731 14.8723L22.0708 14.9726C22.2173 15.0897 22.4615 15.2067 22.8034 15.307C23.4872 15.5243 24.4477 15.6748 25.5385 15.6748Z"/>
</mask>
<path d="M15.2329 35C12.9048 35 11 33.0608 11 30.6535C11 28.5471 12.449 26.8085 14.3701 26.3906L15.1841 26.307L15.1515 26.1231C15.1515 25.7052 15.412 25.3875 15.6888 25.1869L15.7539 25.1368L15.6725 25.0866C15.412 24.886 15.1515 24.5851 15.1515 24.1505C15.1515 23.9331 15.2167 23.7492 15.3143 23.5988L15.6399 23.2477L15.3143 22.8967C15.2167 22.7462 15.1515 22.5623 15.1515 22.345C15.1515 21.9271 15.412 21.6094 15.6725 21.4088C15.9493 21.2082 16.3075 21.041 16.6982 20.9073C17.4959 20.6398 18.5704 20.4894 19.7426 20.4894C20.0357 20.4894 20.3125 20.4894 20.6055 20.5228L20.9474 20.5562L21.0939 20.0547C21.1916 19.9043 21.3219 19.7705 21.4521 19.6702L21.5172 19.6201L21.4521 19.5699C21.1916 19.3693 20.9148 19.0517 20.9148 18.6337C20.9148 18.2158 21.1753 17.8982 21.4521 17.6976L21.5335 17.6474L21.4521 17.5973C21.1916 17.3967 20.9148 17.079 20.9148 16.6611C20.9148 16.4438 20.98 16.2599 21.0776 16.1094L21.4033 15.7584L21.0776 15.4073C20.98 15.2568 20.9148 15.0729 20.9148 14.8556C20.9148 14.4377 21.1753 14.1201 21.4521 13.9195C21.7126 13.7188 22.087 13.5517 22.4778 13.4179C23.2755 13.1505 24.3663 13 25.5222 13C26.6781 13 27.7689 13.1505 28.5667 13.4179C28.9574 13.5517 29.3319 13.7188 29.5924 13.9195C29.8528 14.1201 30.1133 14.4377 30.1133 14.8556C30.1133 15.0729 30.0482 15.2568 29.9505 15.4073L29.6249 15.7584L29.9505 16.1094C30.0482 16.2599 30.1133 16.4438 30.1133 16.6611C30.1133 17.079 29.8528 17.3967 29.5924 17.5973L29.511 17.6474L29.5924 17.6976C29.8528 17.8982 30.1133 18.2158 30.1133 18.6337C30.1133 19.0517 29.8528 19.3693 29.5924 19.5699L29.5272 19.6201L29.5924 19.6702C29.8528 19.8708 30.1133 20.1717 30.1133 20.6064C30.1133 21.041 29.8528 21.3419 29.5924 21.5426L29.4784 21.6261L29.5924 21.7097C29.8528 21.9103 30.1133 22.2112 30.1133 22.6459C30.1133 22.8632 30.0482 23.0471 29.9505 23.1976L29.6412 23.5152L29.9505 23.8328C30.0482 23.9833 30.1133 24.1672 30.1133 24.3845C30.1133 24.8191 29.8528 25.1201 29.5924 25.3207L29.4784 25.3875L29.5924 25.4544C29.7226 25.5547 29.8528 25.6885 29.9505 25.8389L30.0808 26.2568L31.139 26.0897C31.546 26.0562 31.9693 26.0228 32.4089 26.0228C33.5811 26.0228 34.6556 26.1733 35.4534 26.4407C35.8441 26.5745 36.2185 26.7249 36.479 26.9422C36.7395 27.1429 37 27.4438 37 27.8784C37 28.0957 36.9349 28.2796 36.8372 28.4301L36.5116 28.7812L36.8372 29.1322C36.9349 29.2827 37 29.4666 37 29.6839C37 30.1018 36.7395 30.4195 36.479 30.6201L36.3976 30.6702L36.479 30.7204C36.7395 30.921 37 31.2386 37 31.6565C37 32.0745 36.7395 32.3921 36.479 32.5927C36.2023 32.7933 35.8441 32.9605 35.4534 33.0942C34.6556 33.345 33.5811 33.5122 32.4089 33.5122C31.2367 33.5122 30.1622 33.3617 29.3644 33.0942C28.9737 32.9605 28.5992 32.7933 28.3388 32.5927C28.2085 32.4924 28.0783 32.3587 27.9806 32.2082L27.8666 31.8237L27.655 31.8739C27.02 31.9909 26.2874 32.0578 25.5222 32.0578C25.2292 32.0578 24.9524 32.0578 24.6594 32.0243L24.2849 31.9909L24.1547 32.4088C24.057 32.5593 23.9267 32.693 23.7965 32.7933C23.5197 32.9939 23.1616 33.1611 22.7708 33.2948C21.9731 33.5623 20.8986 33.7128 19.7264 33.7128C19.4333 33.7128 19.1403 33.7128 18.8635 33.6793L18.2774 33.6292L18.196 33.7295C17.4308 34.5152 16.3726 35 15.2004 35H15.2329ZM15.2329 33.9468C17.0075 33.9468 18.4402 32.459 18.4402 30.6535C18.4402 28.848 17.0075 27.3602 15.2329 27.3602C13.4584 27.3602 12.0257 28.8313 12.0257 30.6535C12.0257 32.4757 13.4584 33.9468 15.2329 33.9468ZM19.7589 32.6596C20.8497 32.6596 21.8265 32.5091 22.4941 32.2918C22.8359 32.1748 23.0802 32.0578 23.2267 31.9407L23.3244 31.8404L23.2267 31.7401C23.2267 31.7401 23.0639 31.6231 22.9336 31.573L22.8034 31.5228C21.9894 31.7903 20.9148 31.9407 19.7426 31.9407H19.2705L18.9937 32.6261H19.7589V32.6596ZM32.4252 32.459C33.516 32.459 34.4928 32.3085 35.1603 32.0912C35.5022 31.9742 35.7464 31.8571 35.8929 31.7401L35.9906 31.6398L35.8929 31.5395C35.8929 31.5395 35.7301 31.4225 35.5999 31.3723L35.1766 31.2052H35.1115L33.8904 31.4392C33.4346 31.4894 32.9299 31.5228 32.4252 31.5228C31.9205 31.5228 31.4158 31.4894 30.9599 31.4392L29.7063 31.2052H29.69C29.3482 31.3222 29.1039 31.4392 28.9737 31.5562L28.876 31.6565L28.9737 31.7568C29.1202 31.8739 29.3482 31.9909 29.7063 32.0912C30.3901 32.3085 31.3507 32.459 32.4415 32.459H32.4252ZM25.5385 31.0046C26.6293 31.0046 27.6061 30.8541 28.2736 30.6368L28.355 30.6033L27.9969 30.2188L27.8666 29.7842L27.6713 29.8343C27.0363 29.9514 26.3037 30.0182 25.5385 30.0182C25.2455 30.0182 24.9687 30.0182 24.6756 29.9848L24.3175 29.9514V30.0851C24.3338 30.3024 24.2686 30.4863 24.1709 30.6368L23.943 30.8708L24.1709 30.9043C24.5942 30.9544 25.0338 30.9878 25.5222 30.9878L25.5385 31.0046ZM19.7589 30.921C20.8497 30.921 21.8103 30.7705 22.4941 30.5532C22.8359 30.4362 23.0802 30.3191 23.2267 30.2188L23.3244 30.1185L23.2267 30.0182C23.0802 29.9012 22.8359 29.7842 22.4941 29.6839L22.3964 29.6505L22.1522 29.7173C21.4521 29.8678 20.6381 29.9514 19.7589 29.9514H19.4008L19.4659 30.6702V30.921H19.7589ZM32.4252 30.4863C33.516 30.4863 34.4928 30.3359 35.1603 30.1185C35.5022 30.0015 35.7464 29.8845 35.8929 29.7675L35.9906 29.6672L35.8929 29.5669L35.4045 29.3161L34.0858 29.6003C33.5648 29.6672 33.0113 29.7173 32.4252 29.7173C31.8391 29.7173 31.2855 29.6839 30.7646 29.6003L29.4458 29.3161L28.9574 29.5669L28.8597 29.6672L28.9574 29.7675C29.1039 29.8845 29.3319 30.0015 29.69 30.1018C30.3738 30.3192 31.3344 30.4696 32.4252 30.4696V30.4863ZM25.5385 28.9818C26.092 28.9818 26.5967 28.9483 27.0689 28.8815L28.1922 28.6307L27.9969 28.4301L27.8666 28.0122L27.6713 28.0456C27.0363 28.1626 26.3037 28.2295 25.5385 28.2295C25.2455 28.2295 24.9687 28.2295 24.6756 28.196L24.3175 28.1626L24.1709 28.6307L23.9593 28.8647L25.5222 28.9818H25.5385ZM19.7589 28.8982C20.8497 28.8982 21.8103 28.7477 22.4941 28.5304C22.8359 28.4134 23.0802 28.2964 23.2267 28.196L23.3244 28.0957L23.2267 27.9954C23.2267 27.9954 23.0639 27.8784 22.9336 27.8283L22.5103 27.6611H22.4452L21.2242 27.8951C20.7683 27.9453 20.2636 27.9787 19.7589 27.9787L18.489 27.8951L18.7495 28.2295L19.0914 28.8815H19.7589V28.8982ZM32.4252 28.6809C33.516 28.6809 34.4928 28.5304 35.1603 28.3131C35.5022 28.196 35.7464 28.079 35.8929 27.9787L35.9906 27.8784L35.8929 27.7781C35.7464 27.6611 35.5185 27.5441 35.1603 27.4438C34.4765 27.2264 33.516 27.076 32.4252 27.076C31.3344 27.076 30.3575 27.2264 29.69 27.4438C29.3482 27.5608 29.1039 27.6778 28.9574 27.7781L28.8597 27.8784L28.9574 27.9787C29.1039 28.079 29.3319 28.2128 29.69 28.3131C30.3738 28.5304 31.3344 28.6809 32.4252 28.6809ZM25.5385 27.193C26.6293 27.193 27.6061 27.0426 28.2736 26.8252C28.6155 26.7082 28.8597 26.5912 29.0063 26.4909L29.1039 26.3906L29.0063 26.2903C28.8597 26.1733 28.6155 26.0562 28.2736 25.9559L28.176 25.9225L27.9317 25.9726C27.2317 26.1231 26.4177 26.2067 25.5385 26.2067C25.2455 26.2067 24.9687 26.2067 24.6756 26.1733L24.3337 26.1398L24.1709 26.6581C24.0733 26.8085 23.943 26.9423 23.8128 27.0426L24.1872 27.1094C24.6105 27.1596 25.0501 27.193 25.5385 27.193ZM19.7589 26.9255C20.8497 26.9255 21.8265 26.7751 22.4941 26.5578C22.8359 26.4407 23.0802 26.3237 23.2267 26.2234L23.3244 26.1231L23.2267 26.0228C23.0802 25.9225 22.8359 25.7888 22.5103 25.6884H22.4778L22.1684 25.7553C21.4684 25.9058 20.6544 25.9894 19.7752 25.9894C18.8961 25.9894 18.0657 25.9058 17.382 25.7553L17.0726 25.6717H17.0401C16.6982 25.7888 16.454 25.9058 16.3237 26.0228L16.226 26.1231L16.3237 26.2234C16.4703 26.3404 16.7145 26.4574 17.0564 26.5578C17.7401 26.7751 18.7007 26.9255 19.7915 26.9255H19.7589ZM25.5385 25.1702C26.6293 25.1702 27.6061 25.0198 28.2736 24.8024C28.6155 24.6854 28.8597 24.5684 29.0063 24.4681L29.1039 24.3678L29.0063 24.2675C28.9086 24.2006 28.7946 24.117 28.6155 24.0502H28.583C27.7852 24.3009 26.7107 24.4681 25.5385 24.4681C25.2455 24.4681 24.9687 24.4681 24.6756 24.4347L24.3175 24.4012V24.4347C24.2686 24.5684 24.1872 24.7021 24.1058 24.8024L23.8616 25.0365L24.0081 25.0699C24.464 25.1368 24.985 25.1702 25.5222 25.1702H25.5385ZM19.7589 24.9529C20.8497 24.9529 21.8265 24.8024 22.4941 24.5851C22.8359 24.4681 23.0802 24.3511 23.2267 24.2508L23.3244 24.1505L23.2267 24.0502L22.7383 23.7994L21.4195 24.0836C20.8986 24.1505 20.345 24.2006 19.7589 24.2006C19.1728 24.2006 18.6193 24.1672 18.0983 24.0836L16.7796 23.7994L16.2912 24.0502L16.1935 24.1505L16.2912 24.2508C16.4377 24.3678 16.6819 24.4848 17.0238 24.5851C17.7076 24.8024 18.6681 24.9529 19.7589 24.9529ZM25.5385 23.4316C26.6293 23.4316 27.6061 23.2812 28.2736 23.0638C28.6155 22.9468 28.8597 22.8298 29.0063 22.7295L29.1039 22.6292L29.0063 22.5289C28.8597 22.4119 28.6155 22.2948 28.2736 22.1945L28.1597 22.1611L27.9317 22.228C27.2317 22.3784 26.4177 22.462 25.5385 22.462C25.2455 22.462 24.9687 22.462 24.6756 22.4286L24.3337 22.3951L24.1872 22.8967L23.8616 23.2477L23.943 23.3146L24.1058 23.348C24.5454 23.3982 25.0338 23.4316 25.5385 23.4316ZM19.7589 23.1474C20.8497 23.1474 21.8265 22.997 22.4941 22.7796C22.8359 22.6626 23.0802 22.5456 23.2267 22.4286L23.3244 22.3283L23.2267 22.228C23.0802 22.1109 22.8359 21.9939 22.4941 21.8936C21.8103 21.6763 20.8497 21.5258 19.7589 21.5258C18.6681 21.5258 17.6913 21.6763 17.0238 21.8936C16.6819 22.0106 16.4377 22.1277 16.2912 22.228L16.1935 22.3283L16.2912 22.4286C16.4377 22.5456 16.6819 22.6626 17.0238 22.7796C17.7076 22.997 18.6681 23.1474 19.7589 23.1474ZM25.5385 21.4088C26.6293 21.4088 27.6061 21.2584 28.2736 21.041C28.6155 20.924 28.8597 20.807 29.0063 20.7067L29.1039 20.6064L29.0063 20.5061C29.0063 20.5061 28.8435 20.3891 28.7132 20.3389L28.2899 20.1717H28.2248L27.0038 20.4058C26.5479 20.4559 26.0432 20.4894 25.5385 20.4894C25.0338 20.4894 24.5291 20.4559 24.0733 20.4058L22.8197 20.1717H22.7545L22.3475 20.3389C22.2336 20.4058 22.1196 20.4559 22.0545 20.5061L21.9568 20.6064L22.0545 20.7067L22.1033 20.7401H22.1196C22.3475 20.7903 22.5755 20.8571 22.7708 20.924C22.9662 20.9909 23.1616 21.0578 23.3406 21.1413L23.5034 21.2249L23.9919 21.3085C24.4477 21.3754 24.9687 21.4088 25.5059 21.4088H25.5385ZM25.5385 19.4362C26.6293 19.4362 27.6061 19.2857 28.2736 19.0684C28.6155 18.9514 28.8597 18.8343 29.0063 18.7173L29.1039 18.617L29.0063 18.5167C29.0063 18.5167 28.8435 18.3997 28.7132 18.3495L28.2899 18.1824H28.2248L27.0038 18.4164C26.5479 18.4666 26.0432 18.5 25.5385 18.5C25.0338 18.5 24.5291 18.4666 24.0733 18.4164L22.8197 18.1824H22.8034C22.4615 18.2994 22.2173 18.4164 22.087 18.5334L21.9894 18.6337L22.087 18.734C22.2336 18.8511 22.4778 18.9681 22.8197 19.0851C23.5034 19.3024 24.464 19.4529 25.5548 19.4529L25.5385 19.4362ZM25.5385 17.4635C26.6293 17.4635 27.6061 17.3131 28.2736 17.0957C28.6155 16.9787 28.8597 16.8617 29.0063 16.7614L29.1039 16.6611L29.0063 16.5608L28.5178 16.31L27.1991 16.5942C26.6781 16.6611 26.1246 16.6945 25.5385 16.6945C24.9524 16.6945 24.3989 16.6611 23.8779 16.5942L22.5592 16.31L22.0708 16.5608L21.9731 16.6611L22.0708 16.7614C22.2173 16.8784 22.4615 16.9954 22.8034 17.0957C23.4872 17.3131 24.4477 17.4635 25.5385 17.4635ZM25.5385 15.6748C26.6293 15.6748 27.6061 15.5243 28.2736 15.307C28.6155 15.19 28.8597 15.0729 29.0063 14.9726L29.1039 14.8723L29.0063 14.772C28.8597 14.655 28.6155 14.538 28.2736 14.4377C27.5899 14.2204 26.6293 14.0699 25.5385 14.0699C24.4477 14.0699 23.4872 14.2204 22.8034 14.4377C22.4615 14.5547 22.2173 14.6717 22.0708 14.772L21.9731 14.8723L22.0708 14.9726C22.2173 15.0897 22.4615 15.2067 22.8034 15.307C23.4872 15.5243 24.4477 15.6748 25.5385 15.6748Z" fill="#ED6C00"/>
<path d="M15.2329 35C12.9048 35 11 33.0608 11 30.6535C11 28.5471 12.449 26.8085 14.3701 26.3906L15.1841 26.307L15.1515 26.1231C15.1515 25.7052 15.412 25.3875 15.6888 25.1869L15.7539 25.1368L15.6725 25.0866C15.412 24.886 15.1515 24.5851 15.1515 24.1505C15.1515 23.9331 15.2167 23.7492 15.3143 23.5988L15.6399 23.2477L15.3143 22.8967C15.2167 22.7462 15.1515 22.5623 15.1515 22.345C15.1515 21.9271 15.412 21.6094 15.6725 21.4088C15.9493 21.2082 16.3075 21.041 16.6982 20.9073C17.4959 20.6398 18.5704 20.4894 19.7426 20.4894C20.0357 20.4894 20.3125 20.4894 20.6055 20.5228L20.9474 20.5562L21.0939 20.0547C21.1916 19.9043 21.3219 19.7705 21.4521 19.6702L21.5172 19.6201L21.4521 19.5699C21.1916 19.3693 20.9148 19.0517 20.9148 18.6337C20.9148 18.2158 21.1753 17.8982 21.4521 17.6976L21.5335 17.6474L21.4521 17.5973C21.1916 17.3967 20.9148 17.079 20.9148 16.6611C20.9148 16.4438 20.98 16.2599 21.0776 16.1094L21.4033 15.7584L21.0776 15.4073C20.98 15.2568 20.9148 15.0729 20.9148 14.8556C20.9148 14.4377 21.1753 14.1201 21.4521 13.9195C21.7126 13.7188 22.087 13.5517 22.4778 13.4179C23.2755 13.1505 24.3663 13 25.5222 13C26.6781 13 27.7689 13.1505 28.5667 13.4179C28.9574 13.5517 29.3319 13.7188 29.5924 13.9195C29.8528 14.1201 30.1133 14.4377 30.1133 14.8556C30.1133 15.0729 30.0482 15.2568 29.9505 15.4073L29.6249 15.7584L29.9505 16.1094C30.0482 16.2599 30.1133 16.4438 30.1133 16.6611C30.1133 17.079 29.8528 17.3967 29.5924 17.5973L29.511 17.6474L29.5924 17.6976C29.8528 17.8982 30.1133 18.2158 30.1133 18.6337C30.1133 19.0517 29.8528 19.3693 29.5924 19.5699L29.5272 19.6201L29.5924 19.6702C29.8528 19.8708 30.1133 20.1717 30.1133 20.6064C30.1133 21.041 29.8528 21.3419 29.5924 21.5426L29.4784 21.6261L29.5924 21.7097C29.8528 21.9103 30.1133 22.2112 30.1133 22.6459C30.1133 22.8632 30.0482 23.0471 29.9505 23.1976L29.6412 23.5152L29.9505 23.8328C30.0482 23.9833 30.1133 24.1672 30.1133 24.3845C30.1133 24.8191 29.8528 25.1201 29.5924 25.3207L29.4784 25.3875L29.5924 25.4544C29.7226 25.5547 29.8528 25.6885 29.9505 25.8389L30.0808 26.2568L31.139 26.0897C31.546 26.0562 31.9693 26.0228 32.4089 26.0228C33.5811 26.0228 34.6556 26.1733 35.4534 26.4407C35.8441 26.5745 36.2185 26.7249 36.479 26.9422C36.7395 27.1429 37 27.4438 37 27.8784C37 28.0957 36.9349 28.2796 36.8372 28.4301L36.5116 28.7812L36.8372 29.1322C36.9349 29.2827 37 29.4666 37 29.6839C37 30.1018 36.7395 30.4195 36.479 30.6201L36.3976 30.6702L36.479 30.7204C36.7395 30.921 37 31.2386 37 31.6565C37 32.0745 36.7395 32.3921 36.479 32.5927C36.2023 32.7933 35.8441 32.9605 35.4534 33.0942C34.6556 33.345 33.5811 33.5122 32.4089 33.5122C31.2367 33.5122 30.1622 33.3617 29.3644 33.0942C28.9737 32.9605 28.5992 32.7933 28.3388 32.5927C28.2085 32.4924 28.0783 32.3587 27.9806 32.2082L27.8666 31.8237L27.655 31.8739C27.02 31.9909 26.2874 32.0578 25.5222 32.0578C25.2292 32.0578 24.9524 32.0578 24.6594 32.0243L24.2849 31.9909L24.1547 32.4088C24.057 32.5593 23.9267 32.693 23.7965 32.7933C23.5197 32.9939 23.1616 33.1611 22.7708 33.2948C21.9731 33.5623 20.8986 33.7128 19.7264 33.7128C19.4333 33.7128 19.1403 33.7128 18.8635 33.6793L18.2774 33.6292L18.196 33.7295C17.4308 34.5152 16.3726 35 15.2004 35H15.2329ZM15.2329 33.9468C17.0075 33.9468 18.4402 32.459 18.4402 30.6535C18.4402 28.848 17.0075 27.3602 15.2329 27.3602C13.4584 27.3602 12.0257 28.8313 12.0257 30.6535C12.0257 32.4757 13.4584 33.9468 15.2329 33.9468ZM19.7589 32.6596C20.8497 32.6596 21.8265 32.5091 22.4941 32.2918C22.8359 32.1748 23.0802 32.0578 23.2267 31.9407L23.3244 31.8404L23.2267 31.7401C23.2267 31.7401 23.0639 31.6231 22.9336 31.573L22.8034 31.5228C21.9894 31.7903 20.9148 31.9407 19.7426 31.9407H19.2705L18.9937 32.6261H19.7589V32.6596ZM32.4252 32.459C33.516 32.459 34.4928 32.3085 35.1603 32.0912C35.5022 31.9742 35.7464 31.8571 35.8929 31.7401L35.9906 31.6398L35.8929 31.5395C35.8929 31.5395 35.7301 31.4225 35.5999 31.3723L35.1766 31.2052H35.1115L33.8904 31.4392C33.4346 31.4894 32.9299 31.5228 32.4252 31.5228C31.9205 31.5228 31.4158 31.4894 30.9599 31.4392L29.7063 31.2052H29.69C29.3482 31.3222 29.1039 31.4392 28.9737 31.5562L28.876 31.6565L28.9737 31.7568C29.1202 31.8739 29.3482 31.9909 29.7063 32.0912C30.3901 32.3085 31.3507 32.459 32.4415 32.459H32.4252ZM25.5385 31.0046C26.6293 31.0046 27.6061 30.8541 28.2736 30.6368L28.355 30.6033L27.9969 30.2188L27.8666 29.7842L27.6713 29.8343C27.0363 29.9514 26.3037 30.0182 25.5385 30.0182C25.2455 30.0182 24.9687 30.0182 24.6756 29.9848L24.3175 29.9514V30.0851C24.3338 30.3024 24.2686 30.4863 24.1709 30.6368L23.943 30.8708L24.1709 30.9043C24.5942 30.9544 25.0338 30.9878 25.5222 30.9878L25.5385 31.0046ZM19.7589 30.921C20.8497 30.921 21.8103 30.7705 22.4941 30.5532C22.8359 30.4362 23.0802 30.3191 23.2267 30.2188L23.3244 30.1185L23.2267 30.0182C23.0802 29.9012 22.8359 29.7842 22.4941 29.6839L22.3964 29.6505L22.1522 29.7173C21.4521 29.8678 20.6381 29.9514 19.7589 29.9514H19.4008L19.4659 30.6702V30.921H19.7589ZM32.4252 30.4863C33.516 30.4863 34.4928 30.3359 35.1603 30.1185C35.5022 30.0015 35.7464 29.8845 35.8929 29.7675L35.9906 29.6672L35.8929 29.5669L35.4045 29.3161L34.0858 29.6003C33.5648 29.6672 33.0113 29.7173 32.4252 29.7173C31.8391 29.7173 31.2855 29.6839 30.7646 29.6003L29.4458 29.3161L28.9574 29.5669L28.8597 29.6672L28.9574 29.7675C29.1039 29.8845 29.3319 30.0015 29.69 30.1018C30.3738 30.3192 31.3344 30.4696 32.4252 30.4696V30.4863ZM25.5385 28.9818C26.092 28.9818 26.5967 28.9483 27.0689 28.8815L28.1922 28.6307L27.9969 28.4301L27.8666 28.0122L27.6713 28.0456C27.0363 28.1626 26.3037 28.2295 25.5385 28.2295C25.2455 28.2295 24.9687 28.2295 24.6756 28.196L24.3175 28.1626L24.1709 28.6307L23.9593 28.8647L25.5222 28.9818H25.5385ZM19.7589 28.8982C20.8497 28.8982 21.8103 28.7477 22.4941 28.5304C22.8359 28.4134 23.0802 28.2964 23.2267 28.196L23.3244 28.0957L23.2267 27.9954C23.2267 27.9954 23.0639 27.8784 22.9336 27.8283L22.5103 27.6611H22.4452L21.2242 27.8951C20.7683 27.9453 20.2636 27.9787 19.7589 27.9787L18.489 27.8951L18.7495 28.2295L19.0914 28.8815H19.7589V28.8982ZM32.4252 28.6809C33.516 28.6809 34.4928 28.5304 35.1603 28.3131C35.5022 28.196 35.7464 28.079 35.8929 27.9787L35.9906 27.8784L35.8929 27.7781C35.7464 27.6611 35.5185 27.5441 35.1603 27.4438C34.4765 27.2264 33.516 27.076 32.4252 27.076C31.3344 27.076 30.3575 27.2264 29.69 27.4438C29.3482 27.5608 29.1039 27.6778 28.9574 27.7781L28.8597 27.8784L28.9574 27.9787C29.1039 28.079 29.3319 28.2128 29.69 28.3131C30.3738 28.5304 31.3344 28.6809 32.4252 28.6809ZM25.5385 27.193C26.6293 27.193 27.6061 27.0426 28.2736 26.8252C28.6155 26.7082 28.8597 26.5912 29.0063 26.4909L29.1039 26.3906L29.0063 26.2903C28.8597 26.1733 28.6155 26.0562 28.2736 25.9559L28.176 25.9225L27.9317 25.9726C27.2317 26.1231 26.4177 26.2067 25.5385 26.2067C25.2455 26.2067 24.9687 26.2067 24.6756 26.1733L24.3337 26.1398L24.1709 26.6581C24.0733 26.8085 23.943 26.9423 23.8128 27.0426L24.1872 27.1094C24.6105 27.1596 25.0501 27.193 25.5385 27.193ZM19.7589 26.9255C20.8497 26.9255 21.8265 26.7751 22.4941 26.5578C22.8359 26.4407 23.0802 26.3237 23.2267 26.2234L23.3244 26.1231L23.2267 26.0228C23.0802 25.9225 22.8359 25.7888 22.5103 25.6884H22.4778L22.1684 25.7553C21.4684 25.9058 20.6544 25.9894 19.7752 25.9894C18.8961 25.9894 18.0657 25.9058 17.382 25.7553L17.0726 25.6717H17.0401C16.6982 25.7888 16.454 25.9058 16.3237 26.0228L16.226 26.1231L16.3237 26.2234C16.4703 26.3404 16.7145 26.4574 17.0564 26.5578C17.7401 26.7751 18.7007 26.9255 19.7915 26.9255H19.7589ZM25.5385 25.1702C26.6293 25.1702 27.6061 25.0198 28.2736 24.8024C28.6155 24.6854 28.8597 24.5684 29.0063 24.4681L29.1039 24.3678L29.0063 24.2675C28.9086 24.2006 28.7946 24.117 28.6155 24.0502H28.583C27.7852 24.3009 26.7107 24.4681 25.5385 24.4681C25.2455 24.4681 24.9687 24.4681 24.6756 24.4347L24.3175 24.4012V24.4347C24.2686 24.5684 24.1872 24.7021 24.1058 24.8024L23.8616 25.0365L24.0081 25.0699C24.464 25.1368 24.985 25.1702 25.5222 25.1702H25.5385ZM19.7589 24.9529C20.8497 24.9529 21.8265 24.8024 22.4941 24.5851C22.8359 24.4681 23.0802 24.3511 23.2267 24.2508L23.3244 24.1505L23.2267 24.0502L22.7383 23.7994L21.4195 24.0836C20.8986 24.1505 20.345 24.2006 19.7589 24.2006C19.1728 24.2006 18.6193 24.1672 18.0983 24.0836L16.7796 23.7994L16.2912 24.0502L16.1935 24.1505L16.2912 24.2508C16.4377 24.3678 16.6819 24.4848 17.0238 24.5851C17.7076 24.8024 18.6681 24.9529 19.7589 24.9529ZM25.5385 23.4316C26.6293 23.4316 27.6061 23.2812 28.2736 23.0638C28.6155 22.9468 28.8597 22.8298 29.0063 22.7295L29.1039 22.6292L29.0063 22.5289C28.8597 22.4119 28.6155 22.2948 28.2736 22.1945L28.1597 22.1611L27.9317 22.228C27.2317 22.3784 26.4177 22.462 25.5385 22.462C25.2455 22.462 24.9687 22.462 24.6756 22.4286L24.3337 22.3951L24.1872 22.8967L23.8616 23.2477L23.943 23.3146L24.1058 23.348C24.5454 23.3982 25.0338 23.4316 25.5385 23.4316ZM19.7589 23.1474C20.8497 23.1474 21.8265 22.997 22.4941 22.7796C22.8359 22.6626 23.0802 22.5456 23.2267 22.4286L23.3244 22.3283L23.2267 22.228C23.0802 22.1109 22.8359 21.9939 22.4941 21.8936C21.8103 21.6763 20.8497 21.5258 19.7589 21.5258C18.6681 21.5258 17.6913 21.6763 17.0238 21.8936C16.6819 22.0106 16.4377 22.1277 16.2912 22.228L16.1935 22.3283L16.2912 22.4286C16.4377 22.5456 16.6819 22.6626 17.0238 22.7796C17.7076 22.997 18.6681 23.1474 19.7589 23.1474ZM25.5385 21.4088C26.6293 21.4088 27.6061 21.2584 28.2736 21.041C28.6155 20.924 28.8597 20.807 29.0063 20.7067L29.1039 20.6064L29.0063 20.5061C29.0063 20.5061 28.8435 20.3891 28.7132 20.3389L28.2899 20.1717H28.2248L27.0038 20.4058C26.5479 20.4559 26.0432 20.4894 25.5385 20.4894C25.0338 20.4894 24.5291 20.4559 24.0733 20.4058L22.8197 20.1717H22.7545L22.3475 20.3389C22.2336 20.4058 22.1196 20.4559 22.0545 20.5061L21.9568 20.6064L22.0545 20.7067L22.1033 20.7401H22.1196C22.3475 20.7903 22.5755 20.8571 22.7708 20.924C22.9662 20.9909 23.1616 21.0578 23.3406 21.1413L23.5034 21.2249L23.9919 21.3085C24.4477 21.3754 24.9687 21.4088 25.5059 21.4088H25.5385ZM25.5385 19.4362C26.6293 19.4362 27.6061 19.2857 28.2736 19.0684C28.6155 18.9514 28.8597 18.8343 29.0063 18.7173L29.1039 18.617L29.0063 18.5167C29.0063 18.5167 28.8435 18.3997 28.7132 18.3495L28.2899 18.1824H28.2248L27.0038 18.4164C26.5479 18.4666 26.0432 18.5 25.5385 18.5C25.0338 18.5 24.5291 18.4666 24.0733 18.4164L22.8197 18.1824H22.8034C22.4615 18.2994 22.2173 18.4164 22.087 18.5334L21.9894 18.6337L22.087 18.734C22.2336 18.8511 22.4778 18.9681 22.8197 19.0851C23.5034 19.3024 24.464 19.4529 25.5548 19.4529L25.5385 19.4362ZM25.5385 17.4635C26.6293 17.4635 27.6061 17.3131 28.2736 17.0957C28.6155 16.9787 28.8597 16.8617 29.0063 16.7614L29.1039 16.6611L29.0063 16.5608L28.5178 16.31L27.1991 16.5942C26.6781 16.6611 26.1246 16.6945 25.5385 16.6945C24.9524 16.6945 24.3989 16.6611 23.8779 16.5942L22.5592 16.31L22.0708 16.5608L21.9731 16.6611L22.0708 16.7614C22.2173 16.8784 22.4615 16.9954 22.8034 17.0957C23.4872 17.3131 24.4477 17.4635 25.5385 17.4635ZM25.5385 15.6748C26.6293 15.6748 27.6061 15.5243 28.2736 15.307C28.6155 15.19 28.8597 15.0729 29.0063 14.9726L29.1039 14.8723L29.0063 14.772C28.8597 14.655 28.6155 14.538 28.2736 14.4377C27.5899 14.2204 26.6293 14.0699 25.5385 14.0699C24.4477 14.0699 23.4872 14.2204 22.8034 14.4377C22.4615 14.5547 22.2173 14.6717 22.0708 14.772L21.9731 14.8723L22.0708 14.9726C22.2173 15.0897 22.4615 15.2067 22.8034 15.307C23.4872 15.5243 24.4477 15.6748 25.5385 15.6748Z" stroke="#ED6C00" stroke-width="0.4" mask="url(#path-2-outside-1_1031_835)"/>
</svg>
