<svg width="24" height="25" viewBox="0 0 24 25" fill="none" xmlns="http://www.w3.org/2000/svg">
<path d="M16.375 12.5005L9.08813 16.7076L9.08813 8.29341L16.375 12.5005Z" fill="white"/>
<path fill-rule="evenodd" clip-rule="evenodd" d="M20.5978 5.21569C21.5447 5.46794 22.2898 6.21693 22.5421 7.17159C23 8.89853 22.9961 12.4999 22.9961 12.4999C22.9961 12.4999 22.9961 16.1012 22.5382 17.8281C22.2859 18.7789 21.5408 19.5279 20.5939 19.784C18.8786 20.2459 11.9981 20.2459 11.9981 20.2459C11.9981 20.2459 5.11748 20.2459 3.40219 19.784C2.45528 19.5318 1.71018 18.7828 1.45793 17.8281C1 16.1012 1 12.4999 1 12.4999C1 12.4999 1 8.89853 1.46181 7.16771C1.71406 6.21693 2.45916 5.46794 3.40607 5.21181C5.12136 4.75 12.0019 4.75 12.0019 4.75C12.0019 4.75 18.8786 4.75 20.5978 5.21569ZM9.7511 9.22842V15.7714L15.5024 12.4999L9.7511 9.22842Z" fill="#FF0000"/>
</svg>
