<svg width="48" height="48" viewBox="0 0 48 48" fill="none" xmlns="http://www.w3.org/2000/svg">
<mask id="path-2-inside-1_1031_787" fill="white">
<path fill-rule="evenodd" clip-rule="evenodd" d="M33.4879 20.9473L24 14L14.5121 20.9473H14.5106V20.9483L14.5 20.9561H14.5106V34.0007H22.488V27.7412H25.5276V34.0007H33.4883V20.9561H33.5L33.4883 20.9475V20.9473H33.4879Z"/>
</mask>
<path d="M24 14L24.8862 12.7898L24 12.1409L23.1138 12.7898L24 14ZM33.4879 20.9473L32.6018 22.1575L32.9975 22.4473H33.4879V20.9473ZM14.5121 20.9473V22.4473H15.0025L15.3982 22.1575L14.5121 20.9473ZM14.5106 20.9473V19.4473H13.0106V20.9473H14.5106ZM14.5106 20.9483L15.3968 22.1586L16.0106 21.7091V20.9483H14.5106ZM14.5 20.9561L13.6138 19.7459L9.91242 22.4561H14.5V20.9561ZM14.5106 20.9561H16.0106V19.4561H14.5106V20.9561ZM14.5106 34.0007H13.0106V35.5007H14.5106V34.0007ZM22.488 34.0007V35.5007H23.988V34.0007H22.488ZM22.488 27.7412V26.2412H20.988V27.7412H22.488ZM25.5276 27.7412H27.0276V26.2412H25.5276V27.7412ZM25.5276 34.0007H24.0276V35.5007H25.5276V34.0007ZM33.4883 34.0007V35.5007H34.9883V34.0007H33.4883ZM33.4883 20.9561V19.4561H31.9883V20.9561H33.4883ZM33.5 20.9561V22.4561H38.0875L34.3862 19.7459L33.5 20.9561ZM33.4883 20.9475H31.9883V21.7083L32.6021 22.1578L33.4883 20.9475ZM33.4883 20.9473H34.9883V19.4473H33.4883V20.9473ZM23.1138 15.2102L32.6018 22.1575L34.3741 19.737L24.8862 12.7898L23.1138 15.2102ZM15.3982 22.1575L24.8862 15.2102L23.1138 12.7898L13.6259 19.737L15.3982 22.1575ZM14.5106 22.4473H14.5121V19.4473H14.5106V22.4473ZM16.0106 20.9483V20.9473H13.0106V20.9483H16.0106ZM15.3862 22.1664L15.3968 22.1586L13.6244 19.7381L13.6138 19.7459L15.3862 22.1664ZM14.5106 19.4561H14.5V22.4561H14.5106V19.4561ZM16.0106 34.0007V20.9561H13.0106V34.0007H16.0106ZM22.488 32.5007H14.5106V35.5007H22.488V32.5007ZM20.988 27.7412V34.0007H23.988V27.7412H20.988ZM25.5276 26.2412H22.488V29.2412H25.5276V26.2412ZM27.0276 34.0007V27.7412H24.0276V34.0007H27.0276ZM33.4883 32.5007H25.5276V35.5007H33.4883V32.5007ZM31.9883 20.9561V34.0007H34.9883V20.9561H31.9883ZM33.5 19.4561H33.4883V22.4561H33.5V19.4561ZM32.6021 22.1578L32.6138 22.1663L34.3862 19.7459L34.3745 19.7373L32.6021 22.1578ZM31.9883 20.9473V20.9475H34.9883V20.9473H31.9883ZM33.4879 22.4473H33.4883V19.4473H33.4879V22.4473Z" fill="white" mask="url(#path-2-inside-1_1031_787)"/>
</svg>
