<svg width="40" height="40" viewBox="0 0 40 40" fill="none" xmlns="http://www.w3.org/2000/svg">
<path d="M30.4423 39.115C30.4423 39.115 31.2679 32.9606 29.3525 28.2021H19.8742H19.995H10.5168C8.60132 32.9606 9.42698 39.115 9.42698 39.115" fill="white"/>
<path d="M30.443 39.5346C30.4245 39.5346 30.4056 39.5333 30.3863 39.5308C30.1616 39.4991 30.0047 39.2862 30.0355 39.0555C30.0433 38.996 30.7934 33.1803 29.0747 28.6217H10.7956C9.07687 33.1803 9.82694 38.996 9.83475 39.0555C9.86556 39.2862 9.70864 39.4987 9.48354 39.5308C9.25925 39.5624 9.05181 39.4013 9.02059 39.1706C9.01196 39.1065 8.81027 37.5753 8.84355 35.4343C8.87435 33.4511 9.1237 30.5586 10.1379 28.0389C10.2016 27.8812 10.3511 27.7783 10.5175 27.7783H29.3528C29.5191 27.7783 29.6691 27.8812 29.7323 28.0389C30.7465 30.5582 30.9959 33.4511 31.0267 35.4343C31.06 37.5753 30.8583 39.1065 30.8496 39.1706C30.8213 39.3819 30.6451 39.535 30.4434 39.535L30.443 39.5346Z" fill="black"/>
<path d="M25.0521 33.6718C29.8138 32.1789 30.759 24.6043 30.5043 23.3354C30.2501 22.0665 31.2314 16.6185 28.5417 12.5512C25.8519 8.48385 19.9996 9.60305 19.9996 9.60305C19.9996 9.60305 14.1477 8.48343 11.4575 12.5512C8.76731 16.6189 9.74906 22.0665 9.49479 23.3354C9.24052 24.6043 10.1853 32.1793 14.947 33.6718" fill="#B87D3E"/>
<path d="M28.3923 26.0966C28.1002 24.7906 27.0277 21.5068 24.2702 19.7904C21.5126 18.0741 21.7743 18.5215 21.6281 17.7755C21.4818 17.0291 20.5276 15.5738 21.5504 12.9247C22.0758 11.5634 22.1226 10.3999 21.7907 9.58984C20.7285 9.59153 19.9989 9.73069 19.9989 9.73069C19.9989 9.73069 19.269 9.59153 18.2071 9.58984C17.8752 10.3999 17.922 11.5638 18.4474 12.9247C19.4703 15.5742 18.516 17.0295 18.3698 17.7755C18.2235 18.5219 18.4852 18.0741 15.7277 19.7904C12.9701 21.5068 11.8976 24.7906 11.6055 26.0966C11.53 26.4344 10.6119 27.1238 9.8125 26.7249C10.4221 29.4124 11.9062 32.8455 14.9468 33.7986H25.0519C28.0924 32.8455 29.5766 29.4128 30.1862 26.7249C29.3868 27.1238 28.4687 26.4339 28.3931 26.0966H28.3923Z" fill="white"/>
<path d="M25.0516 34.0951C24.8758 34.0951 24.7131 33.9783 24.6589 33.7966C24.5927 33.5739 24.7147 33.3382 24.9316 33.2703C27.3121 32.5239 28.6064 30.1425 29.2731 28.2765C30.0306 26.1553 30.215 23.989 30.1017 23.4227C30.031 23.071 30.0417 22.5223 30.0561 21.7628C30.0988 19.5202 30.1699 15.7671 28.2014 12.7903C27.1589 11.2139 25.4874 10.2668 23.2335 9.97539C21.5148 9.75316 20.0886 10.0171 20.0742 10.0201C20.0245 10.0294 19.9736 10.0294 19.9239 10.0201C19.9099 10.0176 18.4841 9.75358 16.765 9.97539C14.5111 10.2668 12.8396 11.2139 11.7971 12.7903C9.82863 15.7671 9.8997 19.5202 9.94242 21.7628C9.95679 22.5223 9.96706 23.071 9.89682 23.4227C9.78303 23.989 9.96747 26.1553 10.7254 28.2765C11.392 30.1429 12.6864 32.5243 15.0668 33.2703C15.2837 33.3382 15.4061 33.5739 15.3396 33.7966C15.2735 34.0192 15.0438 34.1449 14.827 34.0766C12.1236 33.229 10.6847 30.6123 9.95392 28.5662C9.15907 26.3409 8.93971 24.0114 9.09211 23.2519C9.14428 22.9925 9.1336 22.43 9.12127 21.7789C9.07691 19.4359 9.00215 15.5149 11.1176 12.3163C12.2859 10.5498 14.2116 9.44995 16.6865 9.13536C18.3177 8.9283 19.6688 9.12229 19.9994 9.17753C20.3297 9.12229 21.6812 8.9283 23.3124 9.13536C25.7873 9.44995 27.713 10.5498 28.8812 12.3163C30.9967 15.5149 30.922 19.4363 30.8776 21.7793C30.8653 22.4304 30.8546 22.9929 30.9068 23.2523C31.0592 24.0118 30.8398 26.3413 30.045 28.5666C29.3142 30.6127 27.8757 33.2294 25.1719 34.077C25.1321 34.0896 25.0914 34.0956 25.052 34.0956L25.0516 34.0951Z" fill="black"/>
<path d="M22.8592 21.0971C22.8592 22.5575 21.5801 23.9959 20.0019 23.9959C18.4237 23.9959 17.1445 22.5575 17.1445 21.0971C17.1445 19.6368 18.4237 19.3682 20.0019 19.3682C21.5801 19.3682 22.8592 19.6368 22.8592 21.0971Z" fill="black"/>
<path d="M15.0144 18.0739C15.717 18.0739 16.2865 17.4892 16.2865 16.7679C16.2865 16.0466 15.717 15.4619 15.0144 15.4619C14.3118 15.4619 13.7422 16.0466 13.7422 16.7679C13.7422 17.4892 14.3118 18.0739 15.0144 18.0739Z" fill="black"/>
<path d="M15.0147 10.3551C15.0147 10.3551 14.327 8.46164 13.1276 8.42411C11.9281 8.387 11.201 12.0811 9.02021 12.2675C6.8394 12.4539 3.67683 13.8346 4.58588 16.3348C5.49452 18.8351 7.82074 20.2158 7.82074 21.4096C7.82074 22.6035 8.82098 24.5066 9.72017 20.3275C10.6194 16.148 11.3608 12.4725 13.1276 11.2719" fill="#B87D3E"/>
<path d="M8.51944 23.3155C8.49233 23.3155 8.46481 23.3138 8.43687 23.3108C7.72829 23.2315 7.40952 22.1503 7.40952 21.4081C7.40952 20.9995 6.91166 20.423 6.33534 19.7554C5.60827 18.9129 4.70333 17.8645 4.20013 16.4809C3.89698 15.6472 3.96845 14.8316 4.40675 14.1228C5.25624 12.7476 7.31874 11.9885 8.98567 11.846C10.0163 11.7578 10.7122 10.6475 11.3263 9.66788C11.8948 8.76038 12.3869 7.97812 13.1398 8.00047C14.5985 8.04601 15.3675 10.1174 15.3995 10.2056C15.4788 10.4236 15.3708 10.6665 15.158 10.7479C14.9456 10.8293 14.7094 10.7183 14.6297 10.5007C14.4638 10.0478 13.8682 8.86707 13.1148 8.84345C12.824 8.83544 12.3959 9.51944 12.0172 10.1237C11.3361 11.2105 10.4879 12.5633 9.05386 12.686C7.59191 12.8113 5.76437 13.4999 5.10055 14.5744C4.79699 15.0657 4.75427 15.5928 4.96993 16.1857C5.41931 17.4222 6.23265 18.3647 6.95028 19.1958C7.66585 20.0249 8.23108 20.6798 8.23108 21.4081C8.23108 21.8766 8.40196 22.3186 8.51862 22.4493C8.62501 22.3493 8.95651 21.9188 9.31881 20.2349L9.4022 19.8474C10.2862 15.7311 11.0498 12.1762 12.9008 10.9182C13.0901 10.7896 13.3448 10.8427 13.4701 11.0372C13.5954 11.2316 13.5436 11.493 13.3543 11.6216C11.7806 12.6911 11.0502 16.0917 10.2044 20.0291L10.1211 20.4167C9.9132 21.3824 9.68194 22.1085 9.43342 22.575C9.17134 23.0667 8.86408 23.3155 8.51944 23.3155Z" fill="black"/>
<path d="M26.1983 25.7539C26.0431 24.8582 24.7639 25.9778 23.058 26.4628C21.352 26.9478 19.9952 25.4182 19.9948 25.4178C19.9948 25.4178 18.6376 26.9478 16.9316 26.4628C15.2257 25.9778 13.9461 24.8582 13.7913 25.7539C13.636 26.6496 14.7217 30.6048 19.9948 30.6048C25.2679 30.6048 26.3536 26.6492 26.1983 25.7539Z" fill="black"/>
<path d="M19.9946 31.0244C16.9996 31.0244 15.3643 29.7909 14.5198 28.7564C13.5183 27.5293 13.2932 26.2169 13.3864 25.678C13.4608 25.2491 13.7459 24.9932 14.1492 24.9932C14.5025 24.9932 14.9297 25.1884 15.4707 25.436C15.9361 25.6489 16.4635 25.8901 17.0415 26.0546C17.2276 26.1077 17.419 26.1343 17.61 26.1343C18.7672 26.1343 19.6643 25.1614 19.6914 25.1319C19.7686 25.045 19.8787 24.9944 19.995 24.9944C20.1112 24.9944 20.2213 25.045 20.2985 25.1319C20.3244 25.1606 21.222 26.1343 22.3795 26.1343C22.571 26.1343 22.762 26.1073 22.9481 26.0546C23.526 25.8901 24.0535 25.6489 24.5189 25.436C25.0594 25.1888 25.4867 24.9932 25.8399 24.9932C26.2433 24.9932 26.5284 25.2491 26.6027 25.678C26.696 26.2169 26.4709 27.5297 25.4694 28.7564C24.6248 29.7909 22.9895 31.0244 19.9946 31.0244ZM14.1936 25.8399C14.1542 26.1301 14.3033 27.178 15.1499 28.2154C15.8819 29.1124 17.3167 30.1814 19.995 30.1814C22.6732 30.1814 24.1077 29.1119 24.8401 28.2154C25.6867 27.178 25.8358 26.1305 25.7964 25.8404C25.6 25.8652 25.2209 26.039 24.8536 26.2068C24.3862 26.4206 23.8045 26.6867 23.1678 26.8676C22.9103 26.941 22.6453 26.9781 22.38 26.9781C21.7383 26.9781 21.07 26.7571 20.4477 26.3397C20.271 26.2212 20.1182 26.1006 19.995 25.9934C19.8718 26.1001 19.7194 26.2207 19.5423 26.3397C18.92 26.7576 18.2517 26.9781 17.61 26.9785C17.3447 26.9785 17.0797 26.9414 16.8226 26.8681C16.1859 26.6871 15.6042 26.4211 15.1367 26.2072C14.7691 26.039 14.3899 25.8657 14.1936 25.8408V25.8399Z" fill="black"/>
<path d="M24.9805 10.3961C24.9805 10.3961 25.6681 8.50265 26.8676 8.46512C28.067 8.42801 28.7941 12.1221 30.9749 12.3085C33.1557 12.4949 36.3183 13.8756 35.4093 16.3759C34.5006 18.8761 32.1744 20.2568 32.1744 21.4506C32.1744 22.6445 31.1742 24.5476 30.275 20.3685C29.3758 16.189 28.6343 12.5135 26.8676 11.3129" fill="#B87D3E"/>
<path d="M31.4764 23.3565C31.1317 23.3565 30.8245 23.1081 30.5624 22.616C30.3139 22.1496 30.0826 21.4234 29.8747 20.4577L29.7914 20.0697C28.9456 16.1323 28.2152 12.7321 26.6419 11.6627C26.453 11.534 26.4008 11.2726 26.5261 11.0782C26.6514 10.8842 26.9061 10.8306 27.0954 10.9593C28.946 12.2172 29.7096 15.7717 30.5936 19.888L30.677 20.2755C31.0393 21.959 31.3708 22.3899 31.4772 22.4899C31.5938 22.3596 31.7647 21.9172 31.7647 21.4487C31.7647 20.7204 32.33 20.0655 33.0455 19.2365C33.7632 18.4053 34.5761 17.4628 35.0259 16.2263C35.2415 15.633 35.1988 15.1059 34.8953 14.615C34.2314 13.5405 32.4039 12.8519 30.9419 12.7266C29.5079 12.6039 28.6601 11.2515 27.9786 10.1644C27.5999 9.56005 27.1718 8.87479 26.881 8.88406C26.1272 8.90768 25.5197 10.1184 25.3661 10.5409C25.2868 10.759 25.0502 10.8703 24.8378 10.7889C24.6254 10.7075 24.517 10.4646 24.5963 10.2466C24.6283 10.1585 25.3973 8.08704 26.856 8.0415C27.6085 8.01873 28.1006 8.80141 28.6691 9.70807C29.2832 10.6877 29.9791 11.798 31.0097 11.8862C32.6767 12.0287 34.7392 12.7882 35.5886 14.1629C36.0265 14.8718 36.098 15.6874 35.7953 16.5211C35.2925 17.9047 34.3875 18.9531 33.66 19.7956C33.0837 20.4632 32.5859 21.0401 32.5859 21.4483C32.5859 22.1905 32.2671 23.2717 31.5585 23.351C31.531 23.354 31.5035 23.3556 31.476 23.3556L31.4764 23.3565Z" fill="black"/>
<path d="M22.5982 27.1646C21.492 26.0691 19.998 27.0613 19.998 27.0613C19.998 27.0613 18.504 26.0691 17.3978 27.1646C16.1125 28.4378 15.4047 34.3914 19.998 34.3914C24.5913 34.3914 23.8836 28.4378 22.5982 27.1646Z" fill="#F78C8B"/>
<path d="M19.9992 34.8106C19.075 34.8106 18.2863 34.5854 17.6558 34.141C17.0938 33.745 16.6674 33.1845 16.3885 32.4752C16.0299 31.5631 15.9313 30.4253 16.1112 29.2724C16.2756 28.2202 16.6502 27.3178 17.1135 26.859C17.5379 26.4385 18.0522 26.2256 18.6416 26.2256C19.2311 26.2256 19.7216 26.4356 19.9988 26.5777C20.2761 26.4356 20.7826 26.2256 21.356 26.2256C21.9295 26.2256 22.4598 26.4385 22.8841 26.859C23.3475 27.3178 23.7225 28.2202 23.8864 29.2724C24.0663 30.4257 23.9682 31.5631 23.6091 32.4752C23.3302 33.1841 22.9038 33.7446 22.3419 34.141C21.7114 34.5854 20.9227 34.8106 19.9984 34.8106H19.9992ZM18.642 27.0686C18.2674 27.0686 17.954 27.1985 17.6841 27.4658C17.0076 28.1355 16.4994 30.505 17.1501 32.1594C17.6217 33.3587 18.5804 33.9672 19.9992 33.9672C21.4181 33.9672 22.3764 33.3591 22.8484 32.1594C23.4991 30.5046 22.9909 28.1355 22.3144 27.4658C22.0445 27.1985 21.7315 27.0686 21.3564 27.0686C20.7575 27.0686 20.2276 27.4093 20.2223 27.4131C20.0863 27.5033 19.9117 27.5033 19.7758 27.4131C19.7717 27.4106 19.2422 27.0686 18.6416 27.0686H18.642Z" fill="black"/>
<path d="M20.001 32.1245C19.9656 32.1245 19.9295 32.1199 19.8937 32.1098C19.6748 32.0491 19.545 31.8175 19.6041 31.5928C19.842 30.6882 19.6756 28.0416 19.5918 27.0978C19.5713 26.8659 19.7376 26.6605 19.9636 26.6395C20.1891 26.6184 20.3895 26.7892 20.4101 27.0211C20.4228 27.1657 20.7219 30.5786 20.3978 31.8125C20.3485 32.0006 20.1825 32.1245 20.0014 32.1245H20.001Z" fill="black"/>
<path d="M20.0006 26.2587C19.7739 26.2587 19.5898 26.0697 19.5898 25.8369V22.0496C19.5898 21.8169 19.7739 21.6279 20.0006 21.6279C20.2274 21.6279 20.4114 21.8169 20.4114 22.0496V25.8369C20.4114 26.0697 20.2274 26.2587 20.0006 26.2587Z" fill="black"/>
<path d="M15.5223 16.5092C15.7029 16.5092 15.8493 16.359 15.8493 16.1736C15.8493 15.9882 15.7029 15.8379 15.5223 15.8379C15.3417 15.8379 15.1953 15.9882 15.1953 16.1736C15.1953 16.359 15.3417 16.5092 15.5223 16.5092Z" fill="white"/>
<path d="M24.9792 18.0739C25.6818 18.0739 26.2514 17.4892 26.2514 16.7679C26.2514 16.0466 25.6818 15.4619 24.9792 15.4619C24.2766 15.4619 23.707 16.0466 23.707 16.7679C23.707 17.4892 24.2766 18.0739 24.9792 18.0739Z" fill="black"/>
<path d="M25.4832 16.5092C25.6638 16.5092 25.8102 16.359 25.8102 16.1736C25.8102 15.9882 25.6638 15.8379 25.4832 15.8379C25.3026 15.8379 25.1562 15.9882 25.1562 16.1736C25.1562 16.359 25.3026 16.5092 25.4832 16.5092Z" fill="white"/>
<path d="M37.5892 39.5368H2.41078C2.18403 39.5368 2 39.3478 2 39.1151C2 38.8823 2.18403 38.6934 2.41078 38.6934H37.5892C37.816 38.6934 38 38.8823 38 39.1151C38 39.3478 37.816 39.5368 37.5892 39.5368Z" fill="black"/>
<path d="M27.6588 38.8475L27.1454 39.0672C27.1454 39.0672 25.3946 40.2652 24.251 38.8276C23.1074 37.3901 24.2744 34.2269 27.3553 33.9633C30.4365 33.6997 32.2102 34.9564 32.4904 38.7893" fill="white"/>
<path d="M25.6758 39.9119C25.0859 39.9119 24.4656 39.6977 23.9633 39.0664C23.3742 38.3259 23.2847 37.197 23.7295 36.1208C24.3272 34.6752 25.67 33.7277 27.3222 33.5864C29.0294 33.4405 30.2987 33.7546 31.2036 34.547C32.1693 35.393 32.7095 36.7715 32.8549 38.7607C32.8701 38.9686 32.7181 39.1499 32.5156 39.1659C32.3115 39.1815 32.1365 39.0255 32.1209 38.8176C31.9911 37.0393 31.5347 35.8307 30.7259 35.1222C29.9783 34.4673 28.8848 34.2114 27.3834 34.34C26.0089 34.4576 24.8961 35.234 24.4073 36.4164C24.0692 37.2337 24.1177 38.0661 24.5334 38.5886C25.449 39.7395 26.879 38.7932 26.9393 38.7523C26.9586 38.7392 26.9796 38.7278 27.001 38.7185L27.5144 38.4988C27.7021 38.4187 27.9174 38.5098 27.9959 38.7021C28.0739 38.8948 27.9852 39.1158 27.7979 39.1963L27.316 39.4025C26.9397 39.6517 26.3265 39.9124 25.6762 39.9124L25.6758 39.9119Z" fill="black"/>
<path d="M25.9316 37.7021C25.9316 37.7021 25.8149 39.6669 27.4255 39.6192C29.0362 39.5711 29.0596 38.2533 29.0826 38.0378" fill="white"/>
<path d="M27.3639 39.9979C26.8603 39.9979 26.447 39.8301 26.1344 39.4991C25.5006 38.8273 25.5585 37.7258 25.561 37.679C25.5733 37.4707 25.7487 37.3138 25.9508 37.3248C26.1533 37.3374 26.3078 37.5162 26.2959 37.7237C26.2955 37.7317 26.2568 38.5452 26.6647 38.9749C26.8438 39.1638 27.0878 39.2503 27.4115 39.2414C28.4857 39.2093 28.6665 38.5447 28.7088 38.0476C28.7104 38.0269 28.7121 38.0096 28.7137 37.9961C28.7363 37.7886 28.9183 37.6389 29.1199 37.6625C29.3221 37.6857 29.4675 37.8726 29.4449 38.0796C29.4441 38.0885 29.4428 38.1003 29.442 38.1138C29.306 39.7044 28.1251 39.9764 27.4329 39.9971C27.4095 39.9979 27.3865 39.9979 27.3639 39.9979Z" fill="black"/>
<path d="M31.1165 37.9201C31.1165 37.9201 31.0619 39.7393 29.291 39.5234C27.9149 39.356 28.283 37.417 28.283 37.417" fill="white"/>
<path d="M29.5738 39.9191C29.4682 39.9191 29.3589 39.9124 29.2464 39.8984C28.8163 39.8461 28.4639 39.6425 28.2273 39.3093C27.706 38.5756 27.897 37.4686 27.9208 37.3446C27.9598 37.1397 28.1529 37.0064 28.3525 37.046C28.5522 37.0861 28.6824 37.2843 28.6434 37.4892C28.5974 37.7368 28.5399 38.4689 28.8229 38.8657C28.9391 39.0285 29.1059 39.1208 29.3335 39.1487C29.7512 39.1993 30.0807 39.1208 30.3136 38.915C30.7174 38.5578 30.7474 37.9156 30.7478 37.9088C30.7539 37.7043 30.9174 37.5428 31.1154 37.5428C31.1191 37.5428 31.1232 37.5428 31.1269 37.5428C31.3299 37.5491 31.4896 37.7233 31.4835 37.932C31.4823 37.9717 31.4469 38.91 30.7938 39.4873C30.4689 39.7749 30.0597 39.9195 29.5742 39.9195L29.5738 39.9191Z" fill="black"/>
<path d="M11.4448 38.8475L11.9583 39.0672C11.9583 39.0672 13.709 40.2652 14.8526 38.8276C15.9962 37.3901 14.8292 34.2269 11.7484 33.9633C8.66716 33.6997 6.89343 34.9564 6.61328 38.7893" fill="white"/>
<path d="M13.4215 39.9119C12.7709 39.9119 12.1576 39.6513 11.7817 39.4021L11.2999 39.1959C11.1122 39.1158 11.0234 38.8944 11.1019 38.7017C11.1799 38.5089 11.3956 38.4178 11.5833 38.4984L12.0968 38.7181C12.1186 38.7274 12.1395 38.7388 12.1592 38.7527C12.2188 38.7927 13.6487 39.7395 14.5643 38.5886C14.98 38.0661 15.0285 37.2337 14.6904 36.4164C14.2016 35.234 13.0888 34.4576 11.7144 34.34C10.213 34.2114 9.11949 34.4673 8.37188 35.1222C7.56306 35.8307 7.10669 37.0397 6.97688 38.8176C6.96168 39.0255 6.78464 39.182 6.58254 39.1659C6.38002 39.1503 6.22804 38.969 6.24324 38.7607C6.38865 36.7711 6.92882 35.393 7.89455 34.547C8.79908 33.7546 10.0688 33.4405 11.776 33.5864C13.4277 33.7277 14.7709 34.6752 15.3686 36.1204C15.8135 37.1966 15.7239 38.3255 15.1349 39.066C14.6325 39.6973 14.0122 39.9115 13.4224 39.9115L13.4215 39.9119Z" fill="black"/>
<path d="M13.1706 37.7021C13.1706 37.7021 13.2873 39.6669 11.6766 39.6192C10.0659 39.5711 10.0425 38.2533 10.0195 38.0378" fill="white"/>
<path d="M11.7317 39.9972C11.7087 39.9972 11.6857 39.9972 11.6627 39.9963C10.9706 39.9757 9.78918 39.7037 9.65362 38.113C9.65239 38.0995 9.65157 38.0881 9.65075 38.0788C9.62815 37.8714 9.77398 37.6846 9.97608 37.6618C10.1778 37.6386 10.3602 37.7883 10.3823 37.9958C10.384 38.0093 10.3852 38.0266 10.3873 38.0472C10.4296 38.5444 10.6103 39.2094 11.6845 39.2415C12.009 39.2503 12.2538 39.1635 12.4329 38.9733C12.8367 38.5453 12.8006 37.7331 12.8002 37.725C12.7878 37.5167 12.9423 37.3375 13.1452 37.3248C13.3473 37.313 13.5227 37.4708 13.535 37.6791C13.5379 37.7255 13.5954 38.8274 12.962 39.4991C12.6494 39.8302 12.2362 39.998 11.7326 39.998L11.7317 39.9972Z" fill="black"/>
<path d="M7.98828 37.9201C7.98828 37.9201 8.04291 39.7393 9.81377 39.5234C11.1899 39.356 10.8218 37.417 10.8218 37.417" fill="white"/>
<path d="M9.52665 39.9195C9.04152 39.9195 8.63239 39.7749 8.30705 39.4873C7.65392 38.91 7.61859 37.9717 7.61736 37.932C7.6112 37.7233 7.77058 37.5491 7.97391 37.5428C8.17725 37.5352 8.34608 37.6997 8.35306 37.9071C8.35388 37.9223 8.38592 38.5633 8.79054 38.9175C9.02304 39.1212 9.35166 39.1988 9.76695 39.1482C9.99452 39.1204 10.1613 39.028 10.2775 38.8653C10.5606 38.4684 10.5031 37.7368 10.4571 37.488C10.4193 37.2834 10.5495 37.0852 10.7487 37.046C10.9483 37.0064 11.1406 37.1401 11.1796 37.3442C11.203 37.4681 11.394 38.5755 10.8732 39.3089C10.6366 39.642 10.2841 39.8457 9.85363 39.898C9.74107 39.9119 9.63181 39.9187 9.52624 39.9187L9.52665 39.9195Z" fill="black"/>
</svg>
