<svg width="40" height="43" viewBox="0 0 40 43" fill="none" xmlns="http://www.w3.org/2000/svg">
<g clip-path="url(#clip0_285_38499)">
<circle cx="20" cy="20" r="20" fill="#F44B4B"/>
<path d="M16.9591 13.2601L17.1028 13.181L16.9591 13.2601C17.072 13.4662 17.3328 13.5425 17.5437 13.4352C17.7592 13.3257 17.8447 13.0643 17.7293 12.8536L16.3302 10.2983C16.1008 9.87947 15.498 9.83056 15.2 10.2153L13.9174 11.8711L11.6183 10.6224C11.1559 10.3712 10.5604 10.7222 10.6202 11.266L10.9132 13.9306L8.9036 14.2658C8.34096 14.3596 8.14118 15.053 8.58127 15.4123L8.70747 15.2602L8.58127 15.4123L10.6054 17.0649C10.7856 17.212 11.0583 17.1937 11.2166 17.0137C11.3781 16.8301 11.3508 16.5581 11.1673 16.4083L9.48411 15.034L11.2445 14.7404C11.5907 14.6827 11.8403 14.3722 11.8019 14.0235L11.5303 11.5536L13.6403 12.6996C13.9302 12.8571 14.3012 12.7853 14.5062 12.5205L15.7061 10.9716L16.9591 13.2601Z" fill="white" stroke="white" stroke-width="0.4" stroke-linecap="round"/>
<path d="M33 25.1082H33.2V24.9082V21.4069C33.2 19.6571 31.7302 18.2512 29.9328 18.2512H10.0672C8.2698 18.2512 6.8 19.6571 6.8 21.4069V24.9082V25.1082H7H9.94918H10.1492V24.9082V24.4535V24.2535H9.94918H7.67187V21.4069C7.67187 20.143 8.73723 19.1059 10.0672 19.1059H29.9328C31.2628 19.1059 32.3281 20.143 32.3281 21.4069V24.2535H30.098H29.898V24.4535V24.9082V25.1082H30.098H33Z" fill="white" stroke="white" stroke-width="0.4"/>
<path d="M11.0689 18.7741L10.9155 19.067H11.2461H28.7524H29.0831L28.9296 18.7741L27.3555 15.7707C26.8381 14.7835 25.7911 14.1652 24.6512 14.1652H15.3473C14.2075 14.1652 13.1604 14.7835 12.643 15.7707L11.0689 18.7741ZM15.3473 15.02H24.6512C25.4698 15.02 26.2145 15.464 26.58 16.1614L27.6549 18.2123H12.3437L13.4185 16.1614C13.784 15.464 14.5287 15.02 15.3473 15.02Z" fill="white" stroke="white" stroke-width="0.4"/>
<path d="M12.4742 27.2C14.0109 27.2 15.2695 25.9976 15.2695 24.499C15.2695 23.0004 14.0109 21.798 12.4742 21.798C10.9374 21.798 9.67891 23.0004 9.67891 24.499C9.67891 25.9976 10.9374 27.2 12.4742 27.2Z" fill="white" stroke="white" stroke-width="0.4"/>
<path d="M27.5758 27.2C29.1125 27.2 30.371 25.9976 30.371 24.499C30.371 23.0004 29.1125 21.798 27.5758 21.798C26.039 21.798 24.7805 23.0004 24.7805 24.499C24.7805 25.9976 26.039 27.2 27.5758 27.2Z" fill="white" stroke="white" stroke-width="0.4"/>
<path d="M19.5891 24.6135V24.8135H19.7891H20.2609H20.4609V24.6135V14.4277V14.2277H20.2609H19.7891H19.5891V14.4277V24.6135Z" fill="white" stroke="white" stroke-width="0.4"/>
<path d="M25.0271 25.1078H25.2271V24.9078V24.4531V24.2531H25.0271H15.0234H14.8234V24.4531V24.9078V25.1078H15.0234H25.0271Z" fill="white" stroke="white" stroke-width="0.4"/>
</g>
<path d="M20 43L15.6699 38.5L24.3301 38.5L20 43Z" fill="#F44B4B"/>
<defs>
<clipPath id="clip0_285_38499">
<rect width="40" height="40" fill="white"/>
</clipPath>
</defs>
</svg>
