<svg width="16" height="16" viewBox="0 0 16 16" fill="none" xmlns="http://www.w3.org/2000/svg">
<mask id="path-1-outside-1_758_162" maskUnits="userSpaceOnUse" x="0" y="0" width="16" height="16" fill="black">
<rect fill="white" width="16" height="16"/>
<path d="M14.5717 7.56973H13.6774L14.3137 6.93377C14.4805 6.76699 14.4805 6.49682 14.3137 6.33005C14.1468 6.16328 13.8765 6.16328 13.7097 6.33005L12.4705 7.56862H10.4082C10.3448 7.21172 10.2047 6.8804 10.0033 6.59466L11.4616 5.13707H13.2147C13.4505 5.13707 13.6418 4.94584 13.6418 4.71013C13.6418 4.47443 13.4505 4.2832 13.2147 4.2832H12.3148L12.9477 3.65057C13.1146 3.4838 13.1146 3.21363 12.9477 3.04686C12.7809 2.88008 12.5106 2.88008 12.3437 3.04686L11.7108 3.67948V2.78002C11.7108 2.54431 11.5195 2.35308 11.2836 2.35308C11.0478 2.35308 10.8565 2.54431 10.8565 2.78002V4.53224L9.39822 5.98984C9.11235 5.78971 8.78198 5.64851 8.4238 5.58513V3.52382L9.66296 2.28526C9.82981 2.11849 9.82981 1.84832 9.66296 1.68154C9.49611 1.51477 9.22581 1.51477 9.05895 1.68154L8.42269 2.3175V1.42694C8.42269 1.19123 8.23137 1 7.99555 1C7.75973 1 7.56841 1.19123 7.56841 1.42694V2.32084L6.93215 1.68488C6.7653 1.51811 6.49499 1.51811 6.32814 1.68488C6.16129 1.85165 6.16129 2.12182 6.32814 2.2886L7.5673 3.52716V5.58847C7.21023 5.65184 6.87987 5.79193 6.59288 5.99317L5.13459 4.53558V2.78335C5.13459 2.54765 4.94327 2.35642 4.70745 2.35642C4.47164 2.35642 4.28031 2.54765 4.28031 2.78335V3.68281L3.64739 3.05019C3.48053 2.88342 3.21023 2.88342 3.04338 3.05019C2.87653 3.21696 2.87653 3.48713 3.04338 3.65391L3.67631 4.28653H2.77642C2.5406 4.28653 2.34928 4.47776 2.34928 4.71347C2.34928 4.94917 2.5406 5.14041 2.77642 5.14041H4.52948L5.98776 6.598C5.78754 6.88374 5.64627 7.21395 5.58287 7.57195H3.52058L2.28142 6.33339C2.11457 6.16661 1.84427 6.16661 1.67742 6.33339C1.51057 6.50016 1.51057 6.77033 1.67742 6.9371L2.31368 7.57306H1.42714C1.19132 7.57306 1 7.7643 1 8C1 8.23571 1.19132 8.42694 1.42714 8.42694H2.32147L1.68521 9.0629C1.51835 9.22967 1.51835 9.49984 1.68521 9.66661C1.76863 9.75 1.87764 9.79114 1.98665 9.79114C2.09566 9.79114 2.20467 9.75 2.2881 9.66661L3.52725 8.42805H5.58954C5.65295 8.78494 5.7931 9.11626 5.99444 9.402L4.53615 10.8596H2.78309C2.54727 10.8596 2.35595 11.0508 2.35595 11.2865C2.35595 11.5222 2.54727 11.7135 2.78309 11.7135H3.68298L3.05006 12.3461C2.8832 12.5129 2.8832 12.783 3.05006 12.9498C3.13348 13.0332 3.24249 13.0743 3.3515 13.0743C3.46051 13.0743 3.56952 13.0332 3.65295 12.9498L4.28587 12.3172V13.2166C4.28587 13.4524 4.4772 13.6436 4.71301 13.6436C4.94883 13.6436 5.14016 13.4524 5.14016 13.2166V11.4644L6.59844 10.0068C6.88432 10.207 7.21468 10.3482 7.57286 10.4115V12.4728L6.3337 13.7114C6.16685 13.8782 6.16685 14.1483 6.3337 14.3151C6.41713 14.3985 6.52614 14.4396 6.63515 14.4396C6.74416 14.4396 6.85317 14.3985 6.9366 14.3151L7.57286 13.6792V14.5731C7.57286 14.8088 7.76418 15 8 15C8.23582 15 8.42714 14.8088 8.42714 14.5731V13.6792L9.0634 14.3151C9.14683 14.3985 9.25584 14.4396 9.36485 14.4396C9.47386 14.4396 9.58287 14.3985 9.6663 14.3151C9.83315 14.1483 9.83315 13.8782 9.6663 13.7114L8.42714 12.4728V10.4115C8.7842 10.3482 9.11457 10.2081 9.40156 10.0068L10.8598 11.4644V13.2166C10.8598 13.4524 11.0512 13.6436 11.287 13.6436C11.5228 13.6436 11.7141 13.4524 11.7141 13.2166V12.3172L12.3471 12.9498C12.4305 13.0332 12.5395 13.0743 12.6485 13.0743C12.7575 13.0743 12.8665 13.0332 12.9499 12.9498C13.1168 12.783 13.1168 12.5129 12.9499 12.3461L12.317 11.7135H13.2169C13.4527 11.7135 13.644 11.5222 13.644 11.2865C13.644 11.0508 13.4527 10.8596 13.2169 10.8596H11.4638L10.0056 9.402C10.2058 9.11626 10.3471 8.78605 10.4105 8.42805H12.4727L13.7119 9.66661C13.7953 9.75 13.9043 9.79114 14.0133 9.79114C14.1224 9.79114 14.2314 9.75 14.3148 9.66661C14.4816 9.49984 14.4816 9.22967 14.3148 9.0629L13.6785 8.42694H14.5729C14.8087 8.42694 15 8.23571 15 8C15 7.7643 14.8087 7.57306 14.5729 7.57306L14.5717 7.56973ZM7.99889 9.58879C7.12013 9.58879 6.40601 8.87389 6.40601 7.99667C6.40601 7.11944 7.12125 6.40454 7.99889 6.40454C8.87653 6.40454 9.59177 7.11944 9.59177 7.99667C9.59177 8.87389 8.87653 9.58879 7.99889 9.58879Z"/>
</mask>
<path d="M14.5717 7.56973H13.6774L14.3137 6.93377C14.4805 6.76699 14.4805 6.49682 14.3137 6.33005C14.1468 6.16328 13.8765 6.16328 13.7097 6.33005L12.4705 7.56862H10.4082C10.3448 7.21172 10.2047 6.8804 10.0033 6.59466L11.4616 5.13707H13.2147C13.4505 5.13707 13.6418 4.94584 13.6418 4.71013C13.6418 4.47443 13.4505 4.2832 13.2147 4.2832H12.3148L12.9477 3.65057C13.1146 3.4838 13.1146 3.21363 12.9477 3.04686C12.7809 2.88008 12.5106 2.88008 12.3437 3.04686L11.7108 3.67948V2.78002C11.7108 2.54431 11.5195 2.35308 11.2836 2.35308C11.0478 2.35308 10.8565 2.54431 10.8565 2.78002V4.53224L9.39822 5.98984C9.11235 5.78971 8.78198 5.64851 8.4238 5.58513V3.52382L9.66296 2.28526C9.82981 2.11849 9.82981 1.84832 9.66296 1.68154C9.49611 1.51477 9.22581 1.51477 9.05895 1.68154L8.42269 2.3175V1.42694C8.42269 1.19123 8.23137 1 7.99555 1C7.75973 1 7.56841 1.19123 7.56841 1.42694V2.32084L6.93215 1.68488C6.7653 1.51811 6.49499 1.51811 6.32814 1.68488C6.16129 1.85165 6.16129 2.12182 6.32814 2.2886L7.5673 3.52716V5.58847C7.21023 5.65184 6.87987 5.79193 6.59288 5.99317L5.13459 4.53558V2.78335C5.13459 2.54765 4.94327 2.35642 4.70745 2.35642C4.47164 2.35642 4.28031 2.54765 4.28031 2.78335V3.68281L3.64739 3.05019C3.48053 2.88342 3.21023 2.88342 3.04338 3.05019C2.87653 3.21696 2.87653 3.48713 3.04338 3.65391L3.67631 4.28653H2.77642C2.5406 4.28653 2.34928 4.47776 2.34928 4.71347C2.34928 4.94917 2.5406 5.14041 2.77642 5.14041H4.52948L5.98776 6.598C5.78754 6.88374 5.64627 7.21395 5.58287 7.57195H3.52058L2.28142 6.33339C2.11457 6.16661 1.84427 6.16661 1.67742 6.33339C1.51057 6.50016 1.51057 6.77033 1.67742 6.9371L2.31368 7.57306H1.42714C1.19132 7.57306 1 7.7643 1 8C1 8.23571 1.19132 8.42694 1.42714 8.42694H2.32147L1.68521 9.0629C1.51835 9.22967 1.51835 9.49984 1.68521 9.66661C1.76863 9.75 1.87764 9.79114 1.98665 9.79114C2.09566 9.79114 2.20467 9.75 2.2881 9.66661L3.52725 8.42805H5.58954C5.65295 8.78494 5.7931 9.11626 5.99444 9.402L4.53615 10.8596H2.78309C2.54727 10.8596 2.35595 11.0508 2.35595 11.2865C2.35595 11.5222 2.54727 11.7135 2.78309 11.7135H3.68298L3.05006 12.3461C2.8832 12.5129 2.8832 12.783 3.05006 12.9498C3.13348 13.0332 3.24249 13.0743 3.3515 13.0743C3.46051 13.0743 3.56952 13.0332 3.65295 12.9498L4.28587 12.3172V13.2166C4.28587 13.4524 4.4772 13.6436 4.71301 13.6436C4.94883 13.6436 5.14016 13.4524 5.14016 13.2166V11.4644L6.59844 10.0068C6.88432 10.207 7.21468 10.3482 7.57286 10.4115V12.4728L6.3337 13.7114C6.16685 13.8782 6.16685 14.1483 6.3337 14.3151C6.41713 14.3985 6.52614 14.4396 6.63515 14.4396C6.74416 14.4396 6.85317 14.3985 6.9366 14.3151L7.57286 13.6792V14.5731C7.57286 14.8088 7.76418 15 8 15C8.23582 15 8.42714 14.8088 8.42714 14.5731V13.6792L9.0634 14.3151C9.14683 14.3985 9.25584 14.4396 9.36485 14.4396C9.47386 14.4396 9.58287 14.3985 9.6663 14.3151C9.83315 14.1483 9.83315 13.8782 9.6663 13.7114L8.42714 12.4728V10.4115C8.7842 10.3482 9.11457 10.2081 9.40156 10.0068L10.8598 11.4644V13.2166C10.8598 13.4524 11.0512 13.6436 11.287 13.6436C11.5228 13.6436 11.7141 13.4524 11.7141 13.2166V12.3172L12.3471 12.9498C12.4305 13.0332 12.5395 13.0743 12.6485 13.0743C12.7575 13.0743 12.8665 13.0332 12.9499 12.9498C13.1168 12.783 13.1168 12.5129 12.9499 12.3461L12.317 11.7135H13.2169C13.4527 11.7135 13.644 11.5222 13.644 11.2865C13.644 11.0508 13.4527 10.8596 13.2169 10.8596H11.4638L10.0056 9.402C10.2058 9.11626 10.3471 8.78605 10.4105 8.42805H12.4727L13.7119 9.66661C13.7953 9.75 13.9043 9.79114 14.0133 9.79114C14.1224 9.79114 14.2314 9.75 14.3148 9.66661C14.4816 9.49984 14.4816 9.22967 14.3148 9.0629L13.6785 8.42694H14.5729C14.8087 8.42694 15 8.23571 15 8C15 7.7643 14.8087 7.57306 14.5729 7.57306L14.5717 7.56973ZM7.99889 9.58879C7.12013 9.58879 6.40601 8.87389 6.40601 7.99667C6.40601 7.11944 7.12125 6.40454 7.99889 6.40454C8.87653 6.40454 9.59177 7.11944 9.59177 7.99667C9.59177 8.87389 8.87653 9.58879 7.99889 9.58879Z" fill="#DEFFFF"/>
<path d="M14.5717 7.56973H13.6774L14.3137 6.93377C14.4805 6.76699 14.4805 6.49682 14.3137 6.33005C14.1468 6.16328 13.8765 6.16328 13.7097 6.33005L12.4705 7.56862H10.4082C10.3448 7.21172 10.2047 6.8804 10.0033 6.59466L11.4616 5.13707H13.2147C13.4505 5.13707 13.6418 4.94584 13.6418 4.71013C13.6418 4.47443 13.4505 4.2832 13.2147 4.2832H12.3148L12.9477 3.65057C13.1146 3.4838 13.1146 3.21363 12.9477 3.04686C12.7809 2.88008 12.5106 2.88008 12.3437 3.04686L11.7108 3.67948V2.78002C11.7108 2.54431 11.5195 2.35308 11.2836 2.35308C11.0478 2.35308 10.8565 2.54431 10.8565 2.78002V4.53224L9.39822 5.98984C9.11235 5.78971 8.78198 5.64851 8.4238 5.58513V3.52382L9.66296 2.28526C9.82981 2.11849 9.82981 1.84832 9.66296 1.68154C9.49611 1.51477 9.22581 1.51477 9.05895 1.68154L8.42269 2.3175V1.42694C8.42269 1.19123 8.23137 1 7.99555 1C7.75973 1 7.56841 1.19123 7.56841 1.42694V2.32084L6.93215 1.68488C6.7653 1.51811 6.49499 1.51811 6.32814 1.68488C6.16129 1.85165 6.16129 2.12182 6.32814 2.2886L7.5673 3.52716V5.58847C7.21023 5.65184 6.87987 5.79193 6.59288 5.99317L5.13459 4.53558V2.78335C5.13459 2.54765 4.94327 2.35642 4.70745 2.35642C4.47164 2.35642 4.28031 2.54765 4.28031 2.78335V3.68281L3.64739 3.05019C3.48053 2.88342 3.21023 2.88342 3.04338 3.05019C2.87653 3.21696 2.87653 3.48713 3.04338 3.65391L3.67631 4.28653H2.77642C2.5406 4.28653 2.34928 4.47776 2.34928 4.71347C2.34928 4.94917 2.5406 5.14041 2.77642 5.14041H4.52948L5.98776 6.598C5.78754 6.88374 5.64627 7.21395 5.58287 7.57195H3.52058L2.28142 6.33339C2.11457 6.16661 1.84427 6.16661 1.67742 6.33339C1.51057 6.50016 1.51057 6.77033 1.67742 6.9371L2.31368 7.57306H1.42714C1.19132 7.57306 1 7.7643 1 8C1 8.23571 1.19132 8.42694 1.42714 8.42694H2.32147L1.68521 9.0629C1.51835 9.22967 1.51835 9.49984 1.68521 9.66661C1.76863 9.75 1.87764 9.79114 1.98665 9.79114C2.09566 9.79114 2.20467 9.75 2.2881 9.66661L3.52725 8.42805H5.58954C5.65295 8.78494 5.7931 9.11626 5.99444 9.402L4.53615 10.8596H2.78309C2.54727 10.8596 2.35595 11.0508 2.35595 11.2865C2.35595 11.5222 2.54727 11.7135 2.78309 11.7135H3.68298L3.05006 12.3461C2.8832 12.5129 2.8832 12.783 3.05006 12.9498C3.13348 13.0332 3.24249 13.0743 3.3515 13.0743C3.46051 13.0743 3.56952 13.0332 3.65295 12.9498L4.28587 12.3172V13.2166C4.28587 13.4524 4.4772 13.6436 4.71301 13.6436C4.94883 13.6436 5.14016 13.4524 5.14016 13.2166V11.4644L6.59844 10.0068C6.88432 10.207 7.21468 10.3482 7.57286 10.4115V12.4728L6.3337 13.7114C6.16685 13.8782 6.16685 14.1483 6.3337 14.3151C6.41713 14.3985 6.52614 14.4396 6.63515 14.4396C6.74416 14.4396 6.85317 14.3985 6.9366 14.3151L7.57286 13.6792V14.5731C7.57286 14.8088 7.76418 15 8 15C8.23582 15 8.42714 14.8088 8.42714 14.5731V13.6792L9.0634 14.3151C9.14683 14.3985 9.25584 14.4396 9.36485 14.4396C9.47386 14.4396 9.58287 14.3985 9.6663 14.3151C9.83315 14.1483 9.83315 13.8782 9.6663 13.7114L8.42714 12.4728V10.4115C8.7842 10.3482 9.11457 10.2081 9.40156 10.0068L10.8598 11.4644V13.2166C10.8598 13.4524 11.0512 13.6436 11.287 13.6436C11.5228 13.6436 11.7141 13.4524 11.7141 13.2166V12.3172L12.3471 12.9498C12.4305 13.0332 12.5395 13.0743 12.6485 13.0743C12.7575 13.0743 12.8665 13.0332 12.9499 12.9498C13.1168 12.783 13.1168 12.5129 12.9499 12.3461L12.317 11.7135H13.2169C13.4527 11.7135 13.644 11.5222 13.644 11.2865C13.644 11.0508 13.4527 10.8596 13.2169 10.8596H11.4638L10.0056 9.402C10.2058 9.11626 10.3471 8.78605 10.4105 8.42805H12.4727L13.7119 9.66661C13.7953 9.75 13.9043 9.79114 14.0133 9.79114C14.1224 9.79114 14.2314 9.75 14.3148 9.66661C14.4816 9.49984 14.4816 9.22967 14.3148 9.0629L13.6785 8.42694H14.5729C14.8087 8.42694 15 8.23571 15 8C15 7.7643 14.8087 7.57306 14.5729 7.57306L14.5717 7.56973ZM7.99889 9.58879C7.12013 9.58879 6.40601 8.87389 6.40601 7.99667C6.40601 7.11944 7.12125 6.40454 7.99889 6.40454C8.87653 6.40454 9.59177 7.11944 9.59177 7.99667C9.59177 8.87389 8.87653 9.58879 7.99889 9.58879Z" stroke="#DEFFFF" stroke-width="0.4" mask="url(#path-1-outside-1_758_162)"/>
</svg>
