<svg width="16" height="12" viewBox="0 0 16 12" fill="none" xmlns="http://www.w3.org/2000/svg">
<path d="M1 4.06118H10.7432C11.2162 4.06118 11.8784 3.97297 12.3514 3.52064C12.6851 3.20146 12.8243 2.62098 12.6351 1.99035C12.4459 1.35972 11.6892 0.999879 11.027 1C10.4516 1.00011 10.1458 1.26127 9.98649 1.45057C9.60811 1.90026 9.60811 2.44144 9.60811 2.62162" stroke="#7599AB" stroke-width="1.4" stroke-linecap="round"/>
<path d="M1 9.33333H6.81915C7.10163 9.33333 7.49711 9.38136 7.77959 9.62763C7.97892 9.80141 8.06207 10.1175 7.94908 10.4608C7.83609 10.8041 7.38411 11.0001 6.98864 11C6.64498 10.9999 6.4623 10.8577 6.36718 10.7547" stroke="#7599AB" stroke-width="1.4" stroke-linecap="round"/>
<path d="M1 6.81046H12.6383C13.2033 6.81046 13.9942 6.9143 14.5592 7.44678C14.9578 7.82252 15.1241 8.50585 14.8982 9.24823C14.6722 9.9906 13.7682 10.4142 12.9773 10.4141C12.29 10.4139 11.9246 10.1065 11.7344 9.88365C11.2824 9.35428 11.2824 8.7172 11.2824 8.5051" stroke="#7599AB" stroke-width="1.4" stroke-linecap="round"/>
</svg>
