<svg width="22" height="21" viewBox="0 0 22 21" fill="none" xmlns="http://www.w3.org/2000/svg">
<path d="M14.6302 4.91807H14.0939V1.72041C14.0939 1.29551 13.7522 0.95 13.3297 0.95H12.3464C11.9241 0.95 11.5823 1.29529 11.5823 1.72041V4.91787H11.0462C10.7296 4.91787 10.4364 5.09985 10.3046 5.39151L10.3046 5.39153C10.1744 5.67978 10.2197 6.00857 10.4232 6.25017L10.4232 6.25017L12.2267 8.39054L12.2416 8.40833H12.2427C12.3947 8.57842 12.6106 8.67567 12.8385 8.67567C13.0742 8.67567 13.2971 8.57163 13.4497 8.39077L13.4497 8.39074L15.2531 6.25037L15.2531 6.25037C15.4568 6.00857 15.5019 5.67976 15.3718 5.39172L15.3262 5.41231L15.3718 5.39171C15.2399 5.10005 14.9468 4.91807 14.6302 4.91807ZM12.2725 5.66307H12.3225V5.61307V1.72041C12.3225 1.70609 12.3339 1.6952 12.347 1.6952H13.3303C13.3434 1.6952 13.3549 1.70621 13.3549 1.72041V5.61307V5.66307H13.4049H14.6421C14.6613 5.66307 14.6729 5.66907 14.6806 5.67547C14.6893 5.68259 14.6952 5.692 14.6989 5.70006C14.7025 5.70786 14.7058 5.71843 14.7056 5.72975C14.7054 5.74 14.7023 5.75302 14.6897 5.76797L12.8863 7.90833C12.8863 7.90833 12.8863 7.90834 12.8863 7.90834C12.87 7.92764 12.8502 7.93047 12.8387 7.93047C12.8274 7.93047 12.8074 7.92755 12.791 7.90829C12.791 7.90827 12.7909 7.90825 12.7909 7.90822L10.9876 5.76797C10.975 5.753 10.9719 5.74002 10.9717 5.72982C10.9715 5.71855 10.9748 5.70795 10.9785 5.69992C10.9822 5.69186 10.9881 5.68249 10.9967 5.67542C11.0044 5.66906 11.016 5.66307 11.0352 5.66307H12.2725Z" fill="white" stroke="white" stroke-width="0.1"/>
<path d="M20.0299 9.29982L20.0301 9.29982L20.0343 9.29982C20.3374 9.29982 20.6214 9.44292 20.8141 9.69095C20.8141 9.69096 20.8141 9.69097 20.8142 9.69098L20.0299 9.29982ZM20.0299 9.29982L19.4831 9.30239L20.0299 9.29982ZM4.18594 9.37342C3.71498 9.37554 3.31254 9.72057 3.20297 10.2068L3.20297 10.2069L1.68978 16.9271V5.90661C1.68978 5.63685 1.77338 5.38807 1.92229 5.20515C2.05683 5.04 2.22717 4.95281 2.40043 4.95281H7.05085C7.22434 4.95281 7.39446 5.03981 7.52898 5.20513L7.52901 5.20516C7.67809 5.38806 7.76151 5.63681 7.76151 5.90661V7.64867C7.76151 7.89871 7.9563 8.10601 8.20039 8.10601H10.6881C10.8927 8.10601 11.0578 7.93881 11.0578 7.73351C11.0578 7.52821 10.8927 7.36101 10.6881 7.36101H8.50089V5.90681C8.50089 5.46748 8.35934 5.05035 8.10038 4.73245L8.10038 4.73244C7.82585 4.39548 7.45307 4.20781 7.05046 4.20781H2.40024C1.99763 4.20781 1.62484 4.39548 1.35031 4.73244L1.35031 4.73245C1.09155 5.05016 0.95 5.46729 0.95 5.90661V18.2234C0.95 18.5673 1.02954 18.8965 1.18168 19.185L18.7933 9.35543M4.18594 9.37342L4.18617 9.42342L4.18593 9.37342L4.18594 9.37342ZM4.18594 9.37342L18.7433 9.30566M18.7433 9.30566V9.35543H18.7933M18.7433 9.30566V9.18676C18.7433 9.15547 18.7422 9.12328 18.74 9.09119C18.7091 8.625 18.4438 8.23564 18.1098 8.13309M18.7433 9.30566L18.7931 9.30543L18.7933 9.35543M18.7933 9.35543L18.1098 8.13309M18.1098 8.13309C18.1098 8.13309 18.1099 8.1331 18.1099 8.1331L18.1245 8.08529L18.1098 8.13309ZM18.1098 8.13309C18.0509 8.11506 17.99 8.10581 17.9289 8.10581H15.0558C14.8513 8.10581 14.6861 7.9386 14.6861 7.73331C14.6861 7.52801 14.8513 7.36081 15.0558 7.36081H17.9289C18.0635 7.36081 18.1971 7.38102 18.3261 7.42079L18.3114 7.46857L18.1098 8.13309Z" fill="white" stroke="white" stroke-width="0.1"/>
</svg>
