<svg width="178" height="160" viewBox="0 0 178 160" fill="none" xmlns="http://www.w3.org/2000/svg">
<path d="M148.016 74.3683L145.932 73.1636H143.531L141.446 74.3683L140.238 76.4464V78.8407L141.446 80.9188L143.531 82.1235H145.932L148.016 80.9188L149.224 78.8407V76.4464L148.016 74.3683Z" fill="#428AA8"/>
<path d="M109.023 131.29H111.424L113.508 130.1L114.716 128.007V125.612L113.508 123.534L111.424 122.345H109.023L106.939 123.534L105.73 125.612V128.007L106.939 130.1L109.023 131.29Z" fill="#428AA8"/>
<path d="M47.5293 109.53L45.8077 106.579L42.8477 104.862H39.4195L36.4443 106.579L34.7227 109.53V112.964L36.4443 115.915L39.4195 117.632H42.8477L45.8077 115.915L47.5293 112.964V109.53Z" fill="#428AA8"/>
<path d="M63.5362 40.0038H64.9105L66.1187 39.3111L66.7983 38.1215V36.7361L66.1187 35.5465L64.9105 34.8538H63.5362L62.328 35.5465L61.6484 36.7361V38.1215L62.328 39.3111L63.5362 40.0038Z" fill="#428AA8"/>
<path d="M134.229 79.8038L136.57 75.7531V67.5009L132.432 60.3631L130.483 59.2337L134.546 52.2164V43.7835L130.317 36.4801L122.993 32.2637H114.536L107.211 36.4801L105.323 39.7478L103.873 37.2631L99.6447 34.8387H94.7667L90.5381 37.2631L88.1066 41.4796V45.4701L85.3882 43.904H77.4294L70.8146 47.7138L63.9129 43.7384H55.0932L47.4514 48.1355L43.0416 55.7552V64.5494L44.9445 67.8322H44.2195L36.5778 72.2293L32.168 79.849V88.6433L36.5778 96.2629L44.2195 100.66H53.0393L53.598 100.344L57.2075 106.593L58.8989 107.557L51.6498 111.743L47.4212 119.047V127.48L51.6498 134.783L58.9744 138.999H67.4317L74.7563 134.783L78.9849 127.48V126.546L79.1208 126.621H84.3009L88.7862 124.031L91.3687 119.559V114.394L88.7862 109.936L87.8197 109.379L89.4205 108.46L91.7161 112.436L101.064 117.812H111.862L113.252 117.014V117.782L116.031 122.585L120.848 125.356H126.406L131.223 122.585L134.002 117.782V112.24L131.223 107.436L130.725 107.165H133.882L140.3 103.461L144 97.0761V89.6974L140.3 83.2974L134.229 79.8038Z" fill="#428AA8"/>
<g opacity="0.5">
<path d="M89.9931 38.2124L89.1172 39.7183H89.9931V38.2124Z" fill="#BAF3FF"/>
<path d="M98.6949 39.7171L100.084 38.3468V35.0791L99.6464 34.8381H98.7553V37.8047L98.1815 38.392H93.6206L93.0316 37.7896V35.832L91.6875 36.6V38.3468L93.092 39.7171H98.6949Z" fill="#BAF3FF"/>
<path d="M104.415 38.212L103.871 37.2633L103.086 36.8115V39.7178H104.415V38.212Z" fill="#BAF3FF"/>
<path d="M113.113 39.7177L114.503 38.3474V32.2637L113.174 33.0317V37.8053L112.6 38.3925H108.039L107.45 37.7902V36.3446L107.208 36.4801L106.121 38.3474L107.51 39.7177H113.113Z" fill="#BAF3FF"/>
<path d="M118.837 32.2637H117.508V39.7177H118.837V32.2637Z" fill="#BAF3FF"/>
<path d="M117.069 32.2637H117.023L117.054 32.2788L117.069 32.2637Z" fill="#BAF3FF"/>
<path d="M127.535 39.7177L128.94 38.3474V35.682L127.596 34.914V37.8053L127.022 38.3925H122.461L121.872 37.7902V32.2637H120.543V38.3474L121.932 39.7177H127.535Z" fill="#BAF3FF"/>
<path d="M46.7118 49.4006L45.3828 51.7046V54.3399H46.7118V49.4006Z" fill="#BAF3FF"/>
<path d="M55.4059 54.3394L56.7953 52.954V45.9668L55.4059 44.5964H53.5936L51.2981 45.9216H54.8773L55.4663 46.5239V52.4269L54.8924 52.9992H50.3315L49.7425 52.4119V46.8101L48.3984 47.578V52.954L49.8029 54.3394H55.4059Z" fill="#BAF3FF"/>
<path d="M59.8035 46.4486V54.3394H61.1325V44.5964H59.8035L58.4141 45.9668L59.3504 46.9004L59.8035 46.4486Z" fill="#BAF3FF"/>
<path d="M64.1824 46.4486V54.3394H65.5265V44.5964H64.1824L62.793 45.9668L63.7293 46.9004L64.1824 46.4486Z" fill="#BAF3FF"/>
<path d="M74.2262 54.34L75.6156 52.9546V45.9673L74.9662 45.3198L73.7731 46.0125L74.2866 46.5245V52.4275L73.7127 52.9997H69.1518L68.5477 52.4125V46.5095L68.6082 46.4492L67.4302 45.7716L67.2188 45.9673V52.9546L68.6082 54.34H74.2262Z" fill="#BAF3FF"/>
<path d="M78.6238 46.4486V54.3394H79.9528V44.5964H78.6238L77.2344 45.9668L78.1556 46.9004L78.6238 46.4486Z" fill="#BAF3FF"/>
<path d="M88.6486 54.3399L90.038 52.9696V45.9824L88.6486 44.6121H88.1049V45.5005L86.5796 44.6121H83.0457L81.6562 45.9824V52.9696L83.0457 54.3399H88.6486ZM82.9852 46.5095L83.5591 45.9222H88.12L88.709 46.5245V52.4275L88.1351 53.0148H83.5742L82.9852 52.4124V46.5095Z" fill="#BAF3FF"/>
<path d="M93.0457 46.4486V54.3394H94.3747V44.5964H93.0457L91.6562 45.9668L92.5926 46.9004L93.0457 46.4486Z" fill="#BAF3FF"/>
<path d="M96.0781 45.9668V52.954L97.4675 54.3243H103.07L104.46 52.954V45.9668L103.07 44.5964H97.4675L96.0781 45.9668ZM102.542 45.9216L103.131 46.5239V52.4269L102.557 53.0142H97.9961L97.4071 52.4119V46.5089L97.981 45.9216H102.542Z" fill="#BAF3FF"/>
<path d="M113.113 54.3399L114.503 52.9696V45.9824L113.113 44.6121H107.51L106.121 45.9824V52.9696L107.51 54.3399H113.113ZM107.45 46.5095L108.024 45.9222H112.585L113.174 46.5245V52.4275L112.6 53.0148H108.039L107.45 52.4124V46.5095Z" fill="#BAF3FF"/>
<path d="M117.51 46.4486V54.3394H118.839V44.5964H117.51L116.121 45.9668L117.057 46.9004L117.51 46.4486Z" fill="#BAF3FF"/>
<path d="M127.535 54.3399L128.925 52.9696V45.9824L127.535 44.6121H121.932L120.543 45.9824V52.9696L121.932 54.3399H127.535ZM121.872 46.5095L122.446 45.9222H127.007L127.596 46.5245V52.4275L127.022 53.0148H122.461L121.872 52.4124V46.5095Z" fill="#BAF3FF"/>
<path d="M131.947 46.4486V54.3394H133.276V44.5964H131.947L130.543 45.9668L131.479 46.9004L131.947 46.4486Z" fill="#BAF3FF"/>
<path d="M45.3816 61.0563V68.9471H46.7106V59.2041H45.3816L43.9922 60.5744L44.9134 61.5081L45.3816 61.0563Z" fill="#BAF3FF"/>
<path d="M55.4103 68.9466L56.7997 67.5763V60.5891L55.4103 59.2188H49.8074L48.418 60.5891V67.5763L49.8074 68.9466H55.4103ZM49.747 61.1161L50.3209 60.5289H54.8817L55.4707 61.1312V67.0342L54.8968 67.6215H50.336L49.747 67.0191V61.1161Z" fill="#BAF3FF"/>
<path d="M59.8035 61.0563V68.9471H61.1325V59.2041H59.8035L58.4141 60.5744L59.3504 61.5081L59.8035 61.0563Z" fill="#BAF3FF"/>
<path d="M71.2216 67.5763V60.5891L69.8322 59.2188H64.2292L62.8398 60.5891V67.5763L64.2292 68.9466H69.8322L71.2216 67.5763ZM64.7578 67.6215L64.1688 67.0191V61.1161L64.7427 60.5289H69.3036L69.8926 61.1312V67.0342L69.3187 67.6215H64.7578Z" fill="#BAF3FF"/>
<path d="M75.5694 68.9471V59.2041H74.2253L72.8359 60.5744L73.7723 61.5081L74.2253 61.0563V68.9471H75.5694Z" fill="#BAF3FF"/>
<path d="M78.6238 61.0563V68.9471H79.9528V59.2041H78.6238L77.2344 60.5744L78.1556 61.5081L78.6238 61.0563Z" fill="#BAF3FF"/>
<path d="M88.6486 68.9466L90.038 67.5763V60.5891L88.6486 59.2188H83.0457L81.6562 60.5891V67.5763L83.0457 68.9466H88.6486ZM82.9852 61.1161L83.5591 60.5289H88.12L88.709 61.1312V67.0342L88.1351 67.6215H83.5742L82.9852 67.0191V61.1161Z" fill="#BAF3FF"/>
<path d="M100.081 67.5763V60.5891L98.6915 59.2188H93.0886L91.6992 60.5891V67.5763L93.0886 68.9466H98.6915L100.081 67.5763ZM93.6172 67.6215L93.0282 67.0191V61.1161L93.6021 60.5289H98.163L98.752 61.1312V67.0342L98.1781 67.6215H93.6172Z" fill="#BAF3FF"/>
<path d="M104.418 59.2041H103.089L101.699 60.5744L102.636 61.5081L103.089 61.0563V68.9471H104.418V59.2041Z" fill="#BAF3FF"/>
<path d="M107.468 61.0563V68.9471H108.812V59.2041H107.468L106.078 60.5744L107.014 61.5081L107.468 61.0563Z" fill="#BAF3FF"/>
<path d="M113.191 68.9471V59.2041H111.862L110.473 60.5744L111.394 61.5081L111.862 61.0563V68.9471H113.191Z" fill="#BAF3FF"/>
<path d="M116.241 61.0563V68.9471H117.57V59.2041H116.241L114.852 60.5744L115.788 61.5081L116.241 61.0563Z" fill="#BAF3FF"/>
<path d="M126.27 68.9466L127.659 67.5763V60.5891L126.27 59.2188H120.667L119.277 60.5891V67.5763L120.667 68.9466H126.27ZM120.606 61.1161L121.18 60.5289H125.741L126.33 61.1312V67.0342L125.756 67.6215H121.195L120.606 67.0191V61.1161Z" fill="#BAF3FF"/>
<path d="M130.678 61.0563V68.9471H132.007V59.2041H130.678L129.273 60.5744L130.21 61.5081L130.678 61.0563Z" fill="#BAF3FF"/>
<path d="M136.388 67.1852L135.059 64.8962V68.947H136.388V67.1852Z" fill="#BAF3FF"/>
<path d="M28.2852 75.1958L29.2215 76.1294L29.6746 75.6777V83.5684L31.0187 73.8254H29.6746L28.2852 75.1958Z" fill="#BAF3FF"/>
<path d="M39.6994 83.5684L41.1039 82.198V75.1958L39.6994 73.8254H35.652L34.8818 75.1506H39.1708L39.7749 75.7529V81.6559L39.1859 82.2432H34.625L34.036 81.6409V76.6113L32.707 78.9153V82.198L34.0964 83.5684H39.6994Z" fill="#BAF3FF"/>
<path d="M44.1121 75.6777V83.5684H45.4411V73.8254H44.1121L42.7227 75.1958L43.6439 76.1294L44.1121 75.6777Z" fill="#BAF3FF"/>
<path d="M54.1408 83.569L55.5302 82.1986V75.2114L54.1408 73.8411H48.5378L47.1484 75.2114V82.1986L48.5378 83.569H54.1408ZM48.4623 75.7385L49.0362 75.1512H53.5971L54.1861 75.7535V81.6565L53.6122 82.2438H49.0513L48.4623 81.6414V75.7385Z" fill="#BAF3FF"/>
<path d="M58.5339 75.6777V83.5684H59.8629V73.8254H58.5339L57.1445 75.1958L58.0809 76.1294L58.5339 75.6777Z" fill="#BAF3FF"/>
<path d="M62.9128 83.5684H64.2569V73.8254H62.9128L61.5234 75.1958L62.4598 76.1294L62.9128 75.6777V83.5684Z" fill="#BAF3FF"/>
<path d="M74.3466 82.1986V75.2114L72.9572 73.8411H67.3542L65.9648 75.2114V82.1986L67.3542 83.569H72.9572L74.3466 82.1986ZM67.8677 82.2438L67.2787 81.6414V75.7385L67.8526 75.1512H72.4135L73.0025 75.7535V81.6565L72.4286 82.2438H67.8677Z" fill="#BAF3FF"/>
<path d="M77.3543 75.6777V83.5684H78.6832V73.8254H77.3543L75.9648 75.1958L76.8861 76.1294L77.3543 75.6777Z" fill="#BAF3FF"/>
<path d="M87.3791 83.569L88.7685 82.1986V75.2114L87.3791 73.8411H81.7761L80.3867 75.2114V82.1986L81.7761 83.569H87.3791ZM81.7157 75.7385L82.2896 75.1512H86.8505L87.4395 75.7535V81.6565L86.8656 82.2438H82.3047L81.7157 81.6414V75.7385Z" fill="#BAF3FF"/>
<path d="M91.7761 75.6777V83.5684H93.1051V73.8254H91.7761L90.3867 75.1958L91.3231 76.1294L91.7761 75.6777Z" fill="#BAF3FF"/>
<path d="M103.194 82.1986V75.2114L101.805 73.8411H96.2019L94.8125 75.2114V82.1986L96.2019 83.569H101.805L103.194 82.1986ZM96.7305 82.2438L96.1415 81.6414V75.7385L96.7154 75.1512H101.276L101.865 75.7535V81.6565L101.291 82.2438H96.7305Z" fill="#BAF3FF"/>
<path d="M106.198 75.6777V83.5684H107.527V73.8254H106.198L104.809 75.1958L105.745 76.1294L106.198 75.6777Z" fill="#BAF3FF"/>
<path d="M117.628 82.1986V75.2114L116.238 73.8411H110.635L109.246 75.2114V82.1986L110.635 83.569H116.238L117.628 82.1986ZM111.149 82.2438L110.56 81.6414V75.7385L111.134 75.1512H115.695L116.284 75.7535V81.6565L115.71 82.2438H111.149Z" fill="#BAF3FF"/>
<path d="M120.635 75.6777V83.5684H121.964V73.8254H120.635L119.23 75.1958L120.167 76.1294L120.635 75.6777Z" fill="#BAF3FF"/>
<path d="M125.046 73.8254L123.656 75.1958V82.183L125.046 83.5533H130.649L132.038 82.183V75.1958L130.649 73.8254H125.046ZM130.724 81.6559L130.15 82.2432H125.589L125 81.6409V75.7379L125.574 75.1506H130.135L130.724 75.7529V81.6559Z" fill="#BAF3FF"/>
<path d="M135.057 78.3731L136.386 76.0692V73.8254H135.057L133.668 75.1958L134.589 76.1294L135.057 75.6777V78.3731Z" fill="#BAF3FF"/>
<path d="M135.059 83.5687H136.388V81.0539L135.059 80.2859V83.5687Z" fill="#BAF3FF"/>
<path d="M140.782 75.5129L140.238 76.4466V78.8409L140.782 79.7745V75.5129Z" fill="#BAF3FF"/>
<path d="M142.445 75.1958L143.367 76.1294L143.835 75.6777V82.1228H145.164V73.8254H143.835L142.445 75.1958Z" fill="#BAF3FF"/>
<path d="M148.017 74.3682L147.791 74.2327L146.824 75.1964L147.761 76.1301L148.214 75.6783V80.5874L149.225 78.8406V76.4463L148.017 74.3682Z" fill="#BAF3FF"/>
<path d="M33.9453 89.8178L34.8665 90.7515L35.3347 90.2997V94.1246L36.5731 96.2629L36.6637 96.3081V88.4475H35.3347L33.9453 89.8178Z" fill="#BAF3FF"/>
<path d="M39.7644 88.4475L38.375 89.8178V96.8051L39.7644 98.1754H45.3673L46.7567 96.8051V89.8178L45.3673 88.4475H39.7644ZM45.4277 96.278L44.8539 96.8653H40.293L39.704 96.2629V90.36L40.2779 89.7727H44.8388L45.4277 90.375V96.278Z" fill="#BAF3FF"/>
<path d="M49.7605 90.2997V98.1905H51.0895V88.4475H49.7605L48.3711 89.8178L49.3074 90.7515L49.7605 90.2997Z" fill="#BAF3FF"/>
<path d="M54.1863 88.4475L52.7969 89.8178V96.8051L54.1863 98.1754H59.7892L61.1786 96.8051V89.8178L59.7892 88.4475H54.1863ZM59.8496 96.278L59.2757 96.8653H54.7149L54.1259 96.2629V90.36L54.6998 89.7727H59.2606L59.8496 90.375V96.278Z" fill="#BAF3FF"/>
<path d="M65.5265 88.4475H64.1824L62.793 89.8178L63.7293 90.7515L64.1824 90.2997V98.1905H65.5265V88.4475Z" fill="#BAF3FF"/>
<path d="M69.9059 98.1905V88.4475H68.5769L67.1875 89.8178L68.1087 90.7515L68.5769 90.2997V98.1905H69.9059Z" fill="#BAF3FF"/>
<path d="M73.0027 88.4475L71.6133 89.8178V96.8051L73.0027 98.1754H78.6056L79.995 96.8051V89.8178L78.6056 88.4475H73.0027ZM78.666 96.278L78.0921 96.8653H73.5313L72.9423 96.2629V90.36L73.5162 89.7727H78.077L78.666 90.375V96.278Z" fill="#BAF3FF"/>
<path d="M84.3278 98.1905V88.4475H82.9988L81.6094 89.8178L82.5457 90.7515L82.9988 90.2997V98.1905H84.3278Z" fill="#BAF3FF"/>
<path d="M94.4325 96.8051V89.8178L93.0431 88.4475H87.4402L86.0508 89.8178V96.8051L87.4402 98.1754H93.0431L94.4325 96.8051ZM87.9537 96.8653L87.3647 96.2629V90.36L87.9386 89.7727H92.4994L93.0884 90.375V96.278L92.5145 96.8653H87.9537Z" fill="#BAF3FF"/>
<path d="M98.7648 98.1905V88.4475H97.4358L96.0312 89.8178L96.9676 90.7515L97.4358 90.2997V98.1905H98.7648Z" fill="#BAF3FF"/>
<path d="M107.465 98.1903L108.854 96.82V89.8327L107.465 88.4624H101.862L100.473 89.8327V96.82L101.862 98.1903H107.465ZM101.787 90.3598L102.36 89.7725H106.921L107.51 90.3749V96.2778L106.936 96.8651H102.376L101.787 96.2628V90.3598Z" fill="#BAF3FF"/>
<path d="M113.191 98.1905V88.4475H111.862L110.473 89.8178L111.394 90.7515L111.862 90.2997V98.1905H113.191Z" fill="#BAF3FF"/>
<path d="M121.887 98.1903L123.276 96.82V89.8327L121.887 88.4624H116.284L114.895 89.8327V96.82L116.284 98.1903H121.887ZM116.224 90.3598L116.797 89.7725H121.358L121.947 90.3749V96.2778L121.373 96.8651H116.813L116.224 96.2628V90.3598Z" fill="#BAF3FF"/>
<path d="M126.327 88.4475L124.938 89.8178V96.8051L126.327 98.1754H131.93L133.319 96.8051V89.8178L131.93 88.4475H126.327ZM131.99 96.278L131.416 96.8653H126.855L126.267 96.2629V90.36L126.84 89.7727H131.401L131.99 90.375V96.278Z" fill="#BAF3FF"/>
<path d="M136.327 90.2997V98.1905H137.656V88.4475H136.327L134.938 89.8178L135.874 90.7515L136.327 90.2997Z" fill="#BAF3FF"/>
<path d="M139.316 89.8178L140.253 90.7515L140.706 90.2997V98.1905H142.05V88.4475H140.706L139.316 89.8178Z" fill="#BAF3FF"/>
<path d="M143.742 89.8185V96.8057L143.999 97.0617V89.698L143.954 89.6077L143.742 89.8185Z" fill="#BAF3FF"/>
<path d="M35.3398 108.476V112.798H36.6688V106.443L36.4423 106.579L35.3398 108.476Z" fill="#BAF3FF"/>
<path d="M45.4277 106.353V110.886L44.8539 111.473H40.293L39.704 110.871V104.968L39.7946 104.862H39.4171L38.375 105.465V111.428L39.7644 112.798H45.3673L46.7567 111.428V108.22L45.8053 106.579L45.4277 106.353Z" fill="#BAF3FF"/>
<path d="M55.1679 103.054L55.9381 104.379H59.2606L59.8496 104.982V110.885L59.2757 111.472H54.7149L54.1259 110.87V110.312L52.7969 111.08V111.427L54.1863 112.797H59.7892L61.1786 111.427V104.44L59.7892 103.054H55.1679Z" fill="#BAF3FF"/>
<path d="M65.5265 112.797V103.054H64.1824L62.793 104.425L63.7293 105.358L64.1824 104.906V112.797H65.5265Z" fill="#BAF3FF"/>
<path d="M68.6082 103.054L67.2188 104.44V111.427L68.6082 112.797H74.2111L75.6005 111.427V104.44L74.2111 103.054H68.6082ZM74.2866 110.885L73.7127 111.472H69.1518L68.5628 110.87V104.967L69.1367 104.379H73.6976L74.2866 104.982V110.885Z" fill="#BAF3FF"/>
<path d="M77.2617 104.44V111.427L78.6511 112.797H84.2541L85.6435 111.427V104.44L84.2541 103.054H78.6511L77.2617 104.44ZM83.7255 104.379L84.3145 104.982V110.885L83.7406 111.472H79.1797L78.5907 110.87V104.967L79.1646 104.379H83.7255Z" fill="#BAF3FF"/>
<path d="M89.9918 112.797V103.054H88.6628L87.2734 104.425L88.1947 105.358L88.6628 104.906V112.797H89.9918Z" fill="#BAF3FF"/>
<path d="M93.0886 103.054L91.6992 104.44V111.427L93.0886 112.797H98.6915L100.081 111.427V104.44L98.6915 103.054H93.0886ZM98.752 110.885L98.1781 111.472H93.6172L93.0282 110.87V104.967L93.6021 104.379H98.163L98.752 104.982V110.885Z" fill="#BAF3FF"/>
<path d="M101.699 104.425L102.636 105.358L103.089 104.906V112.797H104.418V103.054H103.089L101.699 104.425Z" fill="#BAF3FF"/>
<path d="M107.51 103.054L106.121 104.44V111.427L107.51 112.797H113.113L114.503 111.427V104.44L113.113 103.054H107.51ZM113.174 110.885L112.6 111.472H108.039L107.45 110.87V104.967L108.024 104.379H112.585L113.174 104.982V110.885Z" fill="#BAF3FF"/>
<path d="M116.121 104.425L117.057 105.358L117.51 104.906V112.797H118.839V103.054H117.51L116.121 104.425Z" fill="#BAF3FF"/>
<path d="M121.932 103.054L120.543 104.44V111.427L121.932 112.797H127.535L128.925 111.427V104.44L127.535 103.054H121.932ZM127.596 110.885L127.022 111.472H122.461L121.872 110.87V104.967L122.446 104.379H127.007L127.596 104.982V110.885Z" fill="#BAF3FF"/>
<path d="M130.543 104.425L131.479 105.358L131.947 104.906V107.165H133.276V103.054H131.947L130.543 104.425Z" fill="#BAF3FF"/>
<path d="M131.945 112.798H133.274V110.975L131.945 108.687V112.798Z" fill="#BAF3FF"/>
<path d="M134.969 104.44V106.533L136.298 105.765V104.967L136.872 104.379H138.699L140.3 103.461L140.541 103.054H136.358L134.969 104.44Z" fill="#BAF3FF"/>
<path d="M49.8074 117.677L48.418 119.047V126.034L49.8074 127.404H55.4103L56.7997 126.034V119.047L55.4103 117.677H49.8074ZM55.4707 125.507L54.8968 126.094H50.336L49.747 125.492V119.589L50.3209 119.002H54.8817L55.4707 119.604V125.507Z" fill="#BAF3FF"/>
<path d="M58.4141 119.047L59.3504 119.98L59.8035 119.529V127.419H61.1325V117.677H59.8035L58.4141 119.047Z" fill="#BAF3FF"/>
<path d="M64.1824 119.529V127.419H65.5265V117.677H64.1824L62.793 119.047L63.7293 119.98L64.1824 119.529Z" fill="#BAF3FF"/>
<path d="M68.6082 117.677L67.2188 119.047V126.034L68.6082 127.404H74.2111L75.6005 126.034V119.047L74.2111 117.677H68.6082ZM74.2866 125.507L73.7127 126.094H69.1518L68.5628 125.492V119.589L69.1367 119.002H73.6976L74.2866 119.604V125.507Z" fill="#BAF3FF"/>
<path d="M77.2344 119.047L78.1556 119.98L78.6238 119.529V127.419H78.9862V126.546L79.1222 126.621H79.9528V117.677H78.6238L77.2344 119.047Z" fill="#BAF3FF"/>
<path d="M83.0451 117.677L81.6406 119.047V126.049L82.2296 126.621H84.2986L85.2048 126.094H83.5737L82.9847 125.492V119.589L83.5586 119.002H88.1195L88.7085 119.604V124.076L88.784 124.031L90.0375 121.863V119.047L88.6481 117.677H83.0451Z" fill="#BAF3FF"/>
<path d="M113.174 123.339V125.507L112.6 126.094H108.039L107.45 125.492V123.248L106.937 123.534L106.121 124.95V126.049L107.51 127.42H113.113L114.503 126.049V125.266L113.506 123.534L113.174 123.339Z" fill="#BAF3FF"/>
<path d="M116.121 119.047L117.057 119.98L117.51 119.529V123.444L118.839 124.212V117.677H117.51L116.121 119.047Z" fill="#BAF3FF"/>
<path d="M121.932 117.677L120.543 119.047V125.176L120.845 125.356H121.872V119.589L122.446 119.002H127.007L127.596 119.604V124.664L128.94 123.896V119.047L127.535 117.677H121.932Z" fill="#BAF3FF"/>
<path d="M130.543 119.047L131.479 119.98L131.947 119.529V121.336L133.276 119.047V117.677H131.947L130.543 119.047Z" fill="#BAF3FF"/>
<path d="M50.1953 132.298L50.9655 133.623H54.877L55.466 134.225V136.981L56.795 137.749V133.668L55.4056 132.298H50.1953Z" fill="#BAF3FF"/>
<path d="M58.4141 133.668L59.3504 134.602L59.8035 134.15V138.999H61.1325V132.298H59.8035L58.4141 133.668Z" fill="#BAF3FF"/>
<path d="M64.2292 132.298L62.8398 133.668V138.999H64.1688V134.21L64.7427 133.623H69.3036L69.8926 134.225V137.568L71.2216 136.8V133.668L69.8322 132.298H64.2292Z" fill="#BAF3FF"/>
<path d="M72.8359 133.668L73.7723 134.602L74.2253 134.15V135.084L74.7539 134.783L75.5694 133.382V132.298H74.2253L72.8359 133.668Z" fill="#BAF3FF"/>
</g>
<path d="M109.13 98.7473L103.95 103.099L89.4061 106.563L88.0469 104.967L89.4061 103.461L98.6335 99.9972L109.13 98.7473Z" fill="#368899"/>
<path d="M109.13 98.7474L89.4061 103.461L88.0469 99.1841L89.4061 94.3503L91.46 92.3475L111.757 87.5137L111.38 93.0553L109.13 98.7474Z" fill="#4BA3B5"/>
<path d="M119.236 77.1985L117.379 87.3631L109.133 98.7474L110.447 89.3358L114.917 80.677L119.236 77.1985Z" fill="#4BA3B5"/>
<path d="M110.443 89.3354L89.4054 94.35L87.125 87.9651L89.4205 83.1011L109.975 76.897L110.443 89.3354Z" fill="#66BBCC"/>
<path d="M119.236 77.1989L117.379 67.0193L111.776 70.5882L109.133 78.4036L110.447 89.3362L119.236 77.1989Z" fill="#66BBCC"/>
<path d="M103.953 51.3428L109.194 55.6345L117.379 67.0188L108.378 59.7154L103.953 51.3428Z" fill="#7DD2E3"/>
<path d="M109.13 78.4039L89.4212 83.1022L88.0469 77.1992L89.4212 71.5522L104.372 66.2666L109.13 78.4039Z" fill="#7DD2E3"/>
<path d="M109.979 59.7161L117.379 67.0195L109.133 78.4039L103.953 68.0887L106.732 61.9146L109.979 59.7161Z" fill="#7DD2E3"/>
<path d="M89.4212 60.8299L88.0469 67.2298L89.4212 71.5516L103.95 68.0881L102.953 64.8053L97.5311 57.7729L89.4212 60.8299Z" fill="#BAF3FF"/>
<path d="M97.5938 49.4907L103.952 51.3429L109.978 59.7155L99.2248 54.8365L97.5938 49.4907Z" fill="#BAF3FF"/>
<path d="M100.914 54.1895L109.975 59.716L103.95 68.0886L97.5312 58.8878L98.3468 55.861L100.914 54.1895Z" fill="#BAF3FF"/>
<path d="M69.7148 98.7473L74.91 103.099L89.4384 106.563V103.461L80.2109 99.9972L69.7148 98.7473Z" fill="#368899"/>
<path d="M69.7137 98.7474L89.4372 103.461V94.3503L87.3833 92.3475L67.0859 87.5137L67.4635 93.0553L69.7137 98.7474Z" fill="#4BA3B5"/>
<path d="M59.6094 77.1985L61.4669 87.3631L69.7128 98.7474L68.3989 89.3358L63.9286 80.677L59.6094 77.1985Z" fill="#4BA3B5"/>
<path d="M68.4023 89.3354L89.4398 94.35L89.4246 83.1011L68.8705 76.897L68.4023 89.3354Z" fill="#66BBCC"/>
<path d="M59.6094 77.1989L61.4669 67.0193L67.0699 70.5882L69.7128 78.4036L68.3989 89.3362L59.6094 77.1989Z" fill="#66BBCC"/>
<path d="M74.8946 51.3428L69.6542 55.6345L61.4688 67.0188L70.4697 59.7154L74.8946 51.3428Z" fill="#7DD2E3"/>
<path d="M69.7148 78.4039L89.4233 83.1022V71.5522L74.472 66.2666L69.7148 78.4039Z" fill="#7DD2E3"/>
<path d="M68.8688 59.7161L61.4688 67.0195L69.7146 78.4039L74.9097 68.0887L72.1158 61.9146L68.8688 59.7161Z" fill="#7DD2E3"/>
<path d="M89.4234 60.8299V71.5516L74.9102 68.0881L75.8918 64.8053L81.2984 57.7729L89.4234 60.8299Z" fill="#BAF3FF"/>
<path d="M81.251 49.4907L74.893 51.3429L68.8672 59.7155L79.62 54.8365L81.251 49.4907Z" fill="#BAF3FF"/>
<path d="M77.9285 54.1895L68.8672 59.716L74.9081 68.0886L81.2963 58.8878L80.4959 55.861L77.9285 54.1895Z" fill="#BAF3FF"/>
<path d="M89.4085 52.2012L88.6836 56.4929L89.4236 60.8298L97.609 58.8872L94.8151 55.5291L89.4085 52.2012Z" fill="#E8F3FF"/>
<path d="M89.4093 52.201L88.8203 50.1379L89.4244 47.5479L97.6098 49.4904L95.2237 50.921L89.4093 52.201Z" fill="#E8F3FF"/>
<path d="M89.4062 52.2013L97.6068 49.4907L100.99 54.189H95.2206L89.4062 52.2013Z" fill="#E8F3FF"/>
<path d="M100.99 54.1889L89.4062 52.2012L97.6068 58.8872L100.99 54.1889Z" fill="#E8F3FF"/>
<path d="M89.4068 52.2012L89.4219 60.8298L81.2969 58.8872L84.1059 55.5291L89.4068 52.2012Z" fill="#E8F3FF"/>
<path d="M89.4091 52.201L89.4242 47.5479L81.2539 49.4904L83.6854 50.921L89.4091 52.201Z" fill="#E8F3FF"/>
<path d="M89.4074 52.2013L81.2522 49.4907L77.9297 54.189H83.6836L89.4074 52.2013Z" fill="#E8F3FF"/>
<path d="M77.9297 54.1889L89.4074 52.2012L81.2975 58.8872L77.9297 54.1889Z" fill="#E8F3FF"/>
<path d="M89.3901 52.2016L97.651 58.7672C97.651 58.7672 98.6931 60.2429 99.2065 60.9808L104.085 67.9981V68.0132C105.836 71.4315 107.603 74.8649 109.34 78.2982V78.3283V78.3585L110.624 89.291V89.3212L109.25 98.7328V98.7629H109.234L103.918 103.085L109.144 98.6726L109.114 98.7178L110.367 89.276V89.3212L109.038 78.3886V78.4338C107.286 75.0004 105.565 71.567 103.813 68.1336H103.828L98.9951 61.1012C98.4967 60.3634 97.4849 58.8876 97.4849 58.8876L89.375 52.1865L89.3901 52.2016Z" fill="white"/>
<path d="M89.3908 52.2012L81.4017 58.9475C81.4017 58.9475 80.3899 60.4081 79.8915 61.146L75.0286 68.1784H75.0437C73.3069 71.5967 71.6004 75.0451 69.8636 78.4635V78.4183L68.5497 89.3509V89.3207L69.8032 98.7475L69.773 98.7023L74.9229 103.099L69.6824 98.8077H69.6673V98.7776L68.293 89.3659V89.3207L69.5767 78.3882V78.3581V78.343C71.2983 74.8946 73.0351 71.4762 74.7869 68.0429V68.0278L79.68 61.0255C80.2086 60.2877 81.2356 58.8119 81.2356 58.8119L89.3908 52.2162V52.2012Z" fill="white"/>
<path d="M89.3932 52.2012L89.4989 60.8147L89.5291 64.2933L89.5744 78.4785L89.5593 92.6638L89.514 99.7564L89.4083 106.563L89.3479 99.7564L89.3026 92.6638L89.2422 78.4785L89.2724 64.2933L89.2875 60.7997L89.3932 52.2012Z" fill="white"/>
<path d="M89.3906 52.2012L100.838 53.9329C100.838 53.9329 101.246 54.1739 101.442 54.2943L103.164 55.3484C104.327 56.0562 105.475 56.7338 106.622 57.4566L110.066 59.595L110.081 59.61C111.304 60.8298 112.527 62.0646 113.751 63.2994C114.974 64.5342 116.182 65.769 117.39 67.0189C116.122 65.8293 114.868 64.6396 113.615 63.4349C112.376 62.2302 111.108 61.0406 109.869 59.8209L109.899 59.851L106.441 57.7428C105.293 57.0501 104.146 56.3272 102.998 55.6195L101.276 54.5503C101.155 54.475 100.899 54.3244 100.899 54.3244L89.3906 52.2162V52.2012Z" fill="white"/>
<path d="M89.3933 52.2012L78.0213 54.3094C78.0213 54.3094 76.5866 55.1828 75.8768 55.6345C74.7139 56.3272 73.5813 57.0501 72.4184 57.7428L68.96 59.8359L68.9902 59.8058C67.7518 61.0255 66.4983 62.2152 65.2599 63.4199C64.0064 64.6246 62.753 65.8142 61.4844 67.0038C62.6926 65.754 63.9007 64.5192 65.124 63.2843C66.3473 62.0495 67.5555 60.8147 68.7939 59.595L68.809 59.5799L72.2674 57.4566C73.4151 56.7489 74.578 56.0562 75.7258 55.3635C76.5111 54.8967 78.0817 53.948 78.0817 53.948L89.4084 52.2012H89.3933Z" fill="white"/>
<path d="M89.3891 52.201C89.3589 51.7793 89.3438 49.2495 89.3438 48.8278C89.3589 48.4062 89.3891 47.9695 89.4193 47.5479C89.4495 47.9695 89.4797 48.4062 89.4797 48.8278C89.4797 49.2495 89.4193 51.7793 89.3891 52.201Z" fill="white"/>
<path d="M89.3906 52.2013C90.2061 51.8399 96.7907 49.7015 97.6062 49.4907C96.8058 49.8672 90.191 52.0055 89.3906 52.2013Z" fill="white"/>
<path d="M89.3901 52.2013C88.6048 52.0055 82.0353 49.8371 81.25 49.4907C82.0353 49.7015 88.4085 51.7796 89.3901 52.2013Z" fill="white"/>
<path d="M81.2524 49.4907L77.9903 54.2493V54.1438L81.4186 58.812L81.3279 58.7518L89.4529 60.6793H89.3774L97.5779 58.7367L97.4873 58.797L100.916 54.1438V54.2342L97.6081 49.4907L101.067 54.1288L101.097 54.189L101.067 54.2342L97.729 58.9626L97.6988 59.0078L97.6383 59.0229L89.4529 60.9955H89.4076H89.3774L81.2675 59.0229L81.2222 59.0078L81.192 58.9777L77.8544 54.2493L77.8242 54.2041L77.8544 54.1438L81.2524 49.4907Z" fill="white"/>
<path d="M74.8932 51.3428L68.9429 59.7606V59.6552L75.014 68.0127L74.9385 67.9525L89.482 71.4009H89.4065L103.935 67.9374L103.844 67.9976L109.915 59.6552V59.7606L103.95 51.3428L110.051 59.6552L110.097 59.7154L110.051 59.7606L104.086 68.1633L104.056 68.2085L104.01 68.2235L89.482 71.7171H89.4367H89.4065L74.8781 68.2235H74.8177L74.7875 68.1784L68.7919 59.7606L68.7617 59.7154L68.7919 59.6552L74.8932 51.3428Z" fill="white"/>
<path d="M61.4648 67.0183L65.6482 72.6502L69.8315 78.3123L69.7409 78.2521L89.4191 82.9353H89.3436L109.173 78.2521L109.112 78.2972L113.22 72.6502L117.388 67.0183L113.371 72.7406L109.339 78.4629L109.309 78.5081L109.248 78.5231L89.4191 83.2666H89.3738H89.3436L69.6654 78.5382L69.62 78.5231L69.6049 78.4779L65.5122 72.7557L61.4648 67.0183Z" fill="white"/>
<path d="M59.6094 77.1985L64.0796 83.2069L68.5197 89.2454L68.4291 89.2002L89.4212 94.1846H89.3457L110.504 89.1852L110.413 89.2304L114.808 83.2069L119.233 77.1985L114.959 83.3123L110.64 89.396L110.61 89.4412L110.564 89.4562L89.4212 94.5159H89.3759H89.3457L68.3687 89.4713L68.3234 89.4562L68.2932 89.4261L63.9286 83.3123L59.6094 77.1985Z" fill="white"/>
<path d="M69.7109 98.7473C73.0032 99.4701 76.2804 100.223 79.5727 100.976L84.496 102.136L89.4193 103.295H89.3438L94.3125 102.136C95.9737 101.759 97.6199 101.352 99.2811 100.976L104.25 99.8466L109.233 98.7473L104.295 100.012L99.3415 101.232C97.7105 101.654 96.0341 102.03 94.4031 102.437L89.4496 103.626H89.4042H89.3589L84.4356 102.437L79.5274 101.247C76.2502 100.434 72.9881 99.6207 69.726 98.7624L69.7109 98.7473Z" fill="white"/>
<path d="M151.33 58.075L139.264 43.6337L113.756 36.8423L81.8599 39.5227L51.9575 50.9221L31.9471 68.089L27.3711 86.325L27.507 86.9123L39.5737 101.354L65.0814 108.145L96.9773 105.465L126.88 94.0652L146.89 76.8983L151.466 58.6623L151.33 58.0599V58.075ZM145.697 76.1755L126.185 92.9057L96.6752 104.154L65.2022 106.805L40.3288 100.179L28.7605 86.325L33.1552 68.8269L52.6673 52.0967L82.1771 40.8479L113.65 38.1976L138.524 44.8234L150.092 58.6773L145.712 76.1755H145.697Z" fill="white"/>
<path d="M148.579 97.0461L147.703 78.4637L147.567 78.0872L131.544 57.5924L104.601 40.3804L74.0947 31.1344L73.989 31.1042L47.9527 32.2487L47.5752 32.3842L32.8203 43.7836L33.7113 62.5768L49.8556 83.2373L76.798 100.449L107.305 109.695L107.41 109.725L133.431 108.581H133.643L148.564 97.0461H148.579ZM107.591 108.355L77.3719 99.1995L50.7769 82.2133L35.0252 62.0648L34.1946 44.401L48.2246 33.5739L73.8078 32.4595L104.027 41.6152L130.622 58.6013L146.374 78.7498L147.205 96.4136L133.19 107.256L107.607 108.37L107.591 108.355Z" fill="white"/>
<path d="M119.987 103.491L117.405 103.883L114.792 103.491L112.965 103.371L114.928 103.928L117.405 104.515L119.987 103.928L121.815 103.371L119.987 103.491Z" fill="#8A1C14"/>
<path d="M120.999 101.91H113.78L111.379 102.046L112.965 103.371L117.405 104.425L121.815 103.371L123.43 102.046L120.999 101.91Z" fill="#9A251D"/>
<path d="M124.215 96.0982L121.073 99.396H113.688L110.562 96.0982L108.297 95.4958L108.871 98.5829L111.378 102.046L117.404 103.492L123.429 102.046L125.906 98.5829L126.465 95.4958L124.215 96.0982Z" fill="#AA2E26"/>
<path d="M125.906 92.3782L124.064 92.9504L120.182 95.6308H114.579L110.713 92.9504L108.871 92.3782L108.297 95.4953L110.985 99.1847L117.404 100.721L123.822 99.1847L126.465 95.4953L125.906 92.3782Z" fill="#BA372F"/>
<path d="M123.43 88.9149L121.829 87.6199L122.01 88.5836L121.919 90.5864L119.609 92.8452H115.184L112.873 90.5864L112.783 88.5836L112.964 87.6199L111.348 88.9149L108.871 92.3784L111.378 95.857L117.404 97.2875L123.43 95.857L125.906 92.3784L123.43 88.9149Z" fill="#CA4137"/>
<path d="M121.829 87.62L119.88 87.0327L120.107 87.7254L119.971 88.7795L118.234 89.6228H116.528L114.821 88.7795L114.67 87.7254L114.897 87.0327L112.964 87.62L111.121 90.1499L112.964 92.7098L117.404 93.7639L121.829 92.7098L123.656 90.1499L121.829 87.62Z" fill="#DA4A40"/>
<path d="M119.882 87.0327L118.84 86.7917L119.037 87.3941L118.704 87.9211L118.07 88.1621H116.696L116.077 87.9211L115.744 87.3941L115.971 86.7917L114.899 87.0327L113.887 88.4783L114.929 89.9089L117.406 90.4811L119.897 89.9089L120.924 88.4783L119.882 87.0327Z" fill="#EA5349"/>
<path d="M118.84 88.4632L119.429 87.6199L118.84 86.7917L117.405 86.4453L115.971 86.8067L115.352 87.6199L115.971 88.4632L117.405 88.7945L118.84 88.4632Z" fill="#FA5C52"/>
<path d="M101.954 33.5894L100.036 33.8755L98.1024 33.5894L96.7734 33.499L98.2082 33.9207L100.036 34.3423L101.954 33.9207L103.298 33.499L101.954 33.5894Z" fill="#8A1C14"/>
<path d="M102.711 32.4146H97.3646L95.5977 32.52L96.7756 33.4988L100.038 34.2818L103.3 33.4988L104.493 32.52L102.711 32.4146Z" fill="#9A251D"/>
<path d="M105.081 28.1227L102.755 30.5622H97.2883L94.9927 28.1227L93.3164 27.6709L93.7393 29.9598L95.5968 32.5198L100.037 33.5889L104.492 32.5198L106.335 29.9598L106.742 27.6709L105.081 28.1227Z" fill="#AA2E26"/>
<path d="M106.335 25.3813L104.96 25.803L102.106 27.7757H97.9528L95.0985 25.803L93.7393 25.3813L93.3164 27.6703L95.3099 30.4109L100.037 31.5403L104.794 30.3959L106.742 27.6703L106.335 25.3813Z" fill="#BA372F"/>
<path d="M104.491 22.8222L103.313 21.8584L103.449 22.5662L103.374 24.057L101.667 25.7134H98.4049L96.6983 24.057L96.6379 22.5662L96.7738 21.8584L95.5656 22.8222L93.7383 25.3821L95.5959 27.9421L100.036 28.9962L104.491 27.9421L106.334 25.3821L104.491 22.8222Z" fill="#CA4137"/>
<path d="M103.316 21.8582L101.881 21.4365L102.047 21.9335L101.942 22.7165L100.658 23.3339H99.4044L98.1358 22.7165L98.0301 21.9335L98.1963 21.4365L96.7766 21.8582L95.4023 23.7254L96.7766 25.6228L100.039 26.4059L103.316 25.6228L104.66 23.7254L103.316 21.8582Z" fill="#DA4A40"/>
<path d="M101.878 21.4365L101.107 21.2407L101.243 21.6925L101.002 22.084L100.533 22.2647H99.5216L99.0685 22.084L98.8118 21.6925L98.9779 21.2407L98.1926 21.4365L97.4375 22.4906L98.2077 23.5598L100.035 23.9814L101.878 23.5598L102.633 22.4906L101.878 21.4365Z" fill="#EA5349"/>
<path d="M101.11 22.4757L101.533 21.8734L101.11 21.2409L100.038 21L98.9804 21.256L98.5273 21.8734L98.9955 22.4757L100.038 22.7317L101.11 22.4757Z" fill="#FA5C52"/>
<path d="M39.2996 50.3197L36.6718 50.7112L33.9987 50.3197L32.1562 50.1992L34.1497 50.7714L36.6718 51.3587L39.2845 50.7714L41.1572 50.1992L39.2996 50.3197Z" fill="#3E6669"/>
<path d="M40.3253 48.7085H32.9856L30.5391 48.8591L32.155 50.1993L36.6706 51.2835L41.1559 50.1993L42.8021 48.844L40.3253 48.7085Z" fill="#497577"/>
<path d="M43.5886 42.79L40.4171 46.1481H32.8811L29.7096 42.79L27.4141 42.1726L28.003 45.3349L30.5402 48.8586L36.6717 50.3193L42.8032 48.8436L45.3253 45.3349L45.8841 42.1726L43.5886 42.79Z" fill="#548385"/>
<path d="M45.3253 39.0256L43.4526 39.5979L39.5109 42.3235H33.8023L29.8606 39.5979L28.003 39.0256L27.4141 42.1729L30.1476 45.9526L36.6717 47.5037L43.1959 45.9225L45.8841 42.1729L45.3253 39.0256Z" fill="#5F9293"/>
<path d="M42.8041 35.4873L41.173 34.1772L41.3543 35.1561L41.2637 37.204L38.9077 39.4779H34.4224L32.0664 37.204L31.9758 35.1561L32.157 34.1772L30.5109 35.4873L28.0039 39.0261L30.5411 42.5499L36.6726 44.0105L42.8041 42.5499L45.3262 39.0261L42.8041 35.4873Z" fill="#6BA0A1"/>
<path d="M41.17 34.1762L39.1916 33.5889L39.4181 34.2816L39.2822 35.3507L37.5152 36.2091H35.7785L34.0417 35.3507L33.8907 34.2816L34.1323 33.5889L32.1539 34.1762L30.2812 36.7512L32.1539 39.3563L36.6695 40.4255L41.17 39.3563L43.0275 36.7512L41.17 34.1762Z" fill="#76AFAF"/>
<path d="M39.1951 33.5895L38.1379 33.3335L38.3342 33.9358L38.002 34.478L37.3526 34.734H35.9481L35.3289 34.478L34.9815 33.9358L35.2081 33.3335L34.1358 33.5895L33.0938 35.0502L34.1509 36.5109L36.673 37.0831L39.2102 36.5109L40.2522 35.0502L39.1951 33.5895Z" fill="#81BDBD"/>
<path d="M38.1389 35.0197L38.7279 34.1765L38.1389 33.3332L36.674 32.9868L35.209 33.3482L34.5898 34.1765L35.2241 35.0197L36.674 35.3661L38.1389 35.0197Z" fill="#8CCCCB"/>
<path d="M112.291 47.6241L111.596 47.7294L110.901 47.6241L110.418 47.594L110.931 47.7294L111.596 47.895L112.291 47.7294L112.774 47.594L112.291 47.6241Z" fill="#BD484A"/>
<path d="M112.563 47.2024H110.63L109.996 47.2325L110.419 47.5939L111.597 47.865L112.775 47.5939L113.198 47.2325L112.563 47.2024Z" fill="#C65355"/>
<path d="M113.408 45.6512L112.578 46.5246H110.614L109.784 45.6512L109.18 45.4856L109.331 46.3138L109.995 47.2324L111.596 47.6239L113.197 47.2324L113.876 46.3138L114.012 45.4856L113.408 45.6512Z" fill="#D05E60"/>
<path d="M113.876 44.6584L113.378 44.809L112.351 45.5319H110.841L109.814 44.809L109.331 44.6584L109.18 45.4867L109.889 46.4805L111.596 46.8721L113.318 46.4655L114.012 45.4867L113.876 44.6584Z" fill="#D9696B"/>
<path d="M113.198 43.7392L112.775 43.3928L112.836 43.6488L112.806 44.1759L112.186 44.7782H111.008L110.389 44.1759L110.374 43.6488L110.419 43.3928L109.997 43.7392L109.332 44.6577L109.997 45.5763L111.597 45.9679L113.198 45.5763L113.878 44.6577L113.198 43.7392Z" fill="#E37375"/>
<path d="M112.772 43.3929L112.259 43.2273L112.319 43.4231L112.274 43.6941L111.821 43.92H111.368L110.915 43.6941L110.869 43.4231L110.93 43.2273L110.416 43.3929L109.918 44.0706L110.416 44.7482L111.594 45.0193L112.772 44.7482L113.271 44.0706L112.772 43.3929Z" fill="#EC7E80"/>
<path d="M112.261 43.2267L111.989 43.1665L112.034 43.3321L111.944 43.4677L111.778 43.5279H111.415L111.249 43.4677L111.159 43.3321L111.219 43.1665L110.932 43.2267L110.66 43.6183L110.932 43.9947L111.596 44.1453L112.261 43.9947L112.533 43.6183L112.261 43.2267Z" fill="#F6898B"/>
<path d="M111.991 43.6188L112.142 43.3929L111.991 43.167L111.598 43.0767L111.221 43.167L111.055 43.3929L111.221 43.6188L111.598 43.7091L111.991 43.6188Z" fill="#FF9496"/>
<path d="M30.9914 79.4725L29.4359 79.6984L27.8803 79.4725L26.793 79.3972L27.9558 79.7285L29.4359 80.0749L30.9763 79.7285L32.0787 79.3972L30.9914 79.4725Z" fill="#FF8E1C"/>
<path d="M31.5977 78.5232H27.2785L25.8438 78.6135L26.7952 79.3966L29.4381 80.0291L32.081 79.3966L33.0475 78.5985L31.5977 78.5232Z" fill="#FF982D"/>
<path d="M33.5144 75.0455L31.6417 77.0182H27.2168L25.3592 75.0455L24 74.6841L24.3474 76.5363L25.8425 78.6144L29.4368 79.4727L33.0462 78.5993L34.5263 76.5363L34.8585 74.6841L33.5144 75.0455Z" fill="#FEA13E"/>
<path d="M34.5263 72.8311L33.4238 73.1623L31.1132 74.7736H27.7605L25.4498 73.1623L24.3474 72.8311L24 74.6833L25.6008 76.8969L29.4368 77.8155L33.2879 76.8969L34.8585 74.6833L34.5263 72.8311Z" fill="#FEAB4F"/>
<path d="M33.0465 70.7536L32.08 69.9856L32.2008 70.5578L32.1404 71.7625L30.751 73.1027H28.1232L26.7338 71.7625L26.6885 70.5578L26.7942 69.9856L25.8277 70.7536L24.3477 72.8317L25.8428 74.9098L29.4371 75.7681L33.0465 74.9098L34.5266 72.8317L33.0465 70.7536Z" fill="#FEB560"/>
<path d="M32.0796 69.9853L30.9319 69.6389L31.0527 70.0455L30.9772 70.678L29.9502 71.1749H28.9233L27.9114 70.678L27.8057 70.0455L27.9567 69.6389L26.7939 69.9853L25.6914 71.4911L26.7939 73.0271L29.4368 73.6445L32.0796 73.0271L33.1821 71.4911L32.0796 69.9853Z" fill="#FEBF71"/>
<path d="M30.9303 69.6389L30.296 69.4883L30.4168 69.8497L30.2205 70.1659L29.8429 70.3014H29.0123L28.6498 70.1659L28.4535 69.8497L28.5743 69.4883L27.9551 69.6389L27.3359 70.4972L27.9551 71.3556L29.4351 71.6868L30.9303 71.3556L31.5344 70.4972L30.9303 69.6389Z" fill="#FDC882"/>
<path d="M30.299 70.4821L30.6614 69.9852L30.299 69.4882L29.4381 69.2925L28.5773 69.5033L28.2148 69.9852L28.5924 70.4821L29.4381 70.6929L30.299 70.4821Z" fill="#FDD293"/>
<path d="M150.132 98.7472L148.592 98.9882L147.021 98.7472L145.934 98.687L147.112 99.0183L148.592 99.3647L150.132 99.0183L151.219 98.687L150.132 98.7472Z" fill="#FF8E1C"/>
<path d="M150.738 97.814H146.419L144.984 97.8893L145.936 98.6874L148.594 99.3198L151.222 98.6874L152.188 97.8893L150.738 97.814Z" fill="#FF982D"/>
<path d="M152.655 94.3353L150.782 96.308H146.357L144.5 94.3353L143.141 93.9739L143.488 95.8261L144.983 97.8891L148.593 98.7475L152.187 97.8891L153.682 95.8261L153.999 93.9739L152.655 94.3353Z" fill="#FEA13E"/>
<path d="M153.682 92.1218L152.564 92.4531L150.254 94.0493H146.901L144.59 92.4531L143.488 92.1218L143.141 93.974L144.757 96.1877L148.593 97.0912L152.428 96.1726L153.999 93.974L153.682 92.1218Z" fill="#FEAB4F"/>
<path d="M152.187 90.0438L151.236 89.2607L151.341 89.848L151.296 91.0377L149.907 92.3929H147.264L145.874 91.0377L145.829 89.848L145.935 89.2607L144.968 90.0438L143.488 92.1219L144.983 94.1849L148.593 95.0433L152.187 94.1849L153.682 92.1219L152.187 90.0438Z" fill="#FEB560"/>
<path d="M151.235 89.2604L150.073 88.9141L150.208 89.3357L150.118 89.9531L149.091 90.4651H148.064L147.052 89.9531L146.961 89.3357L147.097 88.9141L145.934 89.2604L144.832 90.7813L145.934 92.3023L148.592 92.9347L151.235 92.3023L152.323 90.7813L151.235 89.2604Z" fill="#FEBF71"/>
<path d="M150.071 88.914L149.452 88.7634L149.558 89.1248L149.362 89.4411L148.984 89.5917H148.169L147.791 89.4411L147.595 89.1248L147.731 88.7634L147.096 88.914L146.492 89.7724L147.111 90.6458L148.591 90.9771L150.071 90.6458L150.691 89.7724L150.071 88.914Z" fill="#FDC882"/>
<path d="M149.455 89.7723L149.803 89.2754L149.455 88.7634L148.594 88.5676L147.734 88.7784L147.371 89.2754L147.734 89.7723L148.594 89.9681L149.455 89.7723Z" fill="#FDD293"/>
<path d="M68.3196 49.7929L67.0964 49.9736L65.8731 49.7929L65.0273 49.7327L65.9335 50.0037L67.0964 50.2748L68.3045 50.0037L69.1654 49.7327L68.3196 49.7929Z" fill="#5F9FAD"/>
<path d="M68.7895 49.0552H65.4066L64.2891 49.1154L65.0291 49.7328L67.0981 50.2298L69.1671 49.7328L69.9222 49.1154L68.7895 49.0552Z" fill="#6CABB9"/>
<path d="M70.3003 46.3293L68.8354 47.8804H65.3619L63.897 46.3293L62.8398 46.0432L63.1117 47.4888L64.2897 49.1152L67.0987 49.7928L69.9228 49.1152L71.1008 47.4888L71.3424 46.0432L70.3003 46.3293Z" fill="#79B7C4"/>
<path d="M71.1008 44.5818L70.2248 44.8528L68.4126 46.1027H65.7848L63.9725 44.8528L63.1117 44.5818L62.8398 46.0425L64.0933 47.7742L67.0987 48.497L70.1191 47.7742L71.3424 46.0425L71.1008 44.5818Z" fill="#86C3D0"/>
<path d="M69.9205 42.9563L69.1805 42.354L69.256 42.8058L69.2258 43.7394L68.1384 44.8086H66.0694L64.9821 43.7394L64.9367 42.8058L65.0274 42.354L64.2722 42.9563L63.1094 44.5827L64.2874 46.209L67.0964 46.8867L69.9205 46.209L71.0985 44.5827L69.9205 42.9563Z" fill="#93CFDC"/>
<path d="M69.1853 42.3538L68.2641 42.0828L68.3698 42.399L68.3094 42.8959L67.4938 43.2875H66.6934L65.9081 42.8959L65.8326 42.399L65.9383 42.0828L65.0322 42.3538L64.1562 43.5435L65.0322 44.7331L67.1012 45.23L69.1853 44.7331L70.031 43.5435L69.1853 42.3538Z" fill="#A0DBE8"/>
<path d="M68.2621 42.0829L67.7789 41.9624L67.8695 42.2485L67.7185 42.4895L67.4164 42.6099H66.767L66.4801 42.4895L66.3291 42.2485L66.4348 41.9624L65.9364 42.0829L65.4531 42.7605L65.9364 43.4231L67.0993 43.6941L68.2772 43.4231L68.7454 42.7605L68.2621 42.0829Z" fill="#ADE7F3"/>
<path d="M67.7756 42.7452L68.0474 42.3536L67.7756 41.9621L67.096 41.8115L66.4315 41.9772L66.1445 42.3536L66.4315 42.7452L67.096 42.9108L67.7756 42.7452Z" fill="#BAF3FF"/>
<path d="M78.2651 35.0958L77.4647 35.2162L76.6642 35.0958L76.1055 35.0657L76.7096 35.2312L77.4647 35.4118L78.25 35.2312L78.8239 35.0657L78.2651 35.0958Z" fill="#73556F"/>
<path d="M78.5621 34.6135H76.3421L75.6172 34.6587L76.1005 35.0653L77.4597 35.3815L78.8189 35.0653L79.3021 34.6587L78.5621 34.6135Z" fill="#81627D"/>
<path d="M79.546 32.8359L78.5946 33.8448H76.3141L75.3627 32.8359L74.668 32.6401L74.8492 33.5888L75.6194 34.658L77.4619 35.0947L79.3044 34.658L80.0746 33.5888L80.2407 32.6401L79.546 32.8359Z" fill="#8F708B"/>
<path d="M80.0746 31.6917L79.5007 31.8573L78.3227 32.6855H76.6011L75.408 31.8573L74.8492 31.6917L74.668 32.6403L75.4986 33.7848L77.4619 34.2516L79.4252 33.7697L80.2407 32.6403L80.0746 31.6917Z" fill="#9D7D99"/>
<path d="M79.3028 30.6225L78.8195 30.231L78.88 30.5171L78.8497 31.1345L78.1399 31.8272H76.7807L76.0709 31.1345L76.0407 30.5171L76.1011 30.231L75.6028 30.6225L74.8477 31.6916L75.6179 32.7608L77.4603 33.1975L79.3028 32.7608L80.073 31.6916L79.3028 30.6225Z" fill="#AC8AA8"/>
<path d="M78.8196 30.2317L78.2155 30.051L78.2911 30.2618L78.2457 30.5781L77.7172 30.8341H77.1886L76.6751 30.5781L76.6298 30.2618L76.6902 30.051L76.1012 30.2317L75.5273 30.9997L76.1012 31.7828L77.4604 32.1141L78.8196 31.7828L79.3784 30.9997L78.8196 30.2317Z" fill="#BA97B6"/>
<path d="M78.218 30.0509L77.9008 29.9756L77.9613 30.1563L77.8555 30.3219L77.6743 30.3972H77.2515L77.0551 30.3219L76.9494 30.1563L77.0249 29.9756L76.6927 30.0509L76.3906 30.4876L76.7078 30.9243L77.4629 31.105L78.2331 30.9243L78.5351 30.4876L78.218 30.0509Z" fill="#C8A5C4"/>
<path d="M77.9004 30.4873L78.0816 30.2313L77.9004 29.9753L77.4624 29.8699L77.0245 29.9753L76.8281 30.2313L77.0245 30.4873L77.4624 30.5927L77.9004 30.4873Z" fill="#D6B2D2"/>
<path d="M40.761 104.409L39.5529 104.59L38.3296 104.409L37.4688 104.349L38.39 104.605L39.5529 104.891L40.761 104.605L41.6219 104.349L40.761 104.409Z" fill="#69854E"/>
<path d="M41.2309 103.672H37.848L36.7305 103.732L37.4705 104.349L39.5546 104.846L41.6236 104.349L42.3787 103.732L41.2309 103.672Z" fill="#789154"/>
<path d="M42.7418 100.945L41.2768 102.481H37.8033L36.3384 100.945L35.2812 100.659L35.5531 102.104L36.7311 103.731L39.5552 104.408L42.3793 103.731L43.5422 102.104L43.7989 100.659L42.7418 100.945Z" fill="#869E5A"/>
<path d="M43.5422 99.1982L42.6813 99.4693L40.854 100.719H38.2262L36.4139 99.4693L35.5531 99.1982L35.2812 100.659L36.5498 102.391L39.5552 103.098L42.5605 102.391L43.7989 100.659L43.5422 99.1982Z" fill="#95AA60"/>
<path d="M42.377 97.5726L41.6219 96.9702L41.7125 97.422L41.6672 98.3556L40.5798 99.4097H38.5108L37.4235 98.3556L37.3933 97.422L37.4688 96.9702L36.7137 97.5726L35.5508 99.1989L36.7288 100.825L39.5529 101.503L42.377 100.825L43.5399 99.1989L42.377 97.5726Z" fill="#A3B665"/>
<path d="M41.6233 96.9703L40.7172 96.6992L40.8229 97.0154L40.7474 97.5124L39.947 97.9039H39.1465L38.3461 97.5124L38.2706 97.0154L38.3763 96.6992L37.4702 96.9703L36.6094 98.1599L37.4702 99.3495L39.5543 99.8465L41.6233 99.3495L42.4841 98.1599L41.6233 96.9703Z" fill="#B2C26B"/>
<path d="M40.7153 96.6991L40.232 96.5786L40.3075 96.8647L40.1565 97.1057L39.8695 97.2261H39.2201L38.9332 97.1057L38.7671 96.8647L38.8728 96.5786L38.3744 96.6991L37.9062 97.3617L38.3895 98.0393L39.5524 98.3104L40.7153 98.0393L41.1985 97.3617L40.7153 96.6991Z" fill="#C0CF71"/>
<path d="M40.2321 97.3616L40.5039 96.9701L40.2321 96.5786L39.5525 96.428L38.8729 96.5936L38.5859 96.9701L38.8729 97.3616L39.5525 97.5273L40.2321 97.3616Z" fill="#CFDB77"/>
<path d="M131.511 63.9785L129.653 64.2646L127.795 63.9785L126.512 63.8882L127.901 64.2948L129.653 64.7014L131.495 64.2948L132.809 63.8882L131.511 63.9785Z" fill="#E09D38"/>
<path d="M132.22 62.8486H127.085L125.363 62.954L126.511 63.8877L129.652 64.6557L132.809 63.8877L133.956 62.954L132.22 62.8486Z" fill="#E4A841"/>
<path d="M134.502 58.7078L132.282 61.0569H127.012L124.792 58.7078L123.176 58.2861L123.584 60.4847L125.366 62.9543L129.655 63.9783L133.959 62.9543L135.726 60.4847L136.118 58.2861L134.502 58.7078Z" fill="#E9B44B"/>
<path d="M135.726 56.072L134.412 56.4786L131.648 58.376H127.646L124.897 56.4786L123.584 56.072L123.176 58.2856L125.094 60.9209L129.655 62.0051L134.231 60.9058L136.118 58.2856L135.726 56.072Z" fill="#EDBF54"/>
<path d="M133.961 53.588L132.813 52.6694L132.949 53.3621L132.889 54.7927L131.228 56.3889H128.086L126.44 54.7927L126.38 53.3621L126.516 52.6694L125.353 53.588L123.586 56.0727L125.368 58.5423L129.657 59.5512L133.961 58.5423L135.728 56.0727L133.961 53.588Z" fill="#F2CA5E"/>
<path d="M132.81 52.6688L131.421 52.2622L131.587 52.7591L131.481 53.497L130.258 54.0994H129.035L127.826 53.497L127.721 52.7591L127.887 52.2622L126.513 52.6688L125.184 54.4758L126.513 56.2979L129.654 57.0509L132.81 56.2979L134.109 54.4758L132.81 52.6688Z" fill="#F6D567"/>
<path d="M131.423 52.2618L130.698 52.0811L130.834 52.5178L130.592 52.8792L130.139 53.0599H129.158L128.72 52.8792L128.478 52.5178L128.644 52.0811L127.889 52.2618L127.164 53.2857L127.904 54.3097L129.656 54.7163L131.438 54.3097L132.163 53.2857L131.423 52.2618Z" fill="#FBE171"/>
<path d="M130.699 53.2709L131.107 52.6836L130.699 52.0813L129.657 51.8403L128.645 52.0963L128.207 52.6836L128.645 53.2709L129.657 53.5118L130.699 53.2709Z" fill="#FFEC7A"/>
<path d="M70.1033 121.486L68.4119 121.742L66.7204 121.486L65.5273 121.411L66.7959 121.773L68.4119 122.164L70.0882 121.773L71.2813 121.411L70.1033 121.486Z" fill="#E09D38"/>
<path d="M70.7523 120.462H66.0555L64.5 120.552L65.527 121.41L68.4115 122.103L71.2809 121.41L72.3381 120.552L70.7523 120.462Z" fill="#E4A841"/>
<path d="M72.8523 116.682L70.8135 118.821H65.9959L63.9722 116.682L62.4922 116.291L62.8697 118.309L64.5008 120.552L68.4123 121.486L72.3388 120.552L73.9548 118.309L74.3172 116.291L72.8523 116.682Z" fill="#E9B44B"/>
<path d="M73.9548 114.272L72.7617 114.634L70.2396 116.38H66.5849L64.0628 114.634L62.8697 114.272L62.4922 116.29L64.244 118.699L68.4123 119.678L72.5956 118.684L74.3172 116.29L73.9548 114.272Z" fill="#EDBF54"/>
<path d="M72.3402 111.998L71.2981 111.17L71.419 111.788L71.3585 113.098L69.8483 114.558H66.9789L65.4687 113.098L65.4234 111.788L65.5291 111.17L64.487 111.998L62.8711 114.272L64.5021 116.516L68.4136 117.45L72.3402 116.516L73.9561 114.272L72.3402 111.998Z" fill="#F2CA5E"/>
<path d="M71.2981 111.171L70.0295 110.78L70.1805 111.231L70.0899 111.924L68.9723 112.466H67.8548L66.7372 111.924L66.6466 111.231L66.7976 110.78L65.529 111.171L64.3359 112.812L65.529 114.469L68.4135 115.162L71.2981 114.469L72.4911 112.812L71.2981 111.171Z" fill="#F6D567"/>
<path d="M70.0292 110.779L69.3647 110.629L69.4855 111.02L69.2741 111.352L68.8512 111.517H67.9602L67.5524 111.352L67.341 111.02L67.4769 110.629L66.7973 110.779L66.1328 111.728L66.7973 112.662L68.4132 113.023L70.0443 112.662L70.7088 111.728L70.0292 110.779Z" fill="#FBE171"/>
<path d="M69.3625 111.713L69.74 111.171L69.3625 110.628L68.411 110.403L67.4747 110.628L67.082 111.171L67.4898 111.713L68.411 111.924L69.3625 111.713Z" fill="#FFEC7A"/>
</svg>
