<svg width="112" height="48" viewBox="0 0 112 48" fill="none" xmlns="http://www.w3.org/2000/svg">
<path d="M74.1141 43.6626C72.8966 43.6626 71.9102 42.6801 71.9102 41.4676V19.1481C71.9102 17.9356 72.8966 16.9531 74.1141 16.9531C75.3316 16.9531 76.318 17.9356 76.318 19.1481V41.4645C76.318 42.677 75.3316 43.6594 74.1141 43.6594" fill="white"/>
<path d="M4.94691 17.2808C4.94691 18.5027 3.9542 19.4913 2.72736 19.4913C1.50052 19.4913 0.507812 18.5027 0.507812 17.2808C0.507812 16.059 1.50052 15.0703 2.72736 15.0703C3.9542 15.0703 4.94691 16.059 4.94691 17.2808Z" fill="#EE7500"/>
<path d="M61.8805 17.2808C61.8805 18.5027 60.8878 19.4913 59.661 19.4913C58.4341 19.4913 57.4414 18.5027 57.4414 17.2808C57.4414 16.059 58.4341 15.0703 59.661 15.0703C60.8878 15.0703 61.8805 16.059 61.8805 17.2808Z" fill="#EE7500"/>
<path d="M105.347 4.01372H97.5458V2.19496C97.5458 0.982444 96.5593 0 95.3417 0C94.1242 0 93.1377 0.982444 93.1377 2.19496V4.01372H85.3954C84.1779 4.01372 83.1914 4.99617 83.1914 6.20868C83.1914 7.42119 84.1779 8.40363 85.3954 8.40363H88.0334C87.4091 9.5664 87.0563 10.8908 87.0563 12.2961C87.0563 16.8632 90.7869 20.5785 95.373 20.5785C99.959 20.5785 103.69 16.8632 103.69 12.2961C103.69 10.8908 103.334 9.5664 102.709 8.40363H105.347C106.565 8.40363 107.551 7.42119 107.551 6.20868C107.551 4.99617 106.565 4.01372 105.347 4.01372ZM95.373 16.1917C93.2158 16.1917 91.4644 14.4444 91.4644 12.2992C91.4644 10.154 93.2189 8.40674 95.373 8.40674C97.5271 8.40674 99.2816 10.154 99.2816 12.2992C99.2816 14.4444 97.5271 16.1917 95.373 16.1917Z" fill="white"/>
<path d="M68.8339 37.0905C64.8911 33.7421 62.119 29.5419 60.8141 24.9467C60.8141 24.9374 60.8079 24.9312 60.8048 24.9219C60.9234 25.3136 60.9328 25.7458 60.8048 26.1686C60.2741 27.9532 59.553 29.6973 58.6602 31.3762C60.4208 34.7463 62.8932 37.8211 65.9681 40.4327C66.3833 40.784 66.8922 40.9581 67.3979 40.9581C68.0222 40.9581 68.6403 40.6969 69.0774 40.1871C69.8672 39.2637 69.7579 37.8802 68.8307 37.0936L68.8339 37.0905Z" fill="white"/>
<path d="M60.8025 24.9217C60.79 24.8781 60.7744 24.8377 60.7588 24.7942C60.7494 24.7662 60.7401 24.7382 60.7276 24.7103C60.712 24.673 60.6964 24.6388 60.6808 24.6046C60.6651 24.5735 60.6527 24.5424 60.6371 24.5113C60.6214 24.4802 60.6027 24.4522 60.5871 24.4242C60.5684 24.39 60.5496 24.3589 60.5278 24.3247C60.5091 24.2968 60.4903 24.2719 60.4716 24.247C60.4497 24.2159 60.4279 24.1848 60.4029 24.1538C60.3811 24.1258 60.3561 24.0978 60.3311 24.0729C60.3093 24.048 60.2874 24.0232 60.2624 23.9983C60.2312 23.9672 60.2 23.9392 60.1688 23.9112C60.1469 23.8926 60.1282 23.8739 60.1095 23.8553C60.0751 23.8273 60.0408 23.7993 60.0033 23.7745C59.9815 23.7589 59.9596 23.7434 59.9377 23.7278C59.9065 23.7061 59.8722 23.6843 59.8379 23.6656C59.8098 23.6501 59.7817 23.6314 59.7536 23.6159C59.7255 23.6003 59.6974 23.5879 59.6693 23.5755C59.6287 23.5568 59.5912 23.5382 59.5506 23.5195C59.5319 23.5102 59.5101 23.504 59.4913 23.4978C59.4414 23.4791 59.3883 23.4604 59.3352 23.4449C59.3196 23.4418 59.3071 23.4356 59.2915 23.4325C59.2322 23.4169 59.176 23.4014 59.1167 23.3889C59.1042 23.3889 59.0886 23.3827 59.0761 23.3827C59.0168 23.3734 58.9606 23.3641 58.9013 23.3578C58.8857 23.3578 58.8701 23.3578 58.8545 23.3547C58.7983 23.3516 58.7421 23.3485 58.6828 23.3485C58.6671 23.3485 58.6484 23.3485 58.6328 23.3485C58.5766 23.3485 58.5235 23.3547 58.4674 23.3578C58.4486 23.3578 58.4299 23.361 58.4112 23.3641C58.3581 23.3703 58.305 23.3796 58.2551 23.3889C58.2363 23.392 58.2176 23.3983 58.1989 23.4014C58.1458 23.4138 58.0958 23.4262 58.0428 23.4418C58.0272 23.4449 58.0147 23.4511 58.0022 23.4573C57.946 23.476 57.8898 23.4946 57.8336 23.5195C57.8305 23.5195 57.8274 23.5226 57.8242 23.5257C57.5682 23.6345 57.3341 23.7931 57.1374 23.989C57.1281 23.9983 57.1218 24.0076 57.1124 24.0138C57.0719 24.0543 57.0344 24.0978 56.9969 24.1413C56.9813 24.16 56.9657 24.1817 56.9501 24.2035C56.922 24.2377 56.897 24.2719 56.8721 24.3092C56.8533 24.3341 56.8377 24.3621 56.8221 24.39C56.8003 24.4242 56.7815 24.4553 56.7628 24.4926C56.7472 24.5206 56.7347 24.5486 56.7222 24.5735C56.7035 24.6108 56.6848 24.6481 56.6691 24.6885C56.6598 24.7134 56.6504 24.7382 56.641 24.7631C56.6254 24.8066 56.6067 24.8533 56.5942 24.8999C56.5942 24.9061 56.588 24.9155 56.5849 24.9217C55.0988 29.9272 51.8209 34.5813 47.3504 38.023C42.5989 41.6792 37.0294 43.613 31.2446 43.613C19.7967 43.613 8.88261 35.5824 5.85752 24.9372C5.5266 23.7713 4.30907 23.0936 3.13524 23.4231C1.96454 23.7527 1.28397 24.9683 1.61489 26.1342C3.3288 32.1688 7.24675 37.7028 12.6476 41.7196C18.0921 45.7737 24.698 48.0029 31.2415 48.0029C37.7849 48.0029 44.5094 45.752 50.0414 41.4958C53.6628 38.7101 56.6161 35.2218 58.6671 31.3697C59.56 29.694 60.2812 27.9498 60.8119 26.1622C60.9367 25.7393 60.9274 25.3103 60.8119 24.9155L60.8025 24.9217Z" fill="#EE7500"/>
<path d="M3.89904 7.38267C3.64618 7.24898 3.36522 7.14327 3.06554 7.06866C2.45992 6.91632 1.41102 6.73599 1.17065 6.07999C1.01768 5.66028 1.24245 5.18149 1.62018 4.96697C2.0978 4.69649 2.83453 4.64985 3.32776 4.91412C3.48073 4.99495 3.61808 5.13486 3.7929 5.29653C3.80227 5.30585 3.81475 5.31518 3.82412 5.32451C3.83036 5.33073 3.83348 5.33383 3.83973 5.33694C3.91777 5.39601 4.01766 5.43332 4.12693 5.43332C4.37666 5.43332 4.57958 5.23435 4.57645 4.99806C4.57645 4.88614 4.52651 4.78354 4.45471 4.70893C4.27052 4.51306 3.99269 4.29854 3.74295 4.16174C3.42454 3.98764 2.96564 3.90991 2.58479 3.90991C2.16336 3.90991 1.71071 3.97209 1.41414 4.09334C1.11446 4.21459 0.867841 4.36694 0.674293 4.55037C0.483868 4.73069 0.34339 4.93277 0.25286 5.15351C0.16233 5.37425 0.118626 5.57945 0.118626 5.77531C0.118626 6.20746 0.202912 6.54945 0.374607 6.80439C0.546302 7.05933 0.75858 7.20545 1.01456 7.35469C1.27054 7.50392 1.54526 7.62206 1.84806 7.70911C2.14775 7.79306 2.63162 7.90809 2.8876 8.00136C3.20289 8.11328 3.54941 8.21899 3.73047 8.51123C3.9084 8.80037 3.86158 9.1921 3.69301 9.47502C3.31215 10.1217 2.39124 10.1683 1.72319 9.99112C1.50467 9.93516 1.31737 9.84189 1.14255 9.70509C0.930275 9.5341 0.761702 9.23874 0.449529 9.24185C0.199791 9.24185 0 9.44083 0 9.67711C0 9.77038 0.034339 9.85743 0.0874084 9.92583C0.736728 10.7777 2.10092 11.1383 3.1467 10.8274C3.45888 10.7342 3.82412 10.5694 4.07698 10.3673C4.2955 10.1932 4.46719 9.97557 4.59831 9.71753C4.7263 9.45948 4.79185 9.17034 4.79185 8.85322C4.79185 8.45216 4.70445 8.13815 4.53275 7.90809C4.36105 7.67802 4.14878 7.52568 3.89592 7.39199" fill="white"/>
<path d="M25.5919 4.00757C25.3422 4.00757 25.1393 4.20965 25.1393 4.45837V8.15809C25.1393 8.36639 25.1112 8.58091 25.055 8.80165C24.9988 9.02239 24.902 9.23069 24.7709 9.41723C24.6398 9.60688 24.465 9.75922 24.2527 9.87736C24.0373 9.99551 23.772 10.0546 23.4598 10.0546C23.1476 10.0546 22.8823 9.99551 22.6669 9.87736C22.4546 9.75922 22.2798 9.60377 22.1487 9.41723C22.0176 9.23069 21.9208 9.02239 21.8646 8.80165C21.8084 8.5778 21.7803 8.36328 21.7803 8.15809V4.45837C21.7803 4.20965 21.5774 4.00757 21.3277 4.00757C21.0779 4.00757 20.875 4.20965 20.875 4.45837V8.29799C20.875 8.68662 20.9406 9.03793 21.0717 9.35505C21.2059 9.67217 21.387 9.94576 21.6211 10.1789C21.8552 10.4121 22.1268 10.5893 22.4421 10.7137C22.7574 10.838 23.0977 10.9002 23.4629 10.9002C23.8282 10.9002 24.1684 10.838 24.4837 10.7137C24.799 10.5893 25.0737 10.409 25.3047 10.1789C25.5389 9.94576 25.7199 9.67217 25.8542 9.35505C25.9853 9.03793 26.0508 8.68662 26.0508 8.29799V4.45837C26.0508 4.20965 25.8479 4.00757 25.5982 4.00757" fill="white"/>
<path d="M44.4851 5.54525C44.6911 5.29964 44.9377 5.10688 45.228 4.96697C45.5184 4.82396 45.843 4.75556 46.202 4.75556C46.4955 4.75556 46.7671 4.82396 47.0511 4.93899C47.2728 5.02915 47.5069 5.23435 47.6568 5.41156C47.7348 5.49861 47.8472 5.55457 47.9689 5.55457C48.2062 5.55457 48.3997 5.35249 48.3997 5.10377C48.3997 5.0105 48.3716 4.92345 48.3248 4.84883C48.1781 4.61566 47.869 4.33274 47.4632 4.16485C47.0605 3.99386 46.6484 3.90991 46.227 3.90991C45.7369 3.90991 45.2874 3.99696 44.8815 4.17418C44.4757 4.34828 44.1261 4.597 43.8358 4.91101C43.5454 5.22813 43.3207 5.60432 43.1583 6.03958C43.0023 6.45929 42.9242 6.91632 42.918 7.40754C42.9242 7.89876 43.0023 8.35578 43.1583 8.7755C43.3207 9.21076 43.5454 9.58695 43.8358 9.90407C44.1261 10.2212 44.4757 10.4668 44.8815 10.6409C45.2874 10.815 45.7369 10.9052 46.227 10.9052C46.6453 10.9052 47.0574 10.8212 47.4632 10.6502C47.8659 10.4823 48.175 10.1963 48.3248 9.96625C48.3716 9.89474 48.3997 9.80458 48.3997 9.71131C48.3997 9.46259 48.2062 9.2605 47.9689 9.2605C47.8472 9.2605 47.7348 9.31647 47.6568 9.40352C47.5069 9.57762 47.2728 9.78592 47.0511 9.87609C46.7671 9.99112 46.4955 10.0595 46.202 10.0595C45.843 10.0595 45.5184 9.98801 45.228 9.8481C44.9377 9.7082 44.688 9.51544 44.4851 9.26983C44.279 9.02422 44.1198 8.73819 44.0043 8.40864C43.8951 8.09774 43.842 7.76197 43.8358 7.40754C43.842 7.05311 43.8951 6.71734 44.0043 6.40644C44.1198 6.07689 44.279 5.79086 44.4851 5.54836" fill="white"/>
<path d="M6.50734 4.00757C6.2576 4.00757 6.05469 4.20965 6.05469 4.45837V10.2846C6.05469 10.5334 6.2576 10.7354 6.50734 10.7354C6.75708 10.7354 6.95999 10.5334 6.95999 10.2846V4.45837C6.95999 4.20965 6.75708 4.00757 6.50734 4.00757Z" fill="white"/>
<path d="M13.3934 4.00757C13.1436 4.00757 12.9407 4.20965 12.9407 4.45837V6.84298H9.47561V4.45837C9.47561 4.20965 9.2727 4.00757 9.02296 4.00757C8.77322 4.00757 8.57031 4.20965 8.57031 4.45837V10.2846C8.57031 10.5334 8.77322 10.7354 9.02296 10.7354C9.2727 10.7354 9.47561 10.5334 9.47561 10.2846V7.68863H12.9407V10.2846C12.9407 10.5334 13.1436 10.7354 13.3934 10.7354C13.6431 10.7354 13.8492 10.5334 13.8492 10.2846V4.45837C13.8492 4.20965 13.6462 4.00757 13.3965 4.00757" fill="white"/>
<path d="M50.5655 10.2792V4.46228C50.5655 4.21356 50.3625 4.01147 50.1128 4.01147C49.8631 4.01147 49.6602 4.21356 49.6602 4.46228V10.2823C49.6602 10.5311 49.8631 10.7331 50.1128 10.7331C50.3625 10.7331 50.5655 10.5311 50.5655 10.2823V10.2792Z" fill="white"/>
<path d="M39.2741 7.01349H37.4354C37.2231 7.02593 37.0545 7.21247 37.0545 7.43632C37.0545 7.66016 37.2231 7.8467 37.4354 7.85914H38.8433V9.71211C38.6528 9.82403 38.4218 9.91108 38.1471 9.97015C37.8755 10.0292 37.5852 10.0603 37.2824 10.0603C36.9296 10.0603 36.605 9.99192 36.3053 9.85823C36.0056 9.72454 35.7465 9.538 35.5249 9.29861C35.3032 9.05922 35.1284 8.77941 35.0067 8.45607C34.8818 8.13273 34.8193 7.78452 34.8193 7.40834C34.8193 7.03215 34.8755 6.70259 34.9879 6.37926C35.1034 6.05592 35.2626 5.77611 35.4718 5.53672C35.6809 5.30043 35.9338 5.11078 36.2241 4.96777C36.5176 4.82476 36.8453 4.75636 37.2106 4.75636C37.5321 4.75636 37.8412 4.80921 38.1346 4.91181C38.4187 5.0113 38.7059 5.19162 38.99 5.41858C38.9962 5.42479 39.0025 5.43101 39.0087 5.43412C39.0087 5.43412 39.0118 5.43723 39.0149 5.44034C39.0805 5.48075 39.1586 5.50874 39.2428 5.50874C39.4801 5.50874 39.6736 5.30665 39.6736 5.05793C39.6736 4.92113 39.6143 4.79988 39.5238 4.71905C39.3271 4.53873 39.015 4.29933 38.6435 4.14388C38.272 3.98843 37.7944 3.91382 37.2075 3.91382C36.7236 3.91382 36.2772 4.00398 35.8714 4.18119C35.4655 4.36151 35.1159 4.60713 34.8256 4.91803C34.5353 5.23204 34.3074 5.60201 34.1451 6.02794C33.9796 6.45387 33.8984 6.914 33.8984 7.41144C33.8984 7.90889 33.9765 8.3286 34.1263 8.75142C34.2793 9.17425 34.4978 9.54733 34.7913 9.86445C35.0816 10.1847 35.4374 10.4365 35.8589 10.6262C36.2803 10.8127 36.7611 10.9091 37.298 10.9091C37.4915 10.9091 37.6945 10.8966 37.913 10.8718C38.1315 10.8469 38.3469 10.8065 38.5592 10.7536C38.7715 10.7008 38.9775 10.6355 39.1742 10.5609C39.3708 10.4862 39.5488 10.3992 39.7017 10.2966V7.4643C39.7017 7.21558 39.5082 7.01349 39.2709 7.01349" fill="white"/>
<path d="M55.7917 4.01147H51.9988C51.7646 4.01147 51.5742 4.20112 51.5742 4.4343C51.5742 4.66747 51.7646 4.85712 51.9988 4.85712C51.9988 4.85712 51.9988 4.85712 52.0019 4.85712H53.441V10.2823C53.441 10.5311 53.6439 10.7331 53.8937 10.7331C54.1434 10.7331 54.3463 10.5311 54.3463 10.2823V4.85712H55.7854C55.7854 4.85712 55.7886 4.85712 55.7917 4.85712C56.0258 4.85712 56.2162 4.66747 56.2162 4.4343C56.2162 4.20112 56.0258 4.01147 55.7917 4.01147Z" fill="white"/>
<path d="M62.1376 4.74751C62.1376 4.74751 62.1563 4.71953 62.1656 4.70398V4.69777H62.1688C62.2093 4.62937 62.2312 4.54853 62.2312 4.46148C62.2312 4.19411 62.0158 4.00757 61.7473 4.00757C61.5788 4.00757 61.432 4.09151 61.3446 4.22209L59.5965 6.99843L57.8483 4.22209C57.7609 4.09462 57.6142 4.00757 57.4456 4.00757C57.1802 4.00757 56.9648 4.19411 56.9648 4.46148C56.9648 4.54853 56.9867 4.62937 57.0273 4.69777V4.70398C57.0273 4.70398 57.0491 4.73197 57.0585 4.74751L59.1469 7.89382V10.2815C59.1469 10.5334 59.3498 10.7354 59.5996 10.7354C59.8493 10.7354 60.0522 10.5334 60.0522 10.2846V7.89693L62.1376 4.75062V4.74751Z" fill="white"/>
<path d="M19.1459 7.75551C19.1459 7.75551 19.1522 7.75551 19.1553 7.75551C19.3894 7.75551 19.5798 7.56586 19.5798 7.33269C19.5798 7.09951 19.3894 6.90986 19.1553 6.90986H16.1584V4.86103H19.149C19.149 4.86103 19.149 4.86103 19.1522 4.86103C19.3863 4.86103 19.5767 4.67138 19.5767 4.43821C19.5767 4.20503 19.3863 4.01538 19.1522 4.01538H15.7027C15.4529 4.01538 15.25 4.21747 15.25 4.46619V10.2862C15.25 10.535 15.4529 10.737 15.7027 10.737H19.1522C19.3863 10.737 19.5767 10.5474 19.5767 10.3142C19.5767 10.081 19.3863 9.89139 19.1522 9.89139H16.1553V7.75551H19.1428H19.1459Z" fill="white"/>
<path d="M32.2278 4.01147C31.9905 4.01147 31.8001 4.22289 31.8001 4.48093V8.98899L28.2226 4.21356C28.1415 4.0892 28.0103 4.01458 27.873 4.01458C27.6357 4.01458 27.4453 4.226 27.4453 4.48404V10.2668C27.4453 10.5248 27.6357 10.7362 27.873 10.7362C28.1102 10.7362 28.3007 10.5248 28.3007 10.2668V5.78671L31.8844 10.5373C31.9656 10.6616 32.0967 10.7394 32.234 10.7394H32.2278C32.4619 10.7394 32.6555 10.5279 32.6555 10.2699V4.48093C32.6555 4.22289 32.4651 4.01147 32.2278 4.01147Z" fill="white"/>
<path d="M111.915 23.4256C111.581 22.2318 110.335 21.5323 109.136 21.8649C98.6 24.7936 89.9087 23.0028 83.306 16.5361C78.261 11.5959 76.3161 5.62973 76.2973 5.57066C75.9227 4.38924 74.6584 3.73324 73.4721 4.10321C72.2826 4.47318 71.6208 5.73543 71.9954 6.91685C72.0828 7.19977 74.2307 13.8748 80.0093 19.6047C82.2102 21.7872 85.1198 23.9915 88.8317 25.5491C85.4195 27.713 83.153 31.5091 83.153 35.8243C83.153 42.5398 88.6381 47.9992 95.3814 47.9992C102.125 47.9992 107.607 42.5367 107.607 35.8243C107.607 32.5723 106.317 29.6188 104.226 27.4332C106.158 27.1938 108.2 26.7896 110.354 26.1896C111.553 25.8569 112.255 24.6164 111.921 23.4225L111.915 23.4256ZM95.3751 43.5129C91.12 43.5129 87.6579 40.065 87.6579 35.8275C87.6579 31.5899 91.12 28.142 95.3751 28.142C99.6302 28.142 103.092 31.5899 103.092 35.8275C103.092 40.065 99.6302 43.5129 95.3751 43.5129Z" fill="white"/>
</svg>
