<svg width="137" height="40" viewBox="0 0 137 40" fill="none" xmlns="http://www.w3.org/2000/svg">
<g clip-path="url(#clip0_285_40824)">
<path d="M18.7467 23.9062C7.87128 24.984 0 28.1377 0 31.8629C0 35.8412 8.99785 39.1757 21.0441 40.0075C21.0441 40.0075 40.667 40.2245 18.7541 23.9062" fill="white"/>
<path d="M25.4975 23.5595C25.041 23.3642 26.4989 23.545 26.9996 23.545C41.8806 23.545 53.9416 27.2846 53.9416 31.8922C53.9416 35.1327 47.9921 37.9392 39.2888 39.3208C39.2888 39.3208 54.8988 36.319 25.4975 23.5522V23.5595Z" fill="white"/>
<path d="M23.2254 11.2333C24.2341 11.0741 27.0395 10.9512 28.1072 10.9512C40.0135 10.9512 47.9069 14.0108 47.9069 17.6998C47.9069 21.3888 38.7986 24.2098 27.3635 24.3689C27.3635 24.3689 2.74826 14.5027 23.2254 11.2333Z" fill="white"/>
<path d="M27.044 0C27.044 0 -12.0032 16.4195 18.753 23.8987C18.753 23.8987 -2.23953 12.1953 27.044 9.38156V0Z" fill="white"/>
<path d="M109.608 13.8594H91.8555V15.7617H109.608V13.8594Z" fill="white"/>
<path d="M102.71 12.8457H98.0859V15.7101H102.71V12.8457Z" fill="white"/>
<path d="M100.465 14.1406C97.4535 14.1406 94.5156 15.6379 94.5156 17.4896C94.5156 19.3413 97.4535 20.8386 100.465 20.8386C103.477 20.8386 106.415 19.3413 106.415 17.4896C106.415 15.6379 103.477 14.1406 100.465 14.1406ZM100.465 19.1316C98.9925 19.1316 97.7923 18.3938 97.7923 17.4896C97.7923 16.5855 98.9851 15.8477 100.465 15.8477C101.945 15.8477 103.138 16.5855 103.138 17.4896C103.138 18.3938 101.945 19.1316 100.465 19.1316Z" fill="white"/>
<path d="M85.9639 14.0254H81.7227V27.8482H85.9639V14.0254Z" fill="white"/>
<path d="M136.589 13.9531H132.355V27.7759H136.589V13.9531Z" fill="white"/>
<path d="M100.516 23.2052H112.179V21.1582H88.6172V23.2052H93.3444C92.5712 23.8273 92.1147 24.5434 92.1147 25.3101C92.1147 27.6392 96.3486 29.5271 100.693 29.5271C105.037 29.5271 109.271 27.6392 109.271 25.3101C109.271 24.7314 109.013 24.1962 108.638 23.9575H103.344C104.095 24.0804 104.625 24.6736 104.625 25.3101C104.625 26.4747 102.865 27.415 100.7 27.415C98.5354 27.415 96.7683 26.4747 96.7683 25.3101C96.7683 24.1455 98.4324 23.2559 100.524 23.2052H100.516Z" fill="white"/>
<path d="M72.5201 14.2427C72.4538 14.1993 72.3875 14.1631 72.3213 14.1269C72.0856 13.9967 71.8574 13.9389 71.6512 13.9316C71.6218 13.9316 71.5997 13.9316 71.5702 13.9316C71.5334 13.9316 71.504 13.9316 71.4671 13.9389H71.4524C71.4524 13.9389 71.4082 13.9389 71.3935 13.9389C71.4009 13.9389 71.4082 13.9389 71.423 13.9389H71.4082H71.3935C71.3935 13.9389 71.3714 13.9389 71.3567 13.9389C71.0622 13.9823 70.8634 14.0908 70.8634 14.0908C70.7971 14.1269 70.7382 14.1631 70.6719 14.2065L70.3479 14.438L70.3258 14.4524L61.2617 20.89L64.4058 22.4741L71.1211 17.8304C71.7469 17.447 72.4023 17.8665 72.4023 17.8665L78.6463 22.3367L81.7904 20.608L72.5201 14.2354V14.2427Z" fill="white"/>
<path d="M123.32 14.503C123.253 14.4596 123.187 14.4235 123.121 14.3945C122.892 14.2571 122.664 14.2065 122.451 14.1992C122.421 14.1992 122.399 14.1992 122.37 14.1992C122.34 14.1992 122.303 14.1992 122.267 14.1992H122.252C122.252 14.1992 122.208 14.1992 122.186 14.1992C122.193 14.1992 122.208 14.1992 122.215 14.1992C122.215 14.1992 122.208 14.1992 122.2 14.1992H122.178C122.178 14.1992 122.156 14.1992 122.149 14.1992C121.854 14.2426 121.648 14.3511 121.648 14.3511C121.582 14.3873 121.523 14.4235 121.457 14.4596L121.125 14.6911L121.096 14.7055L112.039 21.1432L115.176 22.72L121.898 18.0763C122.524 17.6929 123.18 18.1124 123.18 18.1124L129.431 22.5826L132.568 20.8538L123.297 14.4741L123.32 14.503Z" fill="white"/>
<path d="M68.4706 36.4566C68.419 36.8834 68.1392 37.2668 67.6312 37.6067C67.1231 37.9467 66.4236 38.1203 65.5474 38.1203C64.6049 38.1203 63.8465 37.8816 63.2795 37.4114C62.7125 36.9413 62.4401 36.4494 62.4622 35.9358H63.898C63.898 36.2686 64.0674 36.5434 64.3766 36.7749C64.6932 36.9991 65.0761 37.1149 65.54 37.1149C65.9744 37.1149 66.2984 37.0498 66.5267 36.9268C66.7549 36.8038 66.8948 36.6447 66.9611 36.4494C67.0126 36.2903 66.9758 36.1456 66.8433 36.0154C66.7181 35.8852 66.5561 35.7767 66.3573 35.7044C66.0407 35.5814 65.702 35.5018 65.3412 35.4657C64.9804 35.4295 64.6196 35.3499 64.2441 35.2342C63.7434 35.0751 63.3605 34.8653 63.0881 34.5977C62.823 34.3301 62.7052 34.0046 62.7346 33.614C62.7714 33.2595 63.0071 32.9051 63.4488 32.5579C63.8906 32.2107 64.5681 32.0371 65.4737 32.0371C66.4972 32.0371 67.2262 32.2758 67.6606 32.746C68.0877 33.2161 68.2938 33.6429 68.257 34.0263H66.8433C66.8433 33.7514 66.7328 33.5199 66.5193 33.3246C66.3058 33.1293 65.9671 33.0353 65.4958 33.0353C65.0246 33.0353 64.7153 33.1076 64.5386 33.2451C64.3693 33.3897 64.2735 33.5272 64.2514 33.6718C64.2294 33.8454 64.3177 33.9901 64.5092 34.1058C64.7006 34.2216 64.9068 34.3084 65.1203 34.3807C65.3707 34.4386 65.6946 34.5037 66.0922 34.5615C66.4972 34.6194 66.8948 34.7279 67.2851 34.887C67.6532 35.0245 67.9551 35.2342 68.1834 35.5091C68.4117 35.7912 68.5074 36.1022 68.4632 36.4422L68.4706 36.4566Z" fill="white"/>
<path d="M69.6484 37.9019V32.2383H71.099V37.9019H69.6484Z" fill="white"/>
<path d="M77.0542 37.9019V35.4499H74.0795V37.9019H72.6289V32.2383H74.0795V34.4444H77.0542V32.2383H78.5195V37.9019H77.0542Z" fill="white"/>
<path d="M80.0391 37.8951V32.2676H85.3553V33.2658H81.4749V34.5244H85.1565V35.5081H81.4749V36.8896H85.4437V37.8951H80.0391Z" fill="white"/>
<path d="M92.5057 36.0792C92.5057 36.665 92.2406 37.1352 91.7104 37.4969C91.1803 37.8585 90.466 38.0321 89.5604 38.0321C88.6547 38.0321 87.9478 37.8513 87.425 37.4969C86.9096 37.1352 86.6445 36.665 86.6445 36.0792V32.2383H88.0951V35.8188C88.0951 36.1008 88.1761 36.3757 88.3307 36.6433C88.4853 36.911 88.8977 37.0484 89.5604 37.0484C90.2231 37.0484 90.6501 36.911 90.8121 36.6433C90.9741 36.3757 91.0551 36.1008 91.0551 35.8188V32.2383H92.5057V36.0792Z" fill="white"/>
<path d="M98.278 37.8947L95.4358 33.9815V37.8947H94V32.2383H95.6567L98.5284 36.1442V32.2383H99.9642V37.8947H98.278Z" fill="white"/>
<path d="M106.375 37.8813V37.375C106.199 37.5341 105.941 37.686 105.617 37.8234C105.293 37.9609 104.917 38.026 104.498 38.026C103.459 38.026 102.627 37.7511 102.002 37.1942C101.376 36.6372 101.066 35.9283 101.066 35.0603C101.066 34.1923 101.368 33.4907 101.987 32.9482C102.598 32.4057 103.437 32.1309 104.498 32.1309C105.558 32.1309 106.272 32.3479 106.795 32.7891C107.325 33.2303 107.649 33.6643 107.767 34.0838H106.228C106.132 33.8741 105.956 33.6571 105.683 33.4401C105.418 33.2231 105.035 33.1146 104.549 33.1146C103.916 33.1146 103.43 33.2954 103.084 33.6498C102.73 34.0115 102.561 34.4817 102.561 35.0531C102.561 35.6245 102.738 36.1019 103.084 36.4708C103.43 36.8397 103.916 37.0278 104.549 37.0278C105.094 37.0278 105.506 36.8904 105.779 36.6083C106.051 36.3334 106.235 36.0658 106.331 35.8126H104.571V34.8867H107.826V37.8813H106.383H106.375Z" fill="white"/>
<path d="M119.772 35.935C119.632 36.4268 119.293 36.897 118.748 37.3527C118.203 37.8084 117.437 38.0326 116.451 38.0326C115.39 38.0326 114.558 37.7578 113.94 37.208C113.321 36.6583 113.02 35.9422 113.02 35.067C113.02 34.1918 113.329 33.4974 113.94 32.9476C114.551 32.3979 115.39 32.123 116.451 32.123C117.511 32.123 118.262 32.3545 118.8 32.8247C119.33 33.2948 119.646 33.7361 119.75 34.1628H118.203C118.122 33.9169 117.946 33.6854 117.688 33.4612C117.423 33.237 117.032 33.1212 116.502 33.1212C115.891 33.1212 115.405 33.2948 115.052 33.6493C114.691 34.0037 114.514 34.4739 114.514 35.067C114.514 35.6601 114.691 36.1375 115.052 36.4992C115.405 36.8681 115.891 37.0489 116.502 37.0489C117.003 37.0489 117.401 36.9259 117.68 36.6872C117.96 36.4485 118.152 36.1954 118.255 35.9422H119.779L119.772 35.935Z" fill="white"/>
<path d="M120.918 37.9019V32.2383H122.369V37.9019H120.918Z" fill="white"/>
<path d="M127.273 33.2658V37.8951H125.829V33.2658H123.547V32.2676H129.592V33.2658H127.28H127.273Z" fill="white"/>
<path d="M134.35 35.8766V37.9019H132.907V35.8983L130.227 32.2383H131.846L133.614 34.6687L135.373 32.2383H137.001L134.35 35.8694V35.8766Z" fill="white"/>
</g>
<defs>
<clipPath id="clip0_285_40824">
<rect width="137" height="40" fill="white"/>
</clipPath>
</defs>
</svg>
