<svg width="48" height="38" viewBox="0 0 48 38" fill="none" xmlns="http://www.w3.org/2000/svg">
<path fill-rule="evenodd" clip-rule="evenodd" d="M16.6767 22.616C7.00755 23.6007 0 26.5014 0 29.9178C0 33.5753 8.00482 36.6367 18.7176 37.4004C18.7176 37.4004 36.1737 37.6014 16.6767 22.616ZM22.6799 22.2486C22.2768 22.0666 23.5718 22.2351 24.0212 22.2351C37.2627 22.2351 48 25.6858 48 29.9519C48 32.9443 42.7007 35.539 34.9567 36.8195C34.9567 36.8128 48.8391 34.0428 22.6799 22.2486Z" fill="#004098"/>
<path fill-rule="evenodd" clip-rule="evenodd" d="M20.6423 10.9333C21.5409 10.7859 24.0384 10.6719 24.9833 10.6719C35.5747 10.6719 42.6048 13.4815 42.6048 16.8743C42.6048 20.1667 34.5043 22.8556 24.3225 23.0031C24.3225 23.0031 2.41948 13.9374 20.6423 10.9333Z" fill="#ED6C00"/>
<path fill-rule="evenodd" clip-rule="evenodd" d="M24.0649 0.599609C24.0649 0.599609 -10.7183 15.7222 16.677 22.615C16.677 22.615 -2.02086 11.8391 24.0649 9.24586V0.599609Z" fill="#ED6C00"/>
</svg>
