<svg width="48" height="48" viewBox="0 0 48 48" fill="none" xmlns="http://www.w3.org/2000/svg">
<g clip-path="url(#clip0_285_39375)">
<path d="M17.2562 33C16.8012 33 16.4437 32.64 16.4437 32.1818V31.4291C16.4437 30.5618 16.2 29.7273 15.7288 28.9909C15.6475 28.8764 15.5662 28.7618 15.4525 28.6636L12.04 25.3745C11.3737 24.72 11 23.82 11 22.8873V17.0945C11 15.9491 11.9425 15 13.08 15C14.2175 15 15.16 15.9491 15.16 17.0945V19.8273C15.16 19.9909 15.225 20.1382 15.3387 20.2527L17.4675 22.3964C17.7925 22.7236 17.7925 23.2309 17.4675 23.5582C17.1425 23.8855 16.6388 23.8855 16.3137 23.5582L14.185 21.4145C13.7625 20.9891 13.535 20.4327 13.535 19.8273V17.0945C13.535 16.8327 13.3238 16.6364 13.08 16.6364C12.8362 16.6364 12.625 16.8491 12.625 17.0945V22.8873C12.625 23.3782 12.82 23.8527 13.1775 24.1964L16.6063 27.5018C16.8012 27.6982 16.9637 27.8945 17.0938 28.1073C17.7275 29.0891 18.0687 30.2509 18.0687 31.4291V32.1818C18.0687 32.64 17.7112 33 17.2562 33Z" fill="#EFA106"/>
<path d="M21.9679 33C21.5129 33 21.1554 32.64 21.1554 32.1818V26.1273C21.1554 25.4727 20.8954 24.8345 20.4404 24.3764L18.0679 21.9873C17.9541 21.8727 17.8241 21.8727 17.7591 21.8891C17.6941 21.8891 17.5641 21.9382 17.4991 22.0854C17.4341 22.2327 17.4504 22.3964 17.5641 22.4945L18.9941 23.9345C19.3191 24.2618 19.3191 24.7691 18.9941 25.0964C18.6691 25.4236 18.1654 25.4236 17.8404 25.0964L16.4104 23.6564C15.8091 23.0509 15.6629 22.1182 16.0366 21.3654C16.3129 20.7927 16.8654 20.3836 17.4829 20.2854C18.1004 20.1873 18.7504 20.3836 19.2054 20.8418L21.5779 23.2309C22.3416 24 22.7804 25.0636 22.7804 26.1436V32.1982C22.7804 32.6564 22.4229 33.0164 21.9679 33.0164V33Z" fill="#EFA106"/>
<path d="M30.7422 33C30.2872 33 29.9297 32.64 29.9297 32.1818V31.4291C29.9297 30.2509 30.2709 29.0891 30.9047 28.1073C31.0347 27.8945 31.1972 27.6982 31.3922 27.5018L34.8209 24.18C35.1622 23.8364 35.3734 23.3618 35.3734 22.8709V17.0945C35.3734 16.8327 35.1622 16.6364 34.9184 16.6364C34.6747 16.6364 34.4634 16.8491 34.4634 17.0945V19.8273C34.4634 20.4327 34.2359 20.9891 33.8134 21.4145L31.6847 23.5582C31.3597 23.8855 30.8559 23.8855 30.5309 23.5582C30.2059 23.2309 30.2059 22.7236 30.5309 22.3964L32.6597 20.2527C32.7734 20.1382 32.8384 19.9745 32.8384 19.8273V17.0945C32.8384 15.9327 33.7809 15 34.9184 15C36.0559 15 36.9984 15.9491 36.9984 17.0945V22.8873C36.9984 23.82 36.6247 24.72 35.9584 25.3745L32.5297 28.68C32.4484 28.7618 32.3509 28.8764 32.2697 29.0073C31.7984 29.7273 31.5547 30.5782 31.5547 31.4455V32.1982C31.5547 32.6564 31.1972 33.0164 30.7422 33.0164V33Z" fill="#EFA106"/>
<path d="M26.0312 32.9997C25.5762 32.9997 25.2188 32.6397 25.2188 32.1816V26.127C25.2188 25.047 25.6575 23.9834 26.4212 23.2143L28.7937 20.8252C29.2487 20.367 29.8988 20.1707 30.5163 20.2688C31.15 20.367 31.6862 20.7761 31.9625 21.3488C32.3362 22.1179 32.19 23.0343 31.5887 23.6397L30.1588 25.0797C29.8337 25.407 29.33 25.407 29.005 25.0797C28.68 24.7525 28.68 24.2452 29.005 23.9179L30.435 22.4779C30.5487 22.3634 30.565 22.1997 30.5 22.0688C30.435 21.9216 30.305 21.8888 30.24 21.8725C30.175 21.8725 30.045 21.8725 29.9312 21.9707L27.5587 24.3597C27.1037 24.8179 26.8438 25.4561 26.8438 26.1107V32.1652C26.8438 32.6234 26.4863 32.9834 26.0312 32.9834V32.9997Z" fill="#EFA106"/>
</g>
<defs>
<clipPath id="clip0_285_39375">
<rect width="26" height="18" fill="#EFA106" transform="translate(11 15)"/>
</clipPath>
</defs>
</svg>
