<svg width="48" height="48" viewBox="0 0 48 48" fill="none" xmlns="http://www.w3.org/2000/svg">
<path d="M16 28.5C16.0014 28.9195 16.0911 29.334 16.2634 29.7166C16.4357 30.0991 16.6867 30.441 17 30.72V32.5C17 32.7652 17.1054 33.0196 17.2929 33.2071C17.4804 33.3946 17.7348 33.5 18 33.5H19C19.2652 33.5 19.5196 33.3946 19.7071 33.2071C19.8946 33.0196 20 32.7652 20 32.5V31.5H28V32.5C28 32.7652 28.1054 33.0196 28.2929 33.2071C28.4804 33.3946 28.7348 33.5 29 33.5H30C30.2652 33.5 30.5196 33.3946 30.7071 33.2071C30.8946 33.0196 31 32.7652 31 32.5V30.72C31.3133 30.441 31.5643 30.0991 31.7366 29.7166C31.9089 29.334 31.9986 28.9195 32 28.5V18.5C32 15 28.42 14.5 24 14.5C19.58 14.5 16 15 16 18.5V28.5ZM19.5 29.5C19.2033 29.5 18.9133 29.412 18.6666 29.2472C18.42 29.0824 18.2277 28.8481 18.1142 28.574C18.0006 28.2999 17.9709 27.9983 18.0288 27.7074C18.0867 27.4164 18.2296 27.1491 18.4393 26.9393C18.6491 26.7296 18.9164 26.5867 19.2074 26.5288C19.4983 26.4709 19.7999 26.5006 20.074 26.6142C20.3481 26.7277 20.5824 26.92 20.7472 27.1666C20.912 27.4133 21 27.7033 21 28C21 28.3978 20.842 28.7794 20.5607 29.0607C20.2794 29.342 19.8978 29.5 19.5 29.5ZM28.5 29.5C28.2033 29.5 27.9133 29.412 27.6666 29.2472C27.42 29.0824 27.2277 28.8481 27.1142 28.574C27.0006 28.2999 26.9709 27.9983 27.0288 27.7074C27.0867 27.4164 27.2296 27.1491 27.4393 26.9393C27.6491 26.7296 27.9164 26.5867 28.2074 26.5288C28.4983 26.4709 28.7999 26.5006 29.074 26.6142C29.3481 26.7277 29.5824 26.92 29.7472 27.1666C29.912 27.4133 30 27.7033 30 28C30 28.3978 29.842 28.7794 29.5607 29.0607C29.2794 29.342 28.8978 29.5 28.5 29.5ZM30 23.5H18V18.5H30V23.5Z" fill="white"/>
</svg>
