<svg width="48" height="48" viewBox="0 0 48 48" fill="none" xmlns="http://www.w3.org/2000/svg">
<g clip-path="url(#clip0_285_39397)">
<path d="M24 14C22.0222 14 20.0888 14.5865 18.4443 15.6853C16.7998 16.7841 15.5181 18.3459 14.7612 20.1732C14.0043 22.0004 13.8063 24.0111 14.1922 25.9509C14.578 27.8907 15.5304 29.6725 16.9289 31.0711C18.3275 32.4696 20.1093 33.422 22.0491 33.8079C23.9889 34.1937 25.9996 33.9957 27.8268 33.2388C29.6541 32.4819 31.2159 31.2002 32.3147 29.5557C33.4135 27.9112 34 25.9778 34 24C34 22.6868 33.7413 21.3864 33.2388 20.1732C32.7363 18.9599 31.9997 17.8575 31.0711 16.9289C30.1425 16.0003 29.0401 15.2638 27.8268 14.7612C26.6136 14.2587 25.3132 14 24 14ZM23 31.93C21.0669 31.6891 19.2886 30.75 17.9994 29.2896C16.7102 27.8292 15.9992 25.948 16 24C16.0033 23.3974 16.0738 22.797 16.21 22.21L21 27V28C21.0016 28.5299 21.2128 29.0377 21.5875 29.4125C21.9623 29.7872 22.4701 29.9984 23 30V31.93ZM29.9 29.39C29.7732 28.9858 29.5203 28.6329 29.1784 28.3827C28.8366 28.1326 28.4236 27.9985 28 28H27V25C27 24.7348 26.8946 24.4804 26.7071 24.2929C26.5196 24.1054 26.2652 24 26 24H20V22H22C22.2652 22 22.5196 21.8946 22.7071 21.7071C22.8946 21.5196 23 21.2652 23 21V19H25C25.53 18.9984 26.0377 18.7872 26.4125 18.4125C26.7872 18.0377 26.9984 17.5299 27 17V16.59C28.1968 17.072 29.2589 17.8369 30.0954 18.8193C30.9319 19.8016 31.5177 20.9721 31.8028 22.2304C32.0879 23.4887 32.0637 24.7974 31.7323 26.0443C31.4009 27.2912 30.7722 28.4392 29.9 29.39Z" fill="white"/>
</g>
<defs>
<clipPath id="clip0_285_39397">
<rect width="20" height="20" fill="white" transform="translate(14 14)"/>
</clipPath>
</defs>
</svg>
