<svg width="48" height="48" viewBox="0 0 48 48" fill="none" xmlns="http://www.w3.org/2000/svg">
<path d="M17 31H18.4L27.025 22.375L25.625 20.975L17 29.6V31ZM31.3 20.925L27.05 16.725L28.45 15.325C28.8333 14.9417 29.3042 14.75 29.8625 14.75C30.4208 14.75 30.8917 14.9417 31.275 15.325L32.675 16.725C33.0583 17.1083 33.2583 17.5708 33.275 18.1125C33.2917 18.6542 33.1083 19.1167 32.725 19.5L31.3 20.925ZM29.85 22.4L19.25 33H15V28.75L25.6 18.15L29.85 22.4ZM26.325 21.675L25.625 20.975L27.025 22.375L26.325 21.675Z" fill="#EFA106"/>
</svg>
