<svg width="48" height="48" viewBox="0 0 48 48" fill="none" xmlns="http://www.w3.org/2000/svg">
<path d="M24 33C21.4833 33 19.3542 32.6125 17.6125 31.8375C15.8708 31.0625 15 30.1167 15 29V19C15 17.9 15.8792 16.9583 17.6375 16.175C19.3958 15.3917 21.5167 15 24 15C26.4833 15 28.6042 15.3917 30.3625 16.175C32.1208 16.9583 33 17.9 33 19V29C33 30.1167 32.1292 31.0625 30.3875 31.8375C28.6458 32.6125 26.5167 33 24 33ZM24 21.025C25.4833 21.025 26.975 20.8125 28.475 20.3875C29.975 19.9625 30.8167 19.5083 31 19.025C30.8167 18.5417 29.9792 18.0833 28.4875 17.65C26.9958 17.2167 25.5 17 24 17C22.4833 17 20.9958 17.2125 19.5375 17.6375C18.0792 18.0625 17.2333 18.525 17 19.025C17.2333 19.525 18.0792 19.9833 19.5375 20.4C20.9958 20.8167 22.4833 21.025 24 21.025ZM24 26C24.7 26 25.375 25.9667 26.025 25.9C26.675 25.8333 27.2958 25.7375 27.8875 25.6125C28.4792 25.4875 29.0375 25.3333 29.5625 25.15C30.0875 24.9667 30.5667 24.7583 31 24.525V21.525C30.5667 21.7583 30.0875 21.9667 29.5625 22.15C29.0375 22.3333 28.4792 22.4875 27.8875 22.6125C27.2958 22.7375 26.675 22.8333 26.025 22.9C25.375 22.9667 24.7 23 24 23C23.3 23 22.6167 22.9667 21.95 22.9C21.2833 22.8333 20.6542 22.7375 20.0625 22.6125C19.4708 22.4875 18.9167 22.3333 18.4 22.15C17.8833 21.9667 17.4167 21.7583 17 21.525V24.525C17.4167 24.7583 17.8833 24.9667 18.4 25.15C18.9167 25.3333 19.4708 25.4875 20.0625 25.6125C20.6542 25.7375 21.2833 25.8333 21.95 25.9C22.6167 25.9667 23.3 26 24 26ZM24 31C24.7667 31 25.5458 30.9417 26.3375 30.825C27.1292 30.7083 27.8583 30.5542 28.525 30.3625C29.1917 30.1708 29.75 29.9542 30.2 29.7125C30.65 29.4708 30.9167 29.225 31 28.975V26.525C30.5667 26.7583 30.0875 26.9667 29.5625 27.15C29.0375 27.3333 28.4792 27.4875 27.8875 27.6125C27.2958 27.7375 26.675 27.8333 26.025 27.9C25.375 27.9667 24.7 28 24 28C23.3 28 22.6167 27.9667 21.95 27.9C21.2833 27.8333 20.6542 27.7375 20.0625 27.6125C19.4708 27.4875 18.9167 27.3333 18.4 27.15C17.8833 26.9667 17.4167 26.7583 17 26.525V29C17.0833 29.25 17.3458 29.4917 17.7875 29.725C18.2292 29.9583 18.7833 30.1708 19.45 30.3625C20.1167 30.5542 20.85 30.7083 21.65 30.825C22.45 30.9417 23.2333 31 24 31Z" fill="white"/>
</svg>
