<svg xmlns="http://www.w3.org/2000/svg" width="22" height="18" viewBox="0 0 22 18"><g transform="translate(20281 14368)"><rect width="22" height="18" transform="translate(-20281 -14368)" fill="red" opacity="0"/><path d="M213.811,226.513a2.27,2.27,0,0,0-2.27,2.27v2.272c.225,0,.468,0,.729,0h3.081c.262,0,.5,0,.729,0v-2.272A2.27,2.27,0,0,0,213.811,226.513Zm3.778,4.633a.749.749,0,0,0,.006-.093v-2.27a3.784,3.784,0,0,0-7.567,0v2.27a.747.747,0,0,0,.006.093,3.212,3.212,0,0,0-.7.2,3.777,3.777,0,0,0-2.048,2.048,3.891,3.891,0,0,0-.258,1.253c-.03.448-.03,1-.03,1.681v.054c0,.682,0,1.233.03,1.681a3.891,3.891,0,0,0,.258,1.253,3.777,3.777,0,0,0,2.048,2.048,3.89,3.89,0,0,0,1.253.258c.448.03,1,.03,1.681.03h3.081c.682,0,1.233,0,1.681-.03a3.89,3.89,0,0,0,1.253-.258,3.777,3.777,0,0,0,2.048-2.048,3.891,3.891,0,0,0,.258-1.253c.03-.448.03-1,.03-1.681v-.054c0-.682,0-1.233-.03-1.681a3.891,3.891,0,0,0-.258-1.253,3.777,3.777,0,0,0-2.048-2.048A3.212,3.212,0,0,0,217.588,231.147Zm-6.9,1.448a2.437,2.437,0,0,0-.777.145,2.274,2.274,0,0,0-1.229,1.229,2.437,2.437,0,0,0-.145.777c-.026.39-.027.889-.027,1.605s0,1.215.027,1.605a2.437,2.437,0,0,0,.145.777,2.274,2.274,0,0,0,1.229,1.229,2.437,2.437,0,0,0,.777.145c.39.026.889.027,1.605.027h3.027c.716,0,1.215,0,1.605-.027a2.437,2.437,0,0,0,.777-.145,2.274,2.274,0,0,0,1.229-1.229,2.437,2.437,0,0,0,.145-.777c.026-.39.027-.889.027-1.605s0-1.215-.027-1.605a2.437,2.437,0,0,0-.145-.777,2.274,2.274,0,0,0-1.229-1.229,2.437,2.437,0,0,0-.777-.145c-.39-.026-.889-.027-1.605-.027H212.3C211.581,232.567,211.083,232.568,210.692,232.594Zm3.118,2.243a.757.757,0,0,1,.757.757v1.513a.757.757,0,1,1-1.513,0v-1.513A.757.757,0,0,1,213.811,234.837Z" transform="translate(-20484.041 -14592.57)" fill="#888" fill-rule="evenodd"/></g></svg>