<svg xmlns="http://www.w3.org/2000/svg" width="22" height="18" viewBox="0 0 22 18"><g transform="translate(20281 14368)"><rect width="22" height="18" transform="translate(-20281 -14368)" fill="red" opacity="0"/><g transform="translate(-83.099 77.923)"><g transform="translate(-20195 -14445)"><path d="M7.35,13.019v.559H8.572v-.559ZM7.35,7v6.019H8.572V7Z" transform="translate(-1.87 -1.366)" fill="#888"/><path d="M11.35,13.019v.559h1.222v-.559ZM11.35,7v6.019h1.222V7Z" transform="translate(-2.11 -1.366)" fill="#888"/><path d="M15.35,13.019v.559h1.222v-.559ZM15.35,7v6.019h1.222V7Z" transform="translate(-2.348 -1.366)" fill="#888"/><path d="M3.35,13.019v.559H4.572v-.559ZM3.35,7v6.019H4.572V7Z" transform="translate(-1.631 -1.366)" fill="#888"/><path d="M2.09,3.974l7.4-2.959a.094.094,0,0,1,.07,0l7.4,2.959a.094.094,0,0,1,.059.087V6.4a.094.094,0,0,1-.094.094H2.125A.094.094,0,0,1,2.031,6.4V4.061A.094.094,0,0,1,2.09,3.974Z" transform="translate(-1.552 -1.008)" fill="none" stroke="#888" stroke-linecap="round" stroke-width="1.5"/><path d="M15.487,14.281H2.078a.1.1,0,0,0-.092.093l-.462,2.854a.112.112,0,0,0,.092.139H17.37a.112.112,0,0,0,.092-.139L17,14.375a.1.1,0,0,0-.092-.093Z" transform="translate(-1.522 -2.391)" fill="none" stroke="#888" stroke-linecap="round" stroke-width="1.5"/></g></g></g></svg>