<svg xmlns="http://www.w3.org/2000/svg" xmlns:xlink="http://www.w3.org/1999/xlink" width="35" height="35" viewBox="0 0 35 35"><defs><clipPath id="a"><rect width="23.93" height="23.937" fill="none"/></clipPath></defs><circle cx="17.5" cy="17.5" r="17.5" fill="#004497"/><g transform="translate(5.535 5.531)"><rect width="23.929" height="23.937" rx="2" fill="none"/><path d="M40.121,26.95l-11.478-.533-.512-11.159H28.11l-.522,11.159-11.467.533v.018l11.467.493.522,11.8h.021l.512-11.8,11.478-.493Z" transform="translate(-16.156 -15.289)" fill="#f77e0b"/><g clip-path="url(#a)"><path d="M16.477,8.55V8.8h-.126c-.361,0-.757.072-.757,1.083v3.874a5.569,5.569,0,0,0,.05.862h-.323L10.938,9.735v3.507c0,.743.143,1,.8,1h.145v.251H9.625V14.24h.118c.588,0,.766-.4.766-1.082V9.573A.765.765,0,0,0,9.735,8.8h-.11V8.55H11.36l3.79,4.268.017-.019V9.607a.7.7,0,0,0-.744-.8h-.185V8.55Z" transform="translate(-5.738 -5.096)" fill="#fff"/><path d="M41.166,14.491V14.24h.121c.306,0,.631-.045.631-.487V9.294c0-.446-.325-.489-.631-.489h-.121V8.55h2.6V8.8h-.118c-.308,0-.63.044-.63.489v4.459c0,.442.322.487.63.487h.118v.251Z" transform="translate(-24.54 -5.096)" fill="#fff"/><path d="M15.8,41.963a4.909,4.909,0,0,1-1.948.383,3.009,3.009,0,0,1-3.336-3.184,3.051,3.051,0,0,1,3.294-3.013,10.1,10.1,0,0,1,2.119.425L15.993,38l-.256.033a1.752,1.752,0,0,0-1.906-1.505c-1.394,0-2.128,1.1-2.128,2.588,0,1.42.727,2.859,2.332,2.859a1.733,1.733,0,0,0,1.735-1.421l.241.033Z" transform="translate(-6.267 -21.545)" fill="#fff"/><path d="M38.1,42.409v-.257h.122c.308,0,.628-.042.628-.485V37.206c0-.444-.32-.486-.628-.486H38.1v-.254h4.3a12.9,12.9,0,0,0,.015,1.3l-.256.069c-.043-.556-.145-1-1.039-1H39.943v2.233h1.012c.51,0,.621-.289.674-.751h.254v1.966l-.254.055c-.053-.513-.076-.844-.666-.844H39.943v1.983c0,.555.494.555,1.038.555,1.024,0,1.473-.069,1.728-1.043l.24.06c-.111.451-.212.9-.286,1.355Z" transform="translate(-22.714 -21.734)" fill="#fff"/></g></g></svg>