<svg xmlns="http://www.w3.org/2000/svg" width="22" height="18" viewBox="0 0 22 18"><g transform="translate(20280 14368)"><rect width="22" height="18" transform="translate(-20280 -14368)" fill="red" opacity="0"/><path d="M755.037,115h5.883c.9,0,1.624,0,2.212.049a4.168,4.168,0,0,1,1.625.411,4.079,4.079,0,0,1,1.74,1.74,4.166,4.166,0,0,1,.411,1.625c.049.588.049,1.313.049,2.212v2.618c0,.9,0,1.624-.049,2.212a4.166,4.166,0,0,1-.411,1.625,4.079,4.079,0,0,1-1.74,1.74,4.168,4.168,0,0,1-1.625.411c-.588.049-1.313.049-2.212.049h-5.883c-.9,0-1.624,0-2.212-.049a4.168,4.168,0,0,1-1.625-.411,4.079,4.079,0,0,1-1.74-1.74,4.169,4.169,0,0,1-.411-1.625c-.049-.588-.049-1.312-.049-2.212v-2.618c0-.9,0-1.624.049-2.212a4.169,4.169,0,0,1,.411-1.625,4.079,4.079,0,0,1,1.74-1.74,4.168,4.168,0,0,1,1.625-.411C753.413,115,754.137,115,755.037,115Zm-2.565,1.739a4.033,4.033,0,0,1,1.859,1l2.4,2.285c.331.316.545.519.721.66a.9.9,0,0,0,.291.183.8.8,0,0,0,.477,0,.9.9,0,0,0,.291-.183c.175-.141.389-.344.721-.66l2.4-2.285a4.033,4.033,0,0,1,1.859-1,4.382,4.382,0,0,0-.489-.064c-.512-.042-1.169-.043-2.112-.043h-5.812c-.944,0-1.6,0-2.112.043A4.382,4.382,0,0,0,752.471,116.739Zm12.7,1.526h-.764a2.4,2.4,0,0,0-1.654.661l-2.421,2.306c-.3.289-.565.539-.8.727a2.489,2.489,0,0,1-.839.474,2.445,2.445,0,0,1-1.432,0,2.488,2.488,0,0,1-.839-.474c-.233-.189-.5-.438-.8-.727l-2.421-2.306a2.4,2.4,0,0,0-1.654-.661h-.764a3.793,3.793,0,0,0-.111.7c-.042.512-.043,1.169-.043,2.112v2.547c0,.944,0,1.6.043,2.112a2.6,2.6,0,0,0,.233,1.008,2.441,2.441,0,0,0,1.044,1.044,2.6,2.6,0,0,0,1.008.233c.512.042,1.169.043,2.112.043h5.812c.944,0,1.6,0,2.112-.043a2.6,2.6,0,0,0,1.008-.233,2.441,2.441,0,0,0,1.044-1.044,2.6,2.6,0,0,0,.233-1.008c.042-.512.043-1.169.043-2.112v-2.547c0-.944,0-1.6-.043-2.112A3.788,3.788,0,0,0,765.17,118.265Z" transform="translate(-21027.355 -14481.346)" fill="#888" fill-rule="evenodd"/></g></svg>