<svg xmlns="http://www.w3.org/2000/svg" width="22" height="18" viewBox="0 0 22 18"><g transform="translate(20281 14368)"><rect width="22" height="18" transform="translate(-20281 -14368)" fill="red" opacity="0"/><path d="M486.509,228.877a5.631,5.631,0,1,0,5.631,5.631A5.631,5.631,0,0,0,486.509,228.877ZM479,234.509a7.509,7.509,0,1,1,13.44,4.6l2.179,2.179a.938.938,0,1,1-1.327,1.327l-2.179-2.179A7.509,7.509,0,0,1,479,234.509Zm7.509-3.754a.939.939,0,0,1,.939.939v1.877h1.877a.939.939,0,1,1,0,1.877h-1.877v1.877a.939.939,0,0,1-1.877,0v-1.877h-1.877a.939.939,0,1,1,0-1.877h1.877v-1.877A.939.939,0,0,1,486.509,230.754Z" transform="translate(-20756.947 -14594.569)" fill="#888" fill-rule="evenodd"/></g></svg>