<svg xmlns="http://www.w3.org/2000/svg" width="22" height="18" viewBox="0 0 22 18"><g transform="translate(20281 14368)"><rect width="22" height="18" transform="translate(-20281 -14368)" fill="red" opacity="0"/><path d="M281.117,449.474a2.945,2.945,0,0,0-3.512,4.446,5.7,5.7,0,0,0-.864.04,3.25,3.25,0,0,0-2.7,2.7,6.274,6.274,0,0,0-.04.928v.122a4.329,4.329,0,0,0,.03.651,2.437,2.437,0,0,0,1.594,1.917V461.4c0,.665,0,1.213.037,1.66a3.322,3.322,0,0,0,.328,1.29,3.259,3.259,0,0,0,1.386,1.386,3.321,3.321,0,0,0,1.29.328c.447.037.995.037,1.66.037h3.593c.665,0,1.213,0,1.66-.037a3.321,3.321,0,0,0,1.29-.328,3.259,3.259,0,0,0,1.386-1.386,3.32,3.32,0,0,0,.328-1.29c.037-.447.037-.995.037-1.66v-1.123a2.437,2.437,0,0,0,1.594-1.917,4.333,4.333,0,0,0,.03-.651v-.122a6.279,6.279,0,0,0-.04-.928,3.25,3.25,0,0,0-2.7-2.7,5.7,5.7,0,0,0-.864-.04,2.944,2.944,0,0,0-4.517-3.757A2.93,2.93,0,0,0,281.117,449.474Zm.193,6.07h-3.574a5.614,5.614,0,0,0-.742.02,1.622,1.622,0,0,0-1.35,1.35,5.6,5.6,0,0,0-.02.742,3.922,3.922,0,0,0,.01.452.814.814,0,0,0,.676.676,3.928,3.928,0,0,0,.452.01h4.548Zm1.624,3.249v-3.249h3.574a5.612,5.612,0,0,1,.741.02,1.622,1.622,0,0,1,1.35,1.35,5.6,5.6,0,0,1,.02.742,3.937,3.937,0,0,1-.01.452.814.814,0,0,1-.676.676,3.928,3.928,0,0,1-.452.01Zm-1.624,1.624h-4.061v.95c0,.707,0,1.188.032,1.56a1.759,1.759,0,0,0,.151.675,1.629,1.629,0,0,0,.693.693,1.759,1.759,0,0,0,.675.151c.372.031.853.032,1.56.032h.95Zm1.624,4.061v-4.061H287v.95c0,.707,0,1.188-.032,1.56a1.761,1.761,0,0,1-.151.675,1.63,1.63,0,0,1-.693.693,1.758,1.758,0,0,1-.675.151c-.372.031-.853.032-1.56.032Zm1.32-10.965h-1.32v-1.32a1.32,1.32,0,1,1,1.32,1.32Zm-3.167-2.053a1.318,1.318,0,0,1,.223.733v1.32h-1.32a1.32,1.32,0,1,1,1.1-2.053Z" transform="translate(-20552.35 -14816.778)" fill="#888" fill-rule="evenodd"/></g></svg>