<svg xmlns="http://www.w3.org/2000/svg" width="22" height="18" viewBox="0 0 22 18"><g transform="translate(20281 14368)"><rect width="22" height="18" transform="translate(-20281 -14368)" fill="red" opacity="0"/><path d="M1230.434,227.238a1.457,1.457,0,0,0-1-.406,3.072,3.072,0,0,0-1.743,1.009c-.792.8-1.184,1.392-1.01,2.3.189,1.039,1.14,2.625,3.748,5.237s4.213,3.569,5.251,3.767a1.786,1.786,0,0,0,1.184-.143,4.089,4.089,0,0,0,1.089-.875,5.062,5.062,0,0,0,.7-.862,2.617,2.617,0,0,0,.312-.891c.036-.176-.044-.5-.407-.993a7.994,7.994,0,0,0-1.242-1.276.877.877,0,0,0-1.1.012l-1.1.825a2.5,2.5,0,0,1-3.261-.239l-.755-.752a2.51,2.51,0,0,1-.24-3.263l.828-1.1a.883.883,0,0,0,.015-1.1A7.949,7.949,0,0,0,1230.434,227.238Zm.864-1.169a9.351,9.351,0,0,1,1.518,1.479,2.314,2.314,0,0,1,.044,2.9l-.828,1.1a1.05,1.05,0,0,0,.109,1.365l.748.751a1.046,1.046,0,0,0,1.365.1l1.1-.825a2.331,2.331,0,0,1,2.905.041,9.3,9.3,0,0,1,1.474,1.525,2.817,2.817,0,0,1,.668,2.133,4.138,4.138,0,0,1-.494,1.353,6.307,6.307,0,0,1-.908,1.127,5.406,5.406,0,0,1-1.489,1.173,3.249,3.249,0,0,1-2.1.267c-1.518-.288-3.392-1.549-6.007-4.168s-3.871-4.48-4.155-6a3.835,3.835,0,0,1,1.416-3.589,4.477,4.477,0,0,1,2.491-1.408A2.823,2.823,0,0,1,1231.3,226.068Z" transform="translate(-21502.545 -14592)" fill="#888" fill-rule="evenodd"/></g></svg>